M48
;DRILL file {KiCad (5.0.2)-1} date 2/18/2019 8:30:23 PM
;FORMAT={-:-/ absolute / metric / decimal}
FMAT,2
METRIC,TZ
T1C0.400
T2C0.600
T3C0.800
T4C0.900
T5C1.000
T6C1.016
T7C1.300
T8C1.600
T9C1.850
T10C3.048
T11C3.500
%
G90
G05
T1
X133.35Y-124.333
X134.874Y-121.285
X141.478Y-98.425
X146.558Y-111.125
X157.988Y-97.155
X171.958Y-107.315
X173.863Y-109.22
T2
X174.498Y-104.775
X175.768Y-104.775
X177.038Y-104.775
T3
X133.858Y-84.455
X133.858Y-94.615
X121.158Y-81.915
X128.658Y-81.915
X138.938Y-84.455
X138.938Y-94.615
X144.018Y-79.375
X144.018Y-89.535
X121.158Y-97.155
X128.658Y-97.155
X121.158Y-89.535
X128.658Y-89.535
X160.528Y-107.315
X160.528Y-117.475
X152.908Y-107.315
X152.908Y-117.475
X170.688Y-90.805
X170.688Y-100.965
T4
X133.858Y-79.375
X133.858Y-81.915
X138.938Y-79.375
X138.938Y-81.915
T5
X177.038Y-109.855
X177.038Y-112.395
X173.228Y-80.645
X173.228Y-83.185
X116.078Y-78.105
X116.078Y-80.645
X116.078Y-112.395
X116.078Y-114.935
X116.078Y-117.475
X116.078Y-120.015
X116.078Y-85.725
X116.078Y-88.265
X116.078Y-93.345
X116.078Y-95.885
X168.148Y-80.645
X168.148Y-83.185
X168.148Y-85.725
T6
X129.794Y-75.565
X132.334Y-75.565
X134.874Y-75.565
X137.414Y-75.565
X139.954Y-75.565
X142.494Y-75.565
X145.034Y-75.565
X147.574Y-75.565
X150.114Y-75.565
X152.654Y-75.565
X138.938Y-123.825
X141.478Y-123.825
X144.018Y-123.825
X146.558Y-123.825
X149.098Y-123.825
X151.638Y-123.825
X154.178Y-123.825
X156.718Y-123.825
X156.718Y-75.565
X159.258Y-75.565
X161.798Y-75.565
X164.338Y-75.565
X166.878Y-75.565
X169.418Y-75.565
X171.958Y-75.565
X174.498Y-75.565
X161.798Y-123.825
X164.338Y-123.825
X166.878Y-123.825
X169.418Y-123.825
X171.958Y-123.825
X174.498Y-123.825
T7
X148.368Y-96.805
X150.368Y-90.805
X150.368Y-102.805
X162.568Y-90.805
X162.568Y-102.805
T8
X166.878Y-117.475
X171.958Y-117.475
T9
X140.208Y-108.585
X140.208Y-113.285
X140.208Y-117.985
X122.428Y-104.775
X122.428Y-111.125
X122.428Y-117.475
X130.048Y-104.775
X130.048Y-111.125
X130.048Y-117.475
T10
X126.238Y-75.565
X177.038Y-90.805
X177.038Y-118.745
X124.968Y-123.825
T11
X151.488Y-83.185
T0
M30
