G04 #@! TF.GenerationSoftware,KiCad,Pcbnew,(5.0.2)-1*
G04 #@! TF.CreationDate,2019-02-18T20:30:17-05:00*
G04 #@! TF.ProjectId,PRIME-D,5052494d-452d-4442-9e6b-696361645f70,rev?*
G04 #@! TF.SameCoordinates,Original*
G04 #@! TF.FileFunction,Legend,Bot*
G04 #@! TF.FilePolarity,Positive*
%FSLAX46Y46*%
G04 Gerber Fmt 4.6, Leading zero omitted, Abs format (unit mm)*
G04 Created by KiCad (PCBNEW (5.0.2)-1) date 2/18/2019 8:30:17 PM*
%MOMM*%
%LPD*%
G01*
G04 APERTURE LIST*
%ADD10C,0.250000*%
G04 APERTURE END LIST*
D10*
X152673595Y-101202619D02*
X152673595Y-100393095D01*
X152721214Y-100297857D01*
X152768833Y-100250238D01*
X152864071Y-100202619D01*
X153054547Y-100202619D01*
X153149785Y-100250238D01*
X153197404Y-100297857D01*
X153245023Y-100393095D01*
X153245023Y-101202619D01*
X154292642Y-100297857D02*
X154245023Y-100250238D01*
X154102166Y-100202619D01*
X154006928Y-100202619D01*
X153864071Y-100250238D01*
X153768833Y-100345476D01*
X153721214Y-100440714D01*
X153673595Y-100631190D01*
X153673595Y-100774047D01*
X153721214Y-100964523D01*
X153768833Y-101059761D01*
X153864071Y-101155000D01*
X154006928Y-101202619D01*
X154102166Y-101202619D01*
X154245023Y-101155000D01*
X154292642Y-101107380D01*
X155054547Y-100726428D02*
X154721214Y-100726428D01*
X154721214Y-100202619D02*
X154721214Y-101202619D01*
X155197404Y-101202619D01*
X152673595Y-98452619D02*
X152673595Y-99452619D01*
X153054547Y-99452619D01*
X153149785Y-99405000D01*
X153197404Y-99357380D01*
X153245023Y-99262142D01*
X153245023Y-99119285D01*
X153197404Y-99024047D01*
X153149785Y-98976428D01*
X153054547Y-98928809D01*
X152673595Y-98928809D01*
X153673595Y-98452619D02*
X153673595Y-99119285D01*
X153673595Y-98928809D02*
X153721214Y-99024047D01*
X153768833Y-99071666D01*
X153864071Y-99119285D01*
X153959309Y-99119285D01*
X154292642Y-98452619D02*
X154292642Y-99119285D01*
X154292642Y-99452619D02*
X154245023Y-99405000D01*
X154292642Y-99357380D01*
X154340261Y-99405000D01*
X154292642Y-99452619D01*
X154292642Y-99357380D01*
X154768833Y-98452619D02*
X154768833Y-99119285D01*
X154768833Y-99024047D02*
X154816452Y-99071666D01*
X154911690Y-99119285D01*
X155054547Y-99119285D01*
X155149785Y-99071666D01*
X155197404Y-98976428D01*
X155197404Y-98452619D01*
X155197404Y-98976428D02*
X155245023Y-99071666D01*
X155340261Y-99119285D01*
X155483119Y-99119285D01*
X155578357Y-99071666D01*
X155625976Y-98976428D01*
X155625976Y-98452619D01*
X156483119Y-98500238D02*
X156387880Y-98452619D01*
X156197404Y-98452619D01*
X156102166Y-98500238D01*
X156054547Y-98595476D01*
X156054547Y-98976428D01*
X156102166Y-99071666D01*
X156197404Y-99119285D01*
X156387880Y-99119285D01*
X156483119Y-99071666D01*
X156530738Y-98976428D01*
X156530738Y-98881190D01*
X156054547Y-98785952D01*
X156959309Y-98833571D02*
X157721214Y-98833571D01*
X158197404Y-98452619D02*
X158197404Y-99452619D01*
X158435500Y-99452619D01*
X158578357Y-99405000D01*
X158673595Y-99309761D01*
X158721214Y-99214523D01*
X158768833Y-99024047D01*
X158768833Y-98881190D01*
X158721214Y-98690714D01*
X158673595Y-98595476D01*
X158578357Y-98500238D01*
X158435500Y-98452619D01*
X158197404Y-98452619D01*
X152625976Y-96988333D02*
X153102166Y-96988333D01*
X152530738Y-96702619D02*
X152864071Y-97702619D01*
X153197404Y-96702619D01*
X153530738Y-96702619D02*
X153530738Y-97369285D01*
X153530738Y-97178809D02*
X153578357Y-97274047D01*
X153625976Y-97321666D01*
X153721214Y-97369285D01*
X153816452Y-97369285D01*
X154578357Y-96702619D02*
X154578357Y-97702619D01*
X154578357Y-96750238D02*
X154483119Y-96702619D01*
X154292642Y-96702619D01*
X154197404Y-96750238D01*
X154149785Y-96797857D01*
X154102166Y-96893095D01*
X154102166Y-97178809D01*
X154149785Y-97274047D01*
X154197404Y-97321666D01*
X154292642Y-97369285D01*
X154483119Y-97369285D01*
X154578357Y-97321666D01*
X155483119Y-97369285D02*
X155483119Y-96702619D01*
X155054547Y-97369285D02*
X155054547Y-96845476D01*
X155102166Y-96750238D01*
X155197404Y-96702619D01*
X155340261Y-96702619D01*
X155435500Y-96750238D01*
X155483119Y-96797857D01*
X155959309Y-96702619D02*
X155959309Y-97369285D01*
X155959309Y-97702619D02*
X155911690Y-97655000D01*
X155959309Y-97607380D01*
X156006928Y-97655000D01*
X155959309Y-97702619D01*
X155959309Y-97607380D01*
X156435500Y-97369285D02*
X156435500Y-96702619D01*
X156435500Y-97274047D02*
X156483119Y-97321666D01*
X156578357Y-97369285D01*
X156721214Y-97369285D01*
X156816452Y-97321666D01*
X156864071Y-97226428D01*
X156864071Y-96702619D01*
X157483119Y-96702619D02*
X157387880Y-96750238D01*
X157340261Y-96797857D01*
X157292642Y-96893095D01*
X157292642Y-97178809D01*
X157340261Y-97274047D01*
X157387880Y-97321666D01*
X157483119Y-97369285D01*
X157625976Y-97369285D01*
X157721214Y-97321666D01*
X157768833Y-97274047D01*
X157816452Y-97178809D01*
X157816452Y-96893095D01*
X157768833Y-96797857D01*
X157721214Y-96750238D01*
X157625976Y-96702619D01*
X157483119Y-96702619D01*
X159006928Y-97702619D02*
X159006928Y-96893095D01*
X159054547Y-96797857D01*
X159102166Y-96750238D01*
X159197404Y-96702619D01*
X159387880Y-96702619D01*
X159483119Y-96750238D01*
X159530738Y-96797857D01*
X159578357Y-96893095D01*
X159578357Y-97702619D01*
X160054547Y-97369285D02*
X160054547Y-96702619D01*
X160054547Y-97274047D02*
X160102166Y-97321666D01*
X160197404Y-97369285D01*
X160340261Y-97369285D01*
X160435500Y-97321666D01*
X160483119Y-97226428D01*
X160483119Y-96702619D01*
X161102166Y-96702619D02*
X161006928Y-96750238D01*
X160959309Y-96797857D01*
X160911690Y-96893095D01*
X160911690Y-97178809D01*
X160959309Y-97274047D01*
X161006928Y-97321666D01*
X161102166Y-97369285D01*
X161245023Y-97369285D01*
X161340261Y-97321666D01*
X161387880Y-97274047D01*
X161435500Y-97178809D01*
X161435500Y-96893095D01*
X161387880Y-96797857D01*
X161340261Y-96750238D01*
X161245023Y-96702619D01*
X161102166Y-96702619D01*
X162578357Y-96750238D02*
X162721214Y-96702619D01*
X162959309Y-96702619D01*
X163054547Y-96750238D01*
X163102166Y-96797857D01*
X163149785Y-96893095D01*
X163149785Y-96988333D01*
X163102166Y-97083571D01*
X163054547Y-97131190D01*
X162959309Y-97178809D01*
X162768833Y-97226428D01*
X162673595Y-97274047D01*
X162625976Y-97321666D01*
X162578357Y-97416904D01*
X162578357Y-97512142D01*
X162625976Y-97607380D01*
X162673595Y-97655000D01*
X162768833Y-97702619D01*
X163006928Y-97702619D01*
X163149785Y-97655000D01*
X163578357Y-96702619D02*
X163578357Y-97702619D01*
X164006928Y-96702619D02*
X164006928Y-97226428D01*
X163959309Y-97321666D01*
X163864071Y-97369285D01*
X163721214Y-97369285D01*
X163625976Y-97321666D01*
X163578357Y-97274047D01*
X164483119Y-96702619D02*
X164483119Y-97369285D01*
X164483119Y-97702619D02*
X164435500Y-97655000D01*
X164483119Y-97607380D01*
X164530738Y-97655000D01*
X164483119Y-97702619D01*
X164483119Y-97607380D01*
X165340261Y-96750238D02*
X165245023Y-96702619D01*
X165054547Y-96702619D01*
X164959309Y-96750238D01*
X164911690Y-96845476D01*
X164911690Y-97226428D01*
X164959309Y-97321666D01*
X165054547Y-97369285D01*
X165245023Y-97369285D01*
X165340261Y-97321666D01*
X165387880Y-97226428D01*
X165387880Y-97131190D01*
X164911690Y-97035952D01*
X165959309Y-96702619D02*
X165864071Y-96750238D01*
X165816452Y-96845476D01*
X165816452Y-97702619D01*
X166768833Y-96702619D02*
X166768833Y-97702619D01*
X166768833Y-96750238D02*
X166673595Y-96702619D01*
X166483119Y-96702619D01*
X166387880Y-96750238D01*
X166340261Y-96797857D01*
X166292642Y-96893095D01*
X166292642Y-97178809D01*
X166340261Y-97274047D01*
X166387880Y-97321666D01*
X166483119Y-97369285D01*
X166673595Y-97369285D01*
X166768833Y-97321666D01*
X153245023Y-94952619D02*
X152911690Y-95428809D01*
X152673595Y-94952619D02*
X152673595Y-95952619D01*
X153054547Y-95952619D01*
X153149785Y-95905000D01*
X153197404Y-95857380D01*
X153245023Y-95762142D01*
X153245023Y-95619285D01*
X153197404Y-95524047D01*
X153149785Y-95476428D01*
X153054547Y-95428809D01*
X152673595Y-95428809D01*
X154054547Y-95000238D02*
X153959309Y-94952619D01*
X153768833Y-94952619D01*
X153673595Y-95000238D01*
X153625976Y-95095476D01*
X153625976Y-95476428D01*
X153673595Y-95571666D01*
X153768833Y-95619285D01*
X153959309Y-95619285D01*
X154054547Y-95571666D01*
X154102166Y-95476428D01*
X154102166Y-95381190D01*
X153625976Y-95285952D01*
X154435500Y-95619285D02*
X154673595Y-94952619D01*
X154911690Y-95619285D01*
X155292642Y-95333571D02*
X156054547Y-95333571D01*
X156721214Y-95952619D02*
X156816452Y-95952619D01*
X156911690Y-95905000D01*
X156959309Y-95857380D01*
X157006928Y-95762142D01*
X157054547Y-95571666D01*
X157054547Y-95333571D01*
X157006928Y-95143095D01*
X156959309Y-95047857D01*
X156911690Y-95000238D01*
X156816452Y-94952619D01*
X156721214Y-94952619D01*
X156625976Y-95000238D01*
X156578357Y-95047857D01*
X156530738Y-95143095D01*
X156483119Y-95333571D01*
X156483119Y-95571666D01*
X156530738Y-95762142D01*
X156578357Y-95857380D01*
X156625976Y-95905000D01*
X156721214Y-95952619D01*
X152530738Y-94202619D02*
X153102166Y-94202619D01*
X152816452Y-93202619D02*
X152816452Y-94202619D01*
X154006928Y-93297857D02*
X153959309Y-93250238D01*
X153816452Y-93202619D01*
X153721214Y-93202619D01*
X153578357Y-93250238D01*
X153483119Y-93345476D01*
X153435500Y-93440714D01*
X153387880Y-93631190D01*
X153387880Y-93774047D01*
X153435500Y-93964523D01*
X153483119Y-94059761D01*
X153578357Y-94155000D01*
X153721214Y-94202619D01*
X153816452Y-94202619D01*
X153959309Y-94155000D01*
X154006928Y-94107380D01*
X155006928Y-93297857D02*
X154959309Y-93250238D01*
X154816452Y-93202619D01*
X154721214Y-93202619D01*
X154578357Y-93250238D01*
X154483119Y-93345476D01*
X154435500Y-93440714D01*
X154387880Y-93631190D01*
X154387880Y-93774047D01*
X154435500Y-93964523D01*
X154483119Y-94059761D01*
X154578357Y-94155000D01*
X154721214Y-94202619D01*
X154816452Y-94202619D01*
X154959309Y-94155000D01*
X155006928Y-94107380D01*
M02*
