G04 #@! TF.GenerationSoftware,KiCad,Pcbnew,(5.0.2)-1*
G04 #@! TF.CreationDate,2019-02-18T20:30:17-05:00*
G04 #@! TF.ProjectId,PRIME-D,5052494d-452d-4442-9e6b-696361645f70,rev?*
G04 #@! TF.SameCoordinates,Original*
G04 #@! TF.FileFunction,Copper,L1,Top*
G04 #@! TF.FilePolarity,Positive*
%FSLAX46Y46*%
G04 Gerber Fmt 4.6, Leading zero omitted, Abs format (unit mm)*
G04 Created by KiCad (PCBNEW (5.0.2)-1) date 2/18/2019 8:30:17 PM*
%MOMM*%
%LPD*%
G01*
G04 APERTURE LIST*
G04 #@! TA.AperFunction,ComponentPad*
%ADD10R,1.700000X1.700000*%
G04 #@! TD*
G04 #@! TA.AperFunction,ComponentPad*
%ADD11O,1.700000X1.700000*%
G04 #@! TD*
G04 #@! TA.AperFunction,ComponentPad*
%ADD12O,1.800000X1.800000*%
G04 #@! TD*
G04 #@! TA.AperFunction,ComponentPad*
%ADD13R,1.800000X1.800000*%
G04 #@! TD*
G04 #@! TA.AperFunction,ComponentPad*
%ADD14C,1.800000*%
G04 #@! TD*
G04 #@! TA.AperFunction,ComponentPad*
%ADD15O,1.727200X2.032000*%
G04 #@! TD*
G04 #@! TA.AperFunction,ComponentPad*
%ADD16C,4.064000*%
G04 #@! TD*
G04 #@! TA.AperFunction,ComponentPad*
%ADD17O,1.600000X1.600000*%
G04 #@! TD*
G04 #@! TA.AperFunction,ComponentPad*
%ADD18C,1.600000*%
G04 #@! TD*
G04 #@! TA.AperFunction,SMDPad,CuDef*
%ADD19R,0.970000X1.270000*%
G04 #@! TD*
G04 #@! TA.AperFunction,ComponentPad*
%ADD20C,3.000000*%
G04 #@! TD*
G04 #@! TA.AperFunction,ComponentPad*
%ADD21C,2.800000*%
G04 #@! TD*
G04 #@! TA.AperFunction,ComponentPad*
%ADD22R,2.800000X2.800000*%
G04 #@! TD*
G04 #@! TA.AperFunction,ComponentPad*
%ADD23R,2.600000X2.600000*%
G04 #@! TD*
G04 #@! TA.AperFunction,ComponentPad*
%ADD24R,0.900000X1.500000*%
G04 #@! TD*
G04 #@! TA.AperFunction,ComponentPad*
%ADD25O,0.900000X1.500000*%
G04 #@! TD*
G04 #@! TA.AperFunction,ComponentPad*
%ADD26O,3.200000X3.200000*%
G04 #@! TD*
G04 #@! TA.AperFunction,ComponentPad*
%ADD27R,3.200000X3.200000*%
G04 #@! TD*
G04 #@! TA.AperFunction,ViaPad*
%ADD28C,0.600000*%
G04 #@! TD*
G04 #@! TA.AperFunction,Conductor*
%ADD29C,0.254000*%
G04 #@! TD*
G04 #@! TA.AperFunction,Conductor*
%ADD30C,0.250000*%
G04 #@! TD*
G04 #@! TA.AperFunction,Conductor*
%ADD31C,2.540000*%
G04 #@! TD*
G04 APERTURE END LIST*
D10*
G04 #@! TO.P,J10,1*
G04 #@! TO.N,/DropSignal_High*
X177038000Y-112395000D03*
D11*
G04 #@! TO.P,J10,2*
G04 #@! TO.N,/8*
X177038000Y-109855000D03*
G04 #@! TD*
D12*
G04 #@! TO.P,Q1,3*
G04 #@! TO.N,/CameraTrigger_Output*
X168148000Y-80645000D03*
G04 #@! TO.P,Q1,2*
G04 #@! TO.N,GND*
X168148000Y-83185000D03*
D13*
G04 #@! TO.P,Q1,1*
G04 #@! TO.N,/3(\002A\002A)*
X168148000Y-85725000D03*
G04 #@! TD*
G04 #@! TO.P,D1,1*
G04 #@! TO.N,Net-(D1-Pad1)*
X133858000Y-81915000D03*
D14*
G04 #@! TO.P,D1,2*
G04 #@! TO.N,/12(MISO)*
X133858000Y-79375000D03*
G04 #@! TD*
D15*
G04 #@! TO.P,P1,8*
G04 #@! TO.N,/BT2_V+*
X156718000Y-123825000D03*
G04 #@! TO.P,P1,7*
G04 #@! TO.N,GND*
X154178000Y-123825000D03*
G04 #@! TO.P,P1,6*
X151638000Y-123825000D03*
G04 #@! TO.P,P1,5*
G04 #@! TO.N,+5V*
X149098000Y-123825000D03*
G04 #@! TO.P,P1,4*
G04 #@! TO.N,N/C*
X146558000Y-123825000D03*
G04 #@! TO.P,P1,3*
X144018000Y-123825000D03*
G04 #@! TO.P,P1,2*
X141478000Y-123825000D03*
G04 #@! TO.P,P1,1*
X138938000Y-123825000D03*
G04 #@! TD*
G04 #@! TO.P,P2,6*
G04 #@! TO.N,N/C*
X174498000Y-123825000D03*
G04 #@! TO.P,P2,5*
X171958000Y-123825000D03*
G04 #@! TO.P,P2,4*
X169418000Y-123825000D03*
G04 #@! TO.P,P2,3*
X166878000Y-123825000D03*
G04 #@! TO.P,P2,2*
X164338000Y-123825000D03*
G04 #@! TO.P,P2,1*
X161798000Y-123825000D03*
G04 #@! TD*
G04 #@! TO.P,P3,10*
G04 #@! TO.N,/8*
X152654000Y-75565000D03*
G04 #@! TO.P,P3,9*
G04 #@! TO.N,N/C*
X150114000Y-75565000D03*
G04 #@! TO.P,P3,8*
X147574000Y-75565000D03*
G04 #@! TO.P,P3,7*
G04 #@! TO.N,/11(\002A\002A/MOSI)*
X145034000Y-75565000D03*
G04 #@! TO.P,P3,6*
G04 #@! TO.N,/12(MISO)*
X142494000Y-75565000D03*
G04 #@! TO.P,P3,5*
G04 #@! TO.N,N/C*
X139954000Y-75565000D03*
G04 #@! TO.P,P3,4*
G04 #@! TO.N,GND*
X137414000Y-75565000D03*
G04 #@! TO.P,P3,3*
G04 #@! TO.N,N/C*
X134874000Y-75565000D03*
G04 #@! TO.P,P3,2*
X132334000Y-75565000D03*
G04 #@! TO.P,P3,1*
X129794000Y-75565000D03*
G04 #@! TD*
G04 #@! TO.P,P4,8*
G04 #@! TO.N,N/C*
X174498000Y-75565000D03*
G04 #@! TO.P,P4,7*
X171958000Y-75565000D03*
G04 #@! TO.P,P4,6*
X169418000Y-75565000D03*
G04 #@! TO.P,P4,5*
G04 #@! TO.N,/3(\002A\002A)*
X166878000Y-75565000D03*
G04 #@! TO.P,P4,4*
G04 #@! TO.N,/4*
X164338000Y-75565000D03*
G04 #@! TO.P,P4,3*
G04 #@! TO.N,N/C*
X161798000Y-75565000D03*
G04 #@! TO.P,P4,2*
X159258000Y-75565000D03*
G04 #@! TO.P,P4,1*
X156718000Y-75565000D03*
G04 #@! TD*
D16*
G04 #@! TO.P,P5,1*
G04 #@! TO.N,N/C*
X124968000Y-123825000D03*
G04 #@! TD*
G04 #@! TO.P,P6,1*
G04 #@! TO.N,N/C*
X177038000Y-118745000D03*
G04 #@! TD*
G04 #@! TO.P,P7,1*
G04 #@! TO.N,N/C*
X126238000Y-75565000D03*
G04 #@! TD*
G04 #@! TO.P,P8,1*
G04 #@! TO.N,N/C*
X177038000Y-90805000D03*
G04 #@! TD*
D17*
G04 #@! TO.P,C1,2*
G04 #@! TO.N,/BT1_V-*
X128658000Y-97155000D03*
D18*
G04 #@! TO.P,C1,1*
G04 #@! TO.N,/BT1_V+*
X121158000Y-97155000D03*
G04 #@! TD*
G04 #@! TO.P,C2,1*
G04 #@! TO.N,/BT2_V+*
X121158000Y-89535000D03*
D17*
G04 #@! TO.P,C2,2*
G04 #@! TO.N,/BT2_V-*
X128658000Y-89535000D03*
G04 #@! TD*
G04 #@! TO.P,C3,2*
G04 #@! TO.N,/BT3_V-*
X128658000Y-81915000D03*
D18*
G04 #@! TO.P,C3,1*
G04 #@! TO.N,/BT3_V+*
X121158000Y-81915000D03*
G04 #@! TD*
D10*
G04 #@! TO.P,J3,1*
G04 #@! TO.N,/SOLENOID+*
X116078000Y-120015000D03*
D11*
G04 #@! TO.P,J3,2*
G04 #@! TO.N,/BT3_V-*
X116078000Y-117475000D03*
G04 #@! TO.P,J3,3*
G04 #@! TO.N,/BT1_V+*
X116078000Y-114935000D03*
G04 #@! TO.P,J3,4*
G04 #@! TO.N,/LEDStrip_V-*
X116078000Y-112395000D03*
G04 #@! TD*
D10*
G04 #@! TO.P,J6,1*
G04 #@! TO.N,/BT1_V+*
X116078000Y-95885000D03*
D11*
G04 #@! TO.P,J6,2*
G04 #@! TO.N,/BT1_V-*
X116078000Y-93345000D03*
G04 #@! TD*
G04 #@! TO.P,J7,2*
G04 #@! TO.N,/BT2_V-*
X116078000Y-85725000D03*
D10*
G04 #@! TO.P,J7,1*
G04 #@! TO.N,/BT2_V+*
X116078000Y-88265000D03*
G04 #@! TD*
G04 #@! TO.P,J8,1*
G04 #@! TO.N,/BT3_V+*
X116078000Y-80645000D03*
D11*
G04 #@! TO.P,J8,2*
G04 #@! TO.N,/BT3_V-*
X116078000Y-78105000D03*
G04 #@! TD*
D18*
G04 #@! TO.P,R1,1*
G04 #@! TO.N,GND*
X170688000Y-100965000D03*
D17*
G04 #@! TO.P,R1,2*
G04 #@! TO.N,/3(\002A\002A)*
X170688000Y-90805000D03*
G04 #@! TD*
D18*
G04 #@! TO.P,R2,1*
G04 #@! TO.N,GND*
X144018000Y-89535000D03*
D17*
G04 #@! TO.P,R2,2*
G04 #@! TO.N,/8*
X144018000Y-79375000D03*
G04 #@! TD*
G04 #@! TO.P,R3,2*
G04 #@! TO.N,Net-(D1-Pad1)*
X133858000Y-84455000D03*
D18*
G04 #@! TO.P,R3,1*
G04 #@! TO.N,Net-(Q2-Pad2)*
X133858000Y-94615000D03*
G04 #@! TD*
G04 #@! TO.P,R4,1*
G04 #@! TO.N,GND*
X138938000Y-94615000D03*
D17*
G04 #@! TO.P,R4,2*
G04 #@! TO.N,Net-(D3-Pad1)*
X138938000Y-84455000D03*
G04 #@! TD*
D11*
G04 #@! TO.P,J9,2*
G04 #@! TO.N,/CameraTrigger_Output*
X173228000Y-80645000D03*
D10*
G04 #@! TO.P,J9,1*
G04 #@! TO.N,GND*
X173228000Y-83185000D03*
G04 #@! TD*
D19*
G04 #@! TO.P,J1,1*
G04 #@! TO.N,Net-(J1-Pad1)*
X157358000Y-107945000D03*
G04 #@! TO.P,J1,2*
G04 #@! TO.N,/DropSignal_High*
X156078000Y-107945000D03*
G04 #@! TD*
G04 #@! TO.P,J2,2*
G04 #@! TO.N,Net-(J2-Pad2)*
X148458000Y-107945000D03*
G04 #@! TO.P,J2,1*
G04 #@! TO.N,Net-(J2-Pad1)*
X149738000Y-107945000D03*
G04 #@! TD*
D20*
G04 #@! TO.P,K1,4*
G04 #@! TO.N,/BT3_V+*
X148368000Y-96805000D03*
G04 #@! TO.P,K1,2*
G04 #@! TO.N,N/C*
X162568000Y-102805000D03*
G04 #@! TO.P,K1,5*
G04 #@! TO.N,Net-(D2-Pad2)*
X150368000Y-102805000D03*
G04 #@! TO.P,K1,3*
G04 #@! TO.N,/SOLENOID+*
X162568000Y-90805000D03*
G04 #@! TO.P,K1,1*
G04 #@! TO.N,+5V*
X150368000Y-90805000D03*
G04 #@! TD*
D17*
G04 #@! TO.P,R5,2*
G04 #@! TO.N,+5V*
X160528000Y-117475000D03*
D18*
G04 #@! TO.P,R5,1*
G04 #@! TO.N,Net-(J1-Pad1)*
X160528000Y-107315000D03*
G04 #@! TD*
G04 #@! TO.P,R6,1*
G04 #@! TO.N,Net-(J2-Pad1)*
X152908000Y-107315000D03*
D17*
G04 #@! TO.P,R6,2*
G04 #@! TO.N,+5V*
X152908000Y-117475000D03*
G04 #@! TD*
D21*
G04 #@! TO.P,SW1,3*
G04 #@! TO.N,GND*
X140208000Y-117985000D03*
G04 #@! TO.P,SW1,2*
G04 #@! TO.N,/11(\002A\002A/MOSI)*
X140208000Y-113285000D03*
D22*
G04 #@! TO.P,SW1,1*
G04 #@! TO.N,Net-(J2-Pad2)*
X140208000Y-108585000D03*
G04 #@! TD*
D21*
G04 #@! TO.P,SW2,6*
G04 #@! TO.N,/LEDStrip_V-*
X130048000Y-117475000D03*
G04 #@! TO.P,SW2,3*
G04 #@! TO.N,GND*
X122428000Y-117475000D03*
G04 #@! TO.P,SW2,5*
G04 #@! TO.N,/BT1_V-*
X130048000Y-111125000D03*
G04 #@! TO.P,SW2,2*
G04 #@! TO.N,/BT2_V-*
X122428000Y-111125000D03*
G04 #@! TO.P,SW2,4*
G04 #@! TO.N,N/C*
X130048000Y-104775000D03*
D23*
G04 #@! TO.P,SW2,1*
X122428000Y-104775000D03*
G04 #@! TD*
D24*
G04 #@! TO.P,Q2,1*
G04 #@! TO.N,GND*
X177038000Y-104775000D03*
D25*
G04 #@! TO.P,Q2,3*
G04 #@! TO.N,Net-(D2-Pad2)*
X174498000Y-104775000D03*
G04 #@! TO.P,Q2,2*
G04 #@! TO.N,Net-(Q2-Pad2)*
X175768000Y-104775000D03*
G04 #@! TD*
D26*
G04 #@! TO.P,D2,2*
G04 #@! TO.N,Net-(D2-Pad2)*
X171958000Y-117475000D03*
D27*
G04 #@! TO.P,D2,1*
G04 #@! TO.N,+5V*
X166878000Y-117475000D03*
G04 #@! TD*
D14*
G04 #@! TO.P,D3,2*
G04 #@! TO.N,/4*
X138938000Y-79375000D03*
D13*
G04 #@! TO.P,D3,1*
G04 #@! TO.N,Net-(D3-Pad1)*
X138938000Y-81915000D03*
G04 #@! TD*
D28*
G04 #@! TO.N,Net-(D2-Pad2)*
X171958000Y-107315000D03*
G04 #@! TO.N,Net-(Q2-Pad2)*
X173863000Y-109220000D03*
G04 #@! TO.N,/BT3_V-*
X141477996Y-98425000D03*
G04 #@! TO.N,GND*
X133350000Y-124333000D03*
G04 #@! TO.N,Net-(J2-Pad2)*
X146558000Y-111125000D03*
G04 #@! TO.N,/SOLENOID+*
X157988000Y-97155000D03*
X134873998Y-121285000D03*
G04 #@! TD*
D29*
G04 #@! TO.N,/8*
X152472205Y-75746795D02*
X152654000Y-75565000D01*
X152654000Y-78187038D02*
X152654000Y-75565000D01*
X164395001Y-89928039D02*
X152654000Y-78187038D01*
X177038000Y-109855000D02*
X164395001Y-97212001D01*
X164395001Y-97212001D02*
X164395001Y-89928039D01*
X152654000Y-75717400D02*
X152654000Y-75565000D01*
X148996400Y-79375000D02*
X152654000Y-75717400D01*
X144018000Y-79375000D02*
X148996400Y-79375000D01*
D30*
G04 #@! TO.N,/4*
X164338000Y-75717400D02*
X164338000Y-75565000D01*
D31*
G04 #@! TO.N,/BT1_V-*
X132918001Y-103397399D02*
X128658000Y-99137398D01*
X128658000Y-99137398D02*
X128658000Y-98286370D01*
X128658000Y-98286370D02*
X128658000Y-97155000D01*
X132918001Y-108254999D02*
X132918001Y-103397399D01*
X130048000Y-111125000D02*
X132918001Y-108254999D01*
X123698000Y-93345000D02*
X116078000Y-93345000D01*
X126238000Y-95885000D02*
X123698000Y-93345000D01*
X128658000Y-97155000D02*
X127388000Y-95885000D01*
X127388000Y-95885000D02*
X126238000Y-95885000D01*
G04 #@! TO.N,/BT2_V+*
X153820622Y-120015000D02*
X156718000Y-122912378D01*
X144018000Y-116205000D02*
X147828000Y-120015000D01*
X156718000Y-122912378D02*
X156718000Y-123825000D01*
X147828000Y-120015000D02*
X153820622Y-120015000D01*
X144018000Y-104775000D02*
X144018000Y-116205000D01*
X124783042Y-89535000D02*
X128593042Y-93345000D01*
X121158000Y-89535000D02*
X124783042Y-89535000D01*
X128593042Y-93345000D02*
X128778000Y-93345000D01*
X128778000Y-93345000D02*
X138938000Y-103505000D01*
X138938000Y-103505000D02*
X142748000Y-103505000D01*
X142748000Y-103505000D02*
X144018000Y-104775000D01*
G04 #@! TO.N,/BT2_V-*
X124848000Y-85725000D02*
X116078000Y-85725000D01*
X128658000Y-89535000D02*
X124848000Y-85725000D01*
D29*
G04 #@! TO.N,Net-(D1-Pad1)*
X133858000Y-84455000D02*
X133858000Y-81915000D01*
D31*
G04 #@! TO.N,Net-(D2-Pad2)*
X164477999Y-99834999D02*
X171958000Y-107315000D01*
X161142399Y-99834999D02*
X164477999Y-99834999D01*
X158172398Y-102805000D02*
X161142399Y-99834999D01*
X150368000Y-102805000D02*
X158172398Y-102805000D01*
D29*
G04 #@! TO.N,Net-(Q2-Pad2)*
X164973000Y-105410000D02*
X168783000Y-109220000D01*
X168783000Y-109220000D02*
X173438736Y-109220000D01*
X173438736Y-109220000D02*
X173863000Y-109220000D01*
X133858000Y-94615000D02*
X140208000Y-100965000D01*
X140208000Y-100965000D02*
X143736513Y-100965000D01*
X143736513Y-100965000D02*
X148181513Y-105410000D01*
X148181513Y-105410000D02*
X164973000Y-105410000D01*
D31*
G04 #@! TO.N,/BT1_V+*
X121158000Y-97155000D02*
X121158000Y-99695000D01*
X121158000Y-99695000D02*
X118618000Y-102235000D01*
X117280081Y-114935000D02*
X116078000Y-114935000D01*
X118618000Y-113597081D02*
X117280081Y-114935000D01*
X118618000Y-102235000D02*
X118618000Y-113597081D01*
G04 #@! TO.N,/BT3_V-*
X117280081Y-78105000D02*
X116078000Y-78105000D01*
X120707602Y-78105000D02*
X117280081Y-78105000D01*
X124517602Y-81915000D02*
X120707602Y-78105000D01*
X128658000Y-81915000D02*
X124517602Y-81915000D01*
X141477996Y-98000736D02*
X141477996Y-98425000D01*
X128658000Y-81915000D02*
X128658000Y-83046370D01*
X128658000Y-83046370D02*
X136416630Y-90805000D01*
X138487602Y-90805000D02*
X141477996Y-93795394D01*
X141477996Y-93795394D02*
X141477996Y-98000736D01*
X136416630Y-90805000D02*
X138487602Y-90805000D01*
D30*
G04 #@! TO.N,/12(MISO)*
X142494000Y-75565000D02*
X142494000Y-75819000D01*
D29*
X133858000Y-79375000D02*
X135128000Y-78105000D01*
X142494000Y-75717400D02*
X142494000Y-75565000D01*
X140106400Y-78105000D02*
X142494000Y-75717400D01*
X135128000Y-78105000D02*
X140106400Y-78105000D01*
G04 #@! TO.N,GND*
X140208000Y-117985000D02*
X137414000Y-120779000D01*
X137414000Y-120779000D02*
X137414000Y-122809000D01*
X137414000Y-122809000D02*
X135890000Y-124333000D01*
X135890000Y-124333000D02*
X133350000Y-124333000D01*
G04 #@! TO.N,Net-(J1-Pad1)*
X159898000Y-107945000D02*
X160528000Y-107315000D01*
X157358000Y-107945000D02*
X159898000Y-107945000D01*
G04 #@! TO.N,/DropSignal_High*
X156078000Y-107945000D02*
X156078000Y-108095000D01*
X159639000Y-112395000D02*
X177038000Y-112395000D01*
X156078000Y-107945000D02*
X156078000Y-108834000D01*
X156078000Y-108834000D02*
X159639000Y-112395000D01*
G04 #@! TO.N,Net-(J2-Pad2)*
X146558000Y-109995000D02*
X146558000Y-111125000D01*
X148458000Y-107945000D02*
X148458000Y-108095000D01*
X148458000Y-108095000D02*
X146558000Y-109995000D01*
G04 #@! TO.N,Net-(J2-Pad1)*
X152278000Y-107945000D02*
X152908000Y-107315000D01*
X149738000Y-107945000D02*
X152278000Y-107945000D01*
D31*
G04 #@! TO.N,/SOLENOID+*
X157988000Y-95385000D02*
X162568000Y-90805000D01*
X157988000Y-97155000D02*
X157988000Y-95385000D01*
X116078000Y-120015000D02*
X119468000Y-120015000D01*
X119468000Y-120015000D02*
X119798001Y-120345001D01*
X123287039Y-120322999D02*
X128648397Y-120322999D01*
X119798001Y-120345001D02*
X123265037Y-120345001D01*
X129610398Y-121285000D02*
X134449734Y-121285000D01*
X134449734Y-121285000D02*
X134873998Y-121285000D01*
X128648397Y-120322999D02*
X129610398Y-121285000D01*
X123265037Y-120345001D02*
X123287039Y-120322999D01*
D29*
G04 #@! TO.N,/CameraTrigger_Output*
X168148000Y-80645000D02*
X173228000Y-80645000D01*
G04 #@! TO.N,/3(\002A\002A)*
X169418000Y-85725000D02*
X168148000Y-85725000D01*
X170688000Y-90805000D02*
X170688000Y-86995000D01*
X170688000Y-86995000D02*
X169418000Y-85725000D01*
X166878000Y-75565000D02*
X166878000Y-77470000D01*
X166878000Y-77470000D02*
X164338000Y-80010000D01*
X166994000Y-85725000D02*
X168148000Y-85725000D01*
X164338000Y-83069000D02*
X166994000Y-85725000D01*
X164338000Y-80010000D02*
X164338000Y-83069000D01*
G04 #@! TO.N,Net-(D3-Pad1)*
X138938000Y-84455000D02*
X138938000Y-81915000D01*
G04 #@! TD*
G04 #@! TO.N,GND*
G36*
X123977026Y-74054266D02*
X123571000Y-75034501D01*
X123571000Y-76095499D01*
X123977026Y-77075734D01*
X124727266Y-77825974D01*
X125707501Y-78232000D01*
X126768499Y-78232000D01*
X127748734Y-77825974D01*
X128498974Y-77075734D01*
X128652156Y-76705918D01*
X128713570Y-76797830D01*
X129209276Y-77129050D01*
X129794000Y-77245359D01*
X130378725Y-77129050D01*
X130874430Y-76797830D01*
X131064000Y-76514119D01*
X131253570Y-76797830D01*
X131749276Y-77129050D01*
X132334000Y-77245359D01*
X132918725Y-77129050D01*
X133414430Y-76797830D01*
X133604000Y-76514119D01*
X133793570Y-76797830D01*
X134289276Y-77129050D01*
X134874000Y-77245359D01*
X135458725Y-77129050D01*
X135954430Y-76797830D01*
X136147909Y-76508267D01*
X136511964Y-76915732D01*
X137039209Y-77169709D01*
X137054974Y-77172358D01*
X137287000Y-77051217D01*
X137287000Y-75692000D01*
X137267000Y-75692000D01*
X137267000Y-75438000D01*
X137287000Y-75438000D01*
X137287000Y-74078783D01*
X137054974Y-73957642D01*
X137039209Y-73960291D01*
X136511964Y-74214268D01*
X136147910Y-74621732D01*
X135954430Y-74332170D01*
X135458724Y-74000950D01*
X134874000Y-73884641D01*
X134289275Y-74000950D01*
X133793570Y-74332170D01*
X133604000Y-74615881D01*
X133414430Y-74332170D01*
X132918724Y-74000950D01*
X132334000Y-73884641D01*
X131749275Y-74000950D01*
X131253570Y-74332170D01*
X131064000Y-74615881D01*
X130874430Y-74332170D01*
X130378724Y-74000950D01*
X129794000Y-73884641D01*
X129209275Y-74000950D01*
X128713570Y-74332170D01*
X128652156Y-74424082D01*
X128498974Y-74054266D01*
X128179708Y-73735000D01*
X175219910Y-73735000D01*
X176328001Y-74843092D01*
X176328000Y-85909076D01*
X176314091Y-85979000D01*
X176328000Y-86048924D01*
X176328000Y-86048925D01*
X176369195Y-86256027D01*
X176526119Y-86490880D01*
X176585402Y-86530492D01*
X178868001Y-88813092D01*
X178868001Y-88863293D01*
X178548734Y-88544026D01*
X177568499Y-88138000D01*
X176507501Y-88138000D01*
X175527266Y-88544026D01*
X174777026Y-89294266D01*
X174371000Y-90274501D01*
X174371000Y-91335499D01*
X174777026Y-92315734D01*
X175527266Y-93065974D01*
X176507501Y-93472000D01*
X177568499Y-93472000D01*
X178548734Y-93065974D01*
X178868001Y-92746707D01*
X178868000Y-116803292D01*
X178548734Y-116484026D01*
X177568499Y-116078000D01*
X176507501Y-116078000D01*
X175527266Y-116484026D01*
X174777026Y-117234266D01*
X174371000Y-118214501D01*
X174371000Y-119275499D01*
X174777026Y-120255734D01*
X175527266Y-121005974D01*
X176507501Y-121412000D01*
X177568499Y-121412000D01*
X178548734Y-121005974D01*
X178868000Y-120686708D01*
X178868000Y-120990909D01*
X176585402Y-123273508D01*
X176526120Y-123313119D01*
X176384544Y-123525002D01*
X176369196Y-123547972D01*
X176314091Y-123825000D01*
X176328001Y-123894929D01*
X176328000Y-125655000D01*
X157282677Y-125655000D01*
X157461294Y-125619471D01*
X158091428Y-125198428D01*
X158512471Y-124568294D01*
X158623000Y-124012625D01*
X158623000Y-123525003D01*
X160299400Y-123525003D01*
X160299400Y-124124998D01*
X160386350Y-124562125D01*
X160717570Y-125057830D01*
X161213276Y-125389050D01*
X161798000Y-125505359D01*
X162382725Y-125389050D01*
X162878430Y-125057830D01*
X163068000Y-124774119D01*
X163257570Y-125057830D01*
X163753276Y-125389050D01*
X164338000Y-125505359D01*
X164922725Y-125389050D01*
X165418430Y-125057830D01*
X165608000Y-124774119D01*
X165797570Y-125057830D01*
X166293276Y-125389050D01*
X166878000Y-125505359D01*
X167462725Y-125389050D01*
X167958430Y-125057830D01*
X168148000Y-124774119D01*
X168337570Y-125057830D01*
X168833276Y-125389050D01*
X169418000Y-125505359D01*
X170002725Y-125389050D01*
X170498430Y-125057830D01*
X170688000Y-124774119D01*
X170877570Y-125057830D01*
X171373276Y-125389050D01*
X171958000Y-125505359D01*
X172542725Y-125389050D01*
X173038430Y-125057830D01*
X173228000Y-124774119D01*
X173417570Y-125057830D01*
X173913276Y-125389050D01*
X174498000Y-125505359D01*
X175082725Y-125389050D01*
X175578430Y-125057830D01*
X175909650Y-124562124D01*
X175996600Y-124124997D01*
X175996600Y-123525002D01*
X175909650Y-123087875D01*
X175578430Y-122592170D01*
X175082724Y-122260950D01*
X174498000Y-122144641D01*
X173913275Y-122260950D01*
X173417570Y-122592170D01*
X173228000Y-122875881D01*
X173038430Y-122592170D01*
X172542724Y-122260950D01*
X171958000Y-122144641D01*
X171373275Y-122260950D01*
X170877570Y-122592170D01*
X170688000Y-122875881D01*
X170498430Y-122592170D01*
X170002724Y-122260950D01*
X169418000Y-122144641D01*
X168833275Y-122260950D01*
X168337570Y-122592170D01*
X168148000Y-122875881D01*
X167958430Y-122592170D01*
X167462724Y-122260950D01*
X166878000Y-122144641D01*
X166293275Y-122260950D01*
X165797570Y-122592170D01*
X165608000Y-122875881D01*
X165418430Y-122592170D01*
X164922724Y-122260950D01*
X164338000Y-122144641D01*
X163753275Y-122260950D01*
X163257570Y-122592170D01*
X163068000Y-122875881D01*
X162878430Y-122592170D01*
X162382724Y-122260950D01*
X161798000Y-122144641D01*
X161213275Y-122260950D01*
X160717570Y-122592170D01*
X160386350Y-123087876D01*
X160299400Y-123525003D01*
X158623000Y-123525003D01*
X158623000Y-123099998D01*
X158660320Y-122912377D01*
X158623000Y-122724756D01*
X158623000Y-122724752D01*
X158512471Y-122169084D01*
X158091428Y-121538950D01*
X157932366Y-121432668D01*
X155300331Y-118800633D01*
X155194050Y-118641572D01*
X154563916Y-118220529D01*
X154185948Y-118145347D01*
X154259740Y-118034909D01*
X154371113Y-117475000D01*
X159064887Y-117475000D01*
X159176260Y-118034909D01*
X159493423Y-118509577D01*
X159968091Y-118826740D01*
X160386667Y-118910000D01*
X160669333Y-118910000D01*
X161087909Y-118826740D01*
X161562577Y-118509577D01*
X161879740Y-118034909D01*
X161991113Y-117475000D01*
X161879740Y-116915091D01*
X161562577Y-116440423D01*
X161087909Y-116123260D01*
X160669333Y-116040000D01*
X160386667Y-116040000D01*
X159968091Y-116123260D01*
X159493423Y-116440423D01*
X159176260Y-116915091D01*
X159064887Y-117475000D01*
X154371113Y-117475000D01*
X154259740Y-116915091D01*
X153942577Y-116440423D01*
X153467909Y-116123260D01*
X153049333Y-116040000D01*
X152766667Y-116040000D01*
X152348091Y-116123260D01*
X151873423Y-116440423D01*
X151556260Y-116915091D01*
X151444887Y-117475000D01*
X151556260Y-118034909D01*
X151606434Y-118110000D01*
X148617077Y-118110000D01*
X146382077Y-115875000D01*
X164630560Y-115875000D01*
X164630560Y-119075000D01*
X164679843Y-119322765D01*
X164820191Y-119532809D01*
X165030235Y-119673157D01*
X165278000Y-119722440D01*
X168478000Y-119722440D01*
X168725765Y-119673157D01*
X168935809Y-119532809D01*
X169076157Y-119322765D01*
X169125440Y-119075000D01*
X169125440Y-117475000D01*
X169679214Y-117475000D01*
X169852676Y-118347054D01*
X170346655Y-119086345D01*
X171085946Y-119580324D01*
X171737872Y-119710000D01*
X172178128Y-119710000D01*
X172830054Y-119580324D01*
X173569345Y-119086345D01*
X174063324Y-118347054D01*
X174236786Y-117475000D01*
X174063324Y-116602946D01*
X173569345Y-115863655D01*
X172830054Y-115369676D01*
X172178128Y-115240000D01*
X171737872Y-115240000D01*
X171085946Y-115369676D01*
X170346655Y-115863655D01*
X169852676Y-116602946D01*
X169679214Y-117475000D01*
X169125440Y-117475000D01*
X169125440Y-115875000D01*
X169076157Y-115627235D01*
X168935809Y-115417191D01*
X168725765Y-115276843D01*
X168478000Y-115227560D01*
X165278000Y-115227560D01*
X165030235Y-115276843D01*
X164820191Y-115417191D01*
X164679843Y-115627235D01*
X164630560Y-115875000D01*
X146382077Y-115875000D01*
X145923000Y-115415924D01*
X145923000Y-111812290D01*
X146028365Y-111917655D01*
X146372017Y-112060000D01*
X146743983Y-112060000D01*
X147087635Y-111917655D01*
X147350655Y-111654635D01*
X147493000Y-111310983D01*
X147493000Y-110939017D01*
X147350655Y-110595365D01*
X147320000Y-110564710D01*
X147320000Y-110310630D01*
X148403191Y-109227440D01*
X148943000Y-109227440D01*
X149098000Y-109196609D01*
X149253000Y-109227440D01*
X150223000Y-109227440D01*
X150470765Y-109178157D01*
X150680809Y-109037809D01*
X150821157Y-108827765D01*
X150845178Y-108707000D01*
X152202957Y-108707000D01*
X152278000Y-108721927D01*
X152353043Y-108707000D01*
X152353048Y-108707000D01*
X152464992Y-108684733D01*
X152622561Y-108750000D01*
X153193439Y-108750000D01*
X153720862Y-108531534D01*
X154124534Y-108127862D01*
X154343000Y-107600439D01*
X154343000Y-107029561D01*
X154124534Y-106502138D01*
X153794396Y-106172000D01*
X159641604Y-106172000D01*
X159311466Y-106502138D01*
X159093000Y-107029561D01*
X159093000Y-107183000D01*
X158465178Y-107183000D01*
X158441157Y-107062235D01*
X158300809Y-106852191D01*
X158090765Y-106711843D01*
X157843000Y-106662560D01*
X156873000Y-106662560D01*
X156718000Y-106693391D01*
X156563000Y-106662560D01*
X155593000Y-106662560D01*
X155345235Y-106711843D01*
X155135191Y-106852191D01*
X154994843Y-107062235D01*
X154945560Y-107310000D01*
X154945560Y-108580000D01*
X154994843Y-108827765D01*
X155135191Y-109037809D01*
X155345235Y-109178157D01*
X155398603Y-109188773D01*
X155457697Y-109277212D01*
X155528630Y-109383371D01*
X155592252Y-109425882D01*
X159047116Y-112880746D01*
X159089629Y-112944371D01*
X159273635Y-113067320D01*
X159341681Y-113112787D01*
X159341682Y-113112787D01*
X159341683Y-113112788D01*
X159563952Y-113157000D01*
X159563956Y-113157000D01*
X159638999Y-113171927D01*
X159714042Y-113157000D01*
X175540560Y-113157000D01*
X175540560Y-113245000D01*
X175589843Y-113492765D01*
X175730191Y-113702809D01*
X175940235Y-113843157D01*
X176188000Y-113892440D01*
X177888000Y-113892440D01*
X178135765Y-113843157D01*
X178345809Y-113702809D01*
X178486157Y-113492765D01*
X178535440Y-113245000D01*
X178535440Y-111545000D01*
X178486157Y-111297235D01*
X178345809Y-111087191D01*
X178135765Y-110946843D01*
X178090381Y-110937816D01*
X178108625Y-110925625D01*
X178436839Y-110434418D01*
X178552092Y-109855000D01*
X178436839Y-109275582D01*
X178108625Y-108784375D01*
X177617418Y-108456161D01*
X177184256Y-108370000D01*
X176891744Y-108370000D01*
X176673952Y-108413321D01*
X174427954Y-106167323D01*
X174498000Y-106181256D01*
X174921346Y-106097047D01*
X175133001Y-105955624D01*
X175344655Y-106097047D01*
X175768000Y-106181256D01*
X176191346Y-106097047D01*
X176236642Y-106066781D01*
X176461691Y-106160000D01*
X176752250Y-106160000D01*
X176911000Y-106001250D01*
X176911000Y-104902000D01*
X177165000Y-104902000D01*
X177165000Y-106001250D01*
X177323750Y-106160000D01*
X177614309Y-106160000D01*
X177847698Y-106063327D01*
X178026327Y-105884699D01*
X178123000Y-105651310D01*
X178123000Y-105060750D01*
X177964250Y-104902000D01*
X177165000Y-104902000D01*
X176911000Y-104902000D01*
X176891000Y-104902000D01*
X176891000Y-104648000D01*
X176911000Y-104648000D01*
X176911000Y-103548750D01*
X177165000Y-103548750D01*
X177165000Y-104648000D01*
X177964250Y-104648000D01*
X178123000Y-104489250D01*
X178123000Y-103898690D01*
X178026327Y-103665301D01*
X177847698Y-103486673D01*
X177614309Y-103390000D01*
X177323750Y-103390000D01*
X177165000Y-103548750D01*
X176911000Y-103548750D01*
X176752250Y-103390000D01*
X176461691Y-103390000D01*
X176236641Y-103483219D01*
X176191345Y-103452953D01*
X175768000Y-103368744D01*
X175344654Y-103452953D01*
X175133000Y-103594376D01*
X174921345Y-103452953D01*
X174498000Y-103368744D01*
X174074654Y-103452953D01*
X173715759Y-103692759D01*
X173475953Y-104051655D01*
X173413000Y-104368140D01*
X173413000Y-105152369D01*
X170663431Y-102402801D01*
X171041454Y-102384778D01*
X171442005Y-102218864D01*
X171516139Y-101972745D01*
X170688000Y-101144605D01*
X170673858Y-101158748D01*
X170494252Y-100979142D01*
X170508395Y-100965000D01*
X170867605Y-100965000D01*
X171695745Y-101793139D01*
X171941864Y-101719005D01*
X172134965Y-101181777D01*
X172107778Y-100611546D01*
X171941864Y-100210995D01*
X171695745Y-100136861D01*
X170867605Y-100965000D01*
X170508395Y-100965000D01*
X169680255Y-100136861D01*
X169434136Y-100210995D01*
X169241035Y-100748223D01*
X169252659Y-100992029D01*
X168217885Y-99957255D01*
X169859861Y-99957255D01*
X170688000Y-100785395D01*
X171516139Y-99957255D01*
X171442005Y-99711136D01*
X170904777Y-99518035D01*
X170334546Y-99545222D01*
X169933995Y-99711136D01*
X169859861Y-99957255D01*
X168217885Y-99957255D01*
X165157001Y-96896371D01*
X165157001Y-90003086D01*
X165171929Y-89928039D01*
X165129186Y-89713157D01*
X165112789Y-89630722D01*
X164944372Y-89378668D01*
X164880750Y-89336157D01*
X153416000Y-77871408D01*
X153416000Y-77010598D01*
X153734430Y-76797830D01*
X154065650Y-76302124D01*
X154152600Y-75864997D01*
X154152600Y-75265003D01*
X155219400Y-75265003D01*
X155219400Y-75864998D01*
X155306350Y-76302125D01*
X155637570Y-76797830D01*
X156133276Y-77129050D01*
X156718000Y-77245359D01*
X157302725Y-77129050D01*
X157798430Y-76797830D01*
X157988000Y-76514119D01*
X158177570Y-76797830D01*
X158673276Y-77129050D01*
X159258000Y-77245359D01*
X159842725Y-77129050D01*
X160338430Y-76797830D01*
X160528000Y-76514119D01*
X160717570Y-76797830D01*
X161213276Y-77129050D01*
X161798000Y-77245359D01*
X162382725Y-77129050D01*
X162878430Y-76797830D01*
X163068000Y-76514119D01*
X163257570Y-76797830D01*
X163753276Y-77129050D01*
X164338000Y-77245359D01*
X164922725Y-77129050D01*
X165418430Y-76797830D01*
X165608000Y-76514119D01*
X165797570Y-76797830D01*
X166116001Y-77010599D01*
X166116001Y-77154369D01*
X163852254Y-79418116D01*
X163788629Y-79460629D01*
X163620212Y-79712684D01*
X163576000Y-79934953D01*
X163576000Y-79934957D01*
X163561073Y-80010000D01*
X163576000Y-80085043D01*
X163576001Y-82993952D01*
X163561073Y-83069000D01*
X163620213Y-83366317D01*
X163742774Y-83549742D01*
X163788630Y-83618371D01*
X163852251Y-83660881D01*
X166402117Y-86210748D01*
X166444629Y-86274371D01*
X166508251Y-86316882D01*
X166600560Y-86378561D01*
X166600560Y-86625000D01*
X166649843Y-86872765D01*
X166790191Y-87082809D01*
X167000235Y-87223157D01*
X167248000Y-87272440D01*
X169048000Y-87272440D01*
X169295765Y-87223157D01*
X169505809Y-87082809D01*
X169582862Y-86967492D01*
X169926001Y-87310632D01*
X169926000Y-89588293D01*
X169653423Y-89770423D01*
X169336260Y-90245091D01*
X169224887Y-90805000D01*
X169336260Y-91364909D01*
X169653423Y-91839577D01*
X170128091Y-92156740D01*
X170546667Y-92240000D01*
X170829333Y-92240000D01*
X171247909Y-92156740D01*
X171722577Y-91839577D01*
X172039740Y-91364909D01*
X172151113Y-90805000D01*
X172039740Y-90245091D01*
X171722577Y-89770423D01*
X171450000Y-89588293D01*
X171450000Y-87070042D01*
X171464927Y-86994999D01*
X171450000Y-86919956D01*
X171450000Y-86919952D01*
X171405788Y-86697683D01*
X171237371Y-86445629D01*
X171173749Y-86403118D01*
X170009883Y-85239253D01*
X169967371Y-85175629D01*
X169715317Y-85007212D01*
X169695440Y-85003258D01*
X169695440Y-84825000D01*
X169646157Y-84577235D01*
X169505809Y-84367191D01*
X169295765Y-84226843D01*
X169249502Y-84217641D01*
X169385966Y-84092576D01*
X169639046Y-83549742D01*
X169599159Y-83470750D01*
X171743000Y-83470750D01*
X171743000Y-84161310D01*
X171839673Y-84394699D01*
X172018302Y-84573327D01*
X172251691Y-84670000D01*
X172942250Y-84670000D01*
X173101000Y-84511250D01*
X173101000Y-83312000D01*
X173355000Y-83312000D01*
X173355000Y-84511250D01*
X173513750Y-84670000D01*
X174204309Y-84670000D01*
X174437698Y-84573327D01*
X174616327Y-84394699D01*
X174713000Y-84161310D01*
X174713000Y-83470750D01*
X174554250Y-83312000D01*
X173355000Y-83312000D01*
X173101000Y-83312000D01*
X171901750Y-83312000D01*
X171743000Y-83470750D01*
X169599159Y-83470750D01*
X169518997Y-83312000D01*
X168275000Y-83312000D01*
X168275000Y-83332000D01*
X168021000Y-83332000D01*
X168021000Y-83312000D01*
X166777003Y-83312000D01*
X166656954Y-83549742D01*
X166910034Y-84092576D01*
X167046498Y-84217641D01*
X167000235Y-84226843D01*
X166790191Y-84367191D01*
X166759602Y-84412971D01*
X165100000Y-82753370D01*
X165100000Y-80645000D01*
X166582928Y-80645000D01*
X166702062Y-81243927D01*
X167041327Y-81751673D01*
X167297174Y-81922624D01*
X166910034Y-82277424D01*
X166656954Y-82820258D01*
X166777003Y-83058000D01*
X168021000Y-83058000D01*
X168021000Y-83038000D01*
X168275000Y-83038000D01*
X168275000Y-83058000D01*
X169518997Y-83058000D01*
X169639046Y-82820258D01*
X169385966Y-82277424D01*
X168998826Y-81922624D01*
X169254673Y-81751673D01*
X169484976Y-81407000D01*
X171951158Y-81407000D01*
X172157375Y-81715625D01*
X172179033Y-81730096D01*
X172018302Y-81796673D01*
X171839673Y-81975301D01*
X171743000Y-82208690D01*
X171743000Y-82899250D01*
X171901750Y-83058000D01*
X173101000Y-83058000D01*
X173101000Y-83038000D01*
X173355000Y-83038000D01*
X173355000Y-83058000D01*
X174554250Y-83058000D01*
X174713000Y-82899250D01*
X174713000Y-82208690D01*
X174616327Y-81975301D01*
X174437698Y-81796673D01*
X174276967Y-81730096D01*
X174298625Y-81715625D01*
X174626839Y-81224418D01*
X174742092Y-80645000D01*
X174626839Y-80065582D01*
X174298625Y-79574375D01*
X173807418Y-79246161D01*
X173374256Y-79160000D01*
X173081744Y-79160000D01*
X172648582Y-79246161D01*
X172157375Y-79574375D01*
X171951158Y-79883000D01*
X169484976Y-79883000D01*
X169254673Y-79538327D01*
X168746927Y-79199062D01*
X168299182Y-79110000D01*
X167996818Y-79110000D01*
X167549073Y-79199062D01*
X167041327Y-79538327D01*
X166702062Y-80046073D01*
X166582928Y-80645000D01*
X165100000Y-80645000D01*
X165100000Y-80325630D01*
X167363746Y-78061884D01*
X167427371Y-78019371D01*
X167595788Y-77767317D01*
X167640000Y-77545048D01*
X167640000Y-77545044D01*
X167654927Y-77470001D01*
X167640000Y-77394958D01*
X167640000Y-77010598D01*
X167958430Y-76797830D01*
X168148000Y-76514119D01*
X168337570Y-76797830D01*
X168833276Y-77129050D01*
X169418000Y-77245359D01*
X170002725Y-77129050D01*
X170498430Y-76797830D01*
X170688000Y-76514119D01*
X170877570Y-76797830D01*
X171373276Y-77129050D01*
X171958000Y-77245359D01*
X172542725Y-77129050D01*
X173038430Y-76797830D01*
X173228000Y-76514119D01*
X173417570Y-76797830D01*
X173913276Y-77129050D01*
X174498000Y-77245359D01*
X175082725Y-77129050D01*
X175578430Y-76797830D01*
X175909650Y-76302124D01*
X175996600Y-75864997D01*
X175996600Y-75265002D01*
X175909650Y-74827875D01*
X175578430Y-74332170D01*
X175082724Y-74000950D01*
X174498000Y-73884641D01*
X173913275Y-74000950D01*
X173417570Y-74332170D01*
X173228000Y-74615881D01*
X173038430Y-74332170D01*
X172542724Y-74000950D01*
X171958000Y-73884641D01*
X171373275Y-74000950D01*
X170877570Y-74332170D01*
X170688000Y-74615881D01*
X170498430Y-74332170D01*
X170002724Y-74000950D01*
X169418000Y-73884641D01*
X168833275Y-74000950D01*
X168337570Y-74332170D01*
X168148000Y-74615881D01*
X167958430Y-74332170D01*
X167462724Y-74000950D01*
X166878000Y-73884641D01*
X166293275Y-74000950D01*
X165797570Y-74332170D01*
X165608000Y-74615881D01*
X165418430Y-74332170D01*
X164922724Y-74000950D01*
X164338000Y-73884641D01*
X163753275Y-74000950D01*
X163257570Y-74332170D01*
X163068000Y-74615881D01*
X162878430Y-74332170D01*
X162382724Y-74000950D01*
X161798000Y-73884641D01*
X161213275Y-74000950D01*
X160717570Y-74332170D01*
X160528000Y-74615881D01*
X160338430Y-74332170D01*
X159842724Y-74000950D01*
X159258000Y-73884641D01*
X158673275Y-74000950D01*
X158177570Y-74332170D01*
X157988000Y-74615881D01*
X157798430Y-74332170D01*
X157302724Y-74000950D01*
X156718000Y-73884641D01*
X156133275Y-74000950D01*
X155637570Y-74332170D01*
X155306350Y-74827876D01*
X155219400Y-75265003D01*
X154152600Y-75265003D01*
X154152600Y-75265002D01*
X154065650Y-74827875D01*
X153734430Y-74332170D01*
X153238724Y-74000950D01*
X152654000Y-73884641D01*
X152069275Y-74000950D01*
X151573570Y-74332170D01*
X151384000Y-74615881D01*
X151194430Y-74332170D01*
X150698724Y-74000950D01*
X150114000Y-73884641D01*
X149529275Y-74000950D01*
X149033570Y-74332170D01*
X148844000Y-74615881D01*
X148654430Y-74332170D01*
X148158724Y-74000950D01*
X147574000Y-73884641D01*
X146989275Y-74000950D01*
X146493570Y-74332170D01*
X146304000Y-74615881D01*
X146114430Y-74332170D01*
X145618724Y-74000950D01*
X145034000Y-73884641D01*
X144449275Y-74000950D01*
X143953570Y-74332170D01*
X143764000Y-74615881D01*
X143574430Y-74332170D01*
X143078724Y-74000950D01*
X142494000Y-73884641D01*
X141909275Y-74000950D01*
X141413570Y-74332170D01*
X141224000Y-74615881D01*
X141034430Y-74332170D01*
X140538724Y-74000950D01*
X139954000Y-73884641D01*
X139369275Y-74000950D01*
X138873570Y-74332170D01*
X138680091Y-74621733D01*
X138316036Y-74214268D01*
X137788791Y-73960291D01*
X137773026Y-73957642D01*
X137541000Y-74078783D01*
X137541000Y-75438000D01*
X137561000Y-75438000D01*
X137561000Y-75692000D01*
X137541000Y-75692000D01*
X137541000Y-77051217D01*
X137773026Y-77172358D01*
X137788791Y-77169709D01*
X138316036Y-76915732D01*
X138680090Y-76508268D01*
X138873570Y-76797830D01*
X139369276Y-77129050D01*
X139899293Y-77234477D01*
X139790770Y-77343000D01*
X135203042Y-77343000D01*
X135127999Y-77328073D01*
X135052956Y-77343000D01*
X135052952Y-77343000D01*
X134830683Y-77387212D01*
X134830682Y-77387213D01*
X134830681Y-77387213D01*
X134796412Y-77410111D01*
X134578629Y-77555629D01*
X134536118Y-77619251D01*
X134270838Y-77884531D01*
X134163330Y-77840000D01*
X133552670Y-77840000D01*
X132988493Y-78073690D01*
X132556690Y-78505493D01*
X132323000Y-79069670D01*
X132323000Y-79680330D01*
X132556690Y-80244507D01*
X132725908Y-80413725D01*
X132710235Y-80416843D01*
X132500191Y-80557191D01*
X132359843Y-80767235D01*
X132310560Y-81015000D01*
X132310560Y-82815000D01*
X132359843Y-83062765D01*
X132500191Y-83272809D01*
X132710235Y-83413157D01*
X132814430Y-83433882D01*
X132506260Y-83895091D01*
X132455580Y-84149874D01*
X130563000Y-82257294D01*
X130563000Y-82102626D01*
X130600321Y-81915000D01*
X130452471Y-81171706D01*
X130031428Y-80541572D01*
X129401294Y-80120529D01*
X128845626Y-80010000D01*
X128658000Y-79972679D01*
X128470374Y-80010000D01*
X125306679Y-80010000D01*
X122187312Y-76890634D01*
X122081030Y-76731572D01*
X121450896Y-76310529D01*
X120895228Y-76200000D01*
X120895223Y-76200000D01*
X120707602Y-76162680D01*
X120519981Y-76200000D01*
X115890374Y-76200000D01*
X115334706Y-76310529D01*
X114704572Y-76731572D01*
X114283529Y-77361706D01*
X114135679Y-78105000D01*
X114283529Y-78848294D01*
X114690195Y-79456912D01*
X114629843Y-79547235D01*
X114580560Y-79795000D01*
X114580560Y-81495000D01*
X114629843Y-81742765D01*
X114770191Y-81952809D01*
X114980235Y-82093157D01*
X115228000Y-82142440D01*
X116928000Y-82142440D01*
X117175765Y-82093157D01*
X117385809Y-81952809D01*
X117526157Y-81742765D01*
X117575440Y-81495000D01*
X117575440Y-80010000D01*
X119918526Y-80010000D01*
X120530296Y-80621771D01*
X120345138Y-80698466D01*
X119941466Y-81102138D01*
X119723000Y-81629561D01*
X119723000Y-82200439D01*
X119941466Y-82727862D01*
X120345138Y-83131534D01*
X120872561Y-83350000D01*
X121443439Y-83350000D01*
X121970862Y-83131534D01*
X122374534Y-82727862D01*
X122451229Y-82542704D01*
X123037894Y-83129369D01*
X123144174Y-83288428D01*
X123303233Y-83394708D01*
X123303235Y-83394710D01*
X123774307Y-83709471D01*
X123892530Y-83732987D01*
X124329976Y-83820000D01*
X115890374Y-83820000D01*
X115334706Y-83930529D01*
X114704572Y-84351572D01*
X114283529Y-84981706D01*
X114135679Y-85725000D01*
X114283529Y-86468294D01*
X114690195Y-87076912D01*
X114629843Y-87167235D01*
X114580560Y-87415000D01*
X114580560Y-89115000D01*
X114629843Y-89362765D01*
X114770191Y-89572809D01*
X114980235Y-89713157D01*
X115228000Y-89762440D01*
X116928000Y-89762440D01*
X117175765Y-89713157D01*
X117385809Y-89572809D01*
X117526157Y-89362765D01*
X117575440Y-89115000D01*
X117575440Y-87630000D01*
X120970374Y-87630000D01*
X120414706Y-87740529D01*
X119784572Y-88161572D01*
X119363529Y-88791706D01*
X119215679Y-89535000D01*
X119363529Y-90278294D01*
X119784572Y-90908428D01*
X120414706Y-91329471D01*
X120970374Y-91440000D01*
X115890374Y-91440000D01*
X115334706Y-91550529D01*
X114704572Y-91971572D01*
X114283529Y-92601706D01*
X114135679Y-93345000D01*
X114283529Y-94088294D01*
X114690195Y-94696912D01*
X114629843Y-94787235D01*
X114580560Y-95035000D01*
X114580560Y-96735000D01*
X114629843Y-96982765D01*
X114770191Y-97192809D01*
X114980235Y-97333157D01*
X115228000Y-97382440D01*
X116928000Y-97382440D01*
X117175765Y-97333157D01*
X117385809Y-97192809D01*
X117526157Y-96982765D01*
X117575440Y-96735000D01*
X117575440Y-95250000D01*
X120970374Y-95250000D01*
X120414706Y-95360529D01*
X119784572Y-95781572D01*
X119363529Y-96411707D01*
X119253000Y-96967375D01*
X119253001Y-98905923D01*
X117403634Y-100755290D01*
X117244572Y-100861572D01*
X116823529Y-101491707D01*
X116713000Y-102047375D01*
X116713000Y-102047379D01*
X116675680Y-102235000D01*
X116713000Y-102422621D01*
X116713001Y-111033300D01*
X116657418Y-110996161D01*
X116224256Y-110910000D01*
X115931744Y-110910000D01*
X115498582Y-110996161D01*
X115007375Y-111324375D01*
X114679161Y-111815582D01*
X114563908Y-112395000D01*
X114679161Y-112974418D01*
X114958234Y-113392080D01*
X114704572Y-113561572D01*
X114283529Y-114191706D01*
X114135679Y-114935000D01*
X114283529Y-115678294D01*
X114704572Y-116308428D01*
X114958234Y-116477920D01*
X114679161Y-116895582D01*
X114563908Y-117475000D01*
X114679161Y-118054418D01*
X114958234Y-118472080D01*
X114704572Y-118641572D01*
X114283529Y-119271706D01*
X114135679Y-120015000D01*
X114283529Y-120758294D01*
X114704572Y-121388428D01*
X115334706Y-121809471D01*
X115890374Y-121920000D01*
X118726245Y-121920000D01*
X119054707Y-122139472D01*
X119610375Y-122250001D01*
X119610380Y-122250001D01*
X119798001Y-122287321D01*
X119985622Y-122250001D01*
X122771291Y-122250001D01*
X122707026Y-122314266D01*
X122301000Y-123294501D01*
X122301000Y-124355499D01*
X122707026Y-125335734D01*
X123026292Y-125655000D01*
X111708000Y-125655000D01*
X111708000Y-73735000D01*
X124296292Y-73735000D01*
X123977026Y-74054266D01*
X123977026Y-74054266D01*
G37*
X123977026Y-74054266D02*
X123571000Y-75034501D01*
X123571000Y-76095499D01*
X123977026Y-77075734D01*
X124727266Y-77825974D01*
X125707501Y-78232000D01*
X126768499Y-78232000D01*
X127748734Y-77825974D01*
X128498974Y-77075734D01*
X128652156Y-76705918D01*
X128713570Y-76797830D01*
X129209276Y-77129050D01*
X129794000Y-77245359D01*
X130378725Y-77129050D01*
X130874430Y-76797830D01*
X131064000Y-76514119D01*
X131253570Y-76797830D01*
X131749276Y-77129050D01*
X132334000Y-77245359D01*
X132918725Y-77129050D01*
X133414430Y-76797830D01*
X133604000Y-76514119D01*
X133793570Y-76797830D01*
X134289276Y-77129050D01*
X134874000Y-77245359D01*
X135458725Y-77129050D01*
X135954430Y-76797830D01*
X136147909Y-76508267D01*
X136511964Y-76915732D01*
X137039209Y-77169709D01*
X137054974Y-77172358D01*
X137287000Y-77051217D01*
X137287000Y-75692000D01*
X137267000Y-75692000D01*
X137267000Y-75438000D01*
X137287000Y-75438000D01*
X137287000Y-74078783D01*
X137054974Y-73957642D01*
X137039209Y-73960291D01*
X136511964Y-74214268D01*
X136147910Y-74621732D01*
X135954430Y-74332170D01*
X135458724Y-74000950D01*
X134874000Y-73884641D01*
X134289275Y-74000950D01*
X133793570Y-74332170D01*
X133604000Y-74615881D01*
X133414430Y-74332170D01*
X132918724Y-74000950D01*
X132334000Y-73884641D01*
X131749275Y-74000950D01*
X131253570Y-74332170D01*
X131064000Y-74615881D01*
X130874430Y-74332170D01*
X130378724Y-74000950D01*
X129794000Y-73884641D01*
X129209275Y-74000950D01*
X128713570Y-74332170D01*
X128652156Y-74424082D01*
X128498974Y-74054266D01*
X128179708Y-73735000D01*
X175219910Y-73735000D01*
X176328001Y-74843092D01*
X176328000Y-85909076D01*
X176314091Y-85979000D01*
X176328000Y-86048924D01*
X176328000Y-86048925D01*
X176369195Y-86256027D01*
X176526119Y-86490880D01*
X176585402Y-86530492D01*
X178868001Y-88813092D01*
X178868001Y-88863293D01*
X178548734Y-88544026D01*
X177568499Y-88138000D01*
X176507501Y-88138000D01*
X175527266Y-88544026D01*
X174777026Y-89294266D01*
X174371000Y-90274501D01*
X174371000Y-91335499D01*
X174777026Y-92315734D01*
X175527266Y-93065974D01*
X176507501Y-93472000D01*
X177568499Y-93472000D01*
X178548734Y-93065974D01*
X178868001Y-92746707D01*
X178868000Y-116803292D01*
X178548734Y-116484026D01*
X177568499Y-116078000D01*
X176507501Y-116078000D01*
X175527266Y-116484026D01*
X174777026Y-117234266D01*
X174371000Y-118214501D01*
X174371000Y-119275499D01*
X174777026Y-120255734D01*
X175527266Y-121005974D01*
X176507501Y-121412000D01*
X177568499Y-121412000D01*
X178548734Y-121005974D01*
X178868000Y-120686708D01*
X178868000Y-120990909D01*
X176585402Y-123273508D01*
X176526120Y-123313119D01*
X176384544Y-123525002D01*
X176369196Y-123547972D01*
X176314091Y-123825000D01*
X176328001Y-123894929D01*
X176328000Y-125655000D01*
X157282677Y-125655000D01*
X157461294Y-125619471D01*
X158091428Y-125198428D01*
X158512471Y-124568294D01*
X158623000Y-124012625D01*
X158623000Y-123525003D01*
X160299400Y-123525003D01*
X160299400Y-124124998D01*
X160386350Y-124562125D01*
X160717570Y-125057830D01*
X161213276Y-125389050D01*
X161798000Y-125505359D01*
X162382725Y-125389050D01*
X162878430Y-125057830D01*
X163068000Y-124774119D01*
X163257570Y-125057830D01*
X163753276Y-125389050D01*
X164338000Y-125505359D01*
X164922725Y-125389050D01*
X165418430Y-125057830D01*
X165608000Y-124774119D01*
X165797570Y-125057830D01*
X166293276Y-125389050D01*
X166878000Y-125505359D01*
X167462725Y-125389050D01*
X167958430Y-125057830D01*
X168148000Y-124774119D01*
X168337570Y-125057830D01*
X168833276Y-125389050D01*
X169418000Y-125505359D01*
X170002725Y-125389050D01*
X170498430Y-125057830D01*
X170688000Y-124774119D01*
X170877570Y-125057830D01*
X171373276Y-125389050D01*
X171958000Y-125505359D01*
X172542725Y-125389050D01*
X173038430Y-125057830D01*
X173228000Y-124774119D01*
X173417570Y-125057830D01*
X173913276Y-125389050D01*
X174498000Y-125505359D01*
X175082725Y-125389050D01*
X175578430Y-125057830D01*
X175909650Y-124562124D01*
X175996600Y-124124997D01*
X175996600Y-123525002D01*
X175909650Y-123087875D01*
X175578430Y-122592170D01*
X175082724Y-122260950D01*
X174498000Y-122144641D01*
X173913275Y-122260950D01*
X173417570Y-122592170D01*
X173228000Y-122875881D01*
X173038430Y-122592170D01*
X172542724Y-122260950D01*
X171958000Y-122144641D01*
X171373275Y-122260950D01*
X170877570Y-122592170D01*
X170688000Y-122875881D01*
X170498430Y-122592170D01*
X170002724Y-122260950D01*
X169418000Y-122144641D01*
X168833275Y-122260950D01*
X168337570Y-122592170D01*
X168148000Y-122875881D01*
X167958430Y-122592170D01*
X167462724Y-122260950D01*
X166878000Y-122144641D01*
X166293275Y-122260950D01*
X165797570Y-122592170D01*
X165608000Y-122875881D01*
X165418430Y-122592170D01*
X164922724Y-122260950D01*
X164338000Y-122144641D01*
X163753275Y-122260950D01*
X163257570Y-122592170D01*
X163068000Y-122875881D01*
X162878430Y-122592170D01*
X162382724Y-122260950D01*
X161798000Y-122144641D01*
X161213275Y-122260950D01*
X160717570Y-122592170D01*
X160386350Y-123087876D01*
X160299400Y-123525003D01*
X158623000Y-123525003D01*
X158623000Y-123099998D01*
X158660320Y-122912377D01*
X158623000Y-122724756D01*
X158623000Y-122724752D01*
X158512471Y-122169084D01*
X158091428Y-121538950D01*
X157932366Y-121432668D01*
X155300331Y-118800633D01*
X155194050Y-118641572D01*
X154563916Y-118220529D01*
X154185948Y-118145347D01*
X154259740Y-118034909D01*
X154371113Y-117475000D01*
X159064887Y-117475000D01*
X159176260Y-118034909D01*
X159493423Y-118509577D01*
X159968091Y-118826740D01*
X160386667Y-118910000D01*
X160669333Y-118910000D01*
X161087909Y-118826740D01*
X161562577Y-118509577D01*
X161879740Y-118034909D01*
X161991113Y-117475000D01*
X161879740Y-116915091D01*
X161562577Y-116440423D01*
X161087909Y-116123260D01*
X160669333Y-116040000D01*
X160386667Y-116040000D01*
X159968091Y-116123260D01*
X159493423Y-116440423D01*
X159176260Y-116915091D01*
X159064887Y-117475000D01*
X154371113Y-117475000D01*
X154259740Y-116915091D01*
X153942577Y-116440423D01*
X153467909Y-116123260D01*
X153049333Y-116040000D01*
X152766667Y-116040000D01*
X152348091Y-116123260D01*
X151873423Y-116440423D01*
X151556260Y-116915091D01*
X151444887Y-117475000D01*
X151556260Y-118034909D01*
X151606434Y-118110000D01*
X148617077Y-118110000D01*
X146382077Y-115875000D01*
X164630560Y-115875000D01*
X164630560Y-119075000D01*
X164679843Y-119322765D01*
X164820191Y-119532809D01*
X165030235Y-119673157D01*
X165278000Y-119722440D01*
X168478000Y-119722440D01*
X168725765Y-119673157D01*
X168935809Y-119532809D01*
X169076157Y-119322765D01*
X169125440Y-119075000D01*
X169125440Y-117475000D01*
X169679214Y-117475000D01*
X169852676Y-118347054D01*
X170346655Y-119086345D01*
X171085946Y-119580324D01*
X171737872Y-119710000D01*
X172178128Y-119710000D01*
X172830054Y-119580324D01*
X173569345Y-119086345D01*
X174063324Y-118347054D01*
X174236786Y-117475000D01*
X174063324Y-116602946D01*
X173569345Y-115863655D01*
X172830054Y-115369676D01*
X172178128Y-115240000D01*
X171737872Y-115240000D01*
X171085946Y-115369676D01*
X170346655Y-115863655D01*
X169852676Y-116602946D01*
X169679214Y-117475000D01*
X169125440Y-117475000D01*
X169125440Y-115875000D01*
X169076157Y-115627235D01*
X168935809Y-115417191D01*
X168725765Y-115276843D01*
X168478000Y-115227560D01*
X165278000Y-115227560D01*
X165030235Y-115276843D01*
X164820191Y-115417191D01*
X164679843Y-115627235D01*
X164630560Y-115875000D01*
X146382077Y-115875000D01*
X145923000Y-115415924D01*
X145923000Y-111812290D01*
X146028365Y-111917655D01*
X146372017Y-112060000D01*
X146743983Y-112060000D01*
X147087635Y-111917655D01*
X147350655Y-111654635D01*
X147493000Y-111310983D01*
X147493000Y-110939017D01*
X147350655Y-110595365D01*
X147320000Y-110564710D01*
X147320000Y-110310630D01*
X148403191Y-109227440D01*
X148943000Y-109227440D01*
X149098000Y-109196609D01*
X149253000Y-109227440D01*
X150223000Y-109227440D01*
X150470765Y-109178157D01*
X150680809Y-109037809D01*
X150821157Y-108827765D01*
X150845178Y-108707000D01*
X152202957Y-108707000D01*
X152278000Y-108721927D01*
X152353043Y-108707000D01*
X152353048Y-108707000D01*
X152464992Y-108684733D01*
X152622561Y-108750000D01*
X153193439Y-108750000D01*
X153720862Y-108531534D01*
X154124534Y-108127862D01*
X154343000Y-107600439D01*
X154343000Y-107029561D01*
X154124534Y-106502138D01*
X153794396Y-106172000D01*
X159641604Y-106172000D01*
X159311466Y-106502138D01*
X159093000Y-107029561D01*
X159093000Y-107183000D01*
X158465178Y-107183000D01*
X158441157Y-107062235D01*
X158300809Y-106852191D01*
X158090765Y-106711843D01*
X157843000Y-106662560D01*
X156873000Y-106662560D01*
X156718000Y-106693391D01*
X156563000Y-106662560D01*
X155593000Y-106662560D01*
X155345235Y-106711843D01*
X155135191Y-106852191D01*
X154994843Y-107062235D01*
X154945560Y-107310000D01*
X154945560Y-108580000D01*
X154994843Y-108827765D01*
X155135191Y-109037809D01*
X155345235Y-109178157D01*
X155398603Y-109188773D01*
X155457697Y-109277212D01*
X155528630Y-109383371D01*
X155592252Y-109425882D01*
X159047116Y-112880746D01*
X159089629Y-112944371D01*
X159273635Y-113067320D01*
X159341681Y-113112787D01*
X159341682Y-113112787D01*
X159341683Y-113112788D01*
X159563952Y-113157000D01*
X159563956Y-113157000D01*
X159638999Y-113171927D01*
X159714042Y-113157000D01*
X175540560Y-113157000D01*
X175540560Y-113245000D01*
X175589843Y-113492765D01*
X175730191Y-113702809D01*
X175940235Y-113843157D01*
X176188000Y-113892440D01*
X177888000Y-113892440D01*
X178135765Y-113843157D01*
X178345809Y-113702809D01*
X178486157Y-113492765D01*
X178535440Y-113245000D01*
X178535440Y-111545000D01*
X178486157Y-111297235D01*
X178345809Y-111087191D01*
X178135765Y-110946843D01*
X178090381Y-110937816D01*
X178108625Y-110925625D01*
X178436839Y-110434418D01*
X178552092Y-109855000D01*
X178436839Y-109275582D01*
X178108625Y-108784375D01*
X177617418Y-108456161D01*
X177184256Y-108370000D01*
X176891744Y-108370000D01*
X176673952Y-108413321D01*
X174427954Y-106167323D01*
X174498000Y-106181256D01*
X174921346Y-106097047D01*
X175133001Y-105955624D01*
X175344655Y-106097047D01*
X175768000Y-106181256D01*
X176191346Y-106097047D01*
X176236642Y-106066781D01*
X176461691Y-106160000D01*
X176752250Y-106160000D01*
X176911000Y-106001250D01*
X176911000Y-104902000D01*
X177165000Y-104902000D01*
X177165000Y-106001250D01*
X177323750Y-106160000D01*
X177614309Y-106160000D01*
X177847698Y-106063327D01*
X178026327Y-105884699D01*
X178123000Y-105651310D01*
X178123000Y-105060750D01*
X177964250Y-104902000D01*
X177165000Y-104902000D01*
X176911000Y-104902000D01*
X176891000Y-104902000D01*
X176891000Y-104648000D01*
X176911000Y-104648000D01*
X176911000Y-103548750D01*
X177165000Y-103548750D01*
X177165000Y-104648000D01*
X177964250Y-104648000D01*
X178123000Y-104489250D01*
X178123000Y-103898690D01*
X178026327Y-103665301D01*
X177847698Y-103486673D01*
X177614309Y-103390000D01*
X177323750Y-103390000D01*
X177165000Y-103548750D01*
X176911000Y-103548750D01*
X176752250Y-103390000D01*
X176461691Y-103390000D01*
X176236641Y-103483219D01*
X176191345Y-103452953D01*
X175768000Y-103368744D01*
X175344654Y-103452953D01*
X175133000Y-103594376D01*
X174921345Y-103452953D01*
X174498000Y-103368744D01*
X174074654Y-103452953D01*
X173715759Y-103692759D01*
X173475953Y-104051655D01*
X173413000Y-104368140D01*
X173413000Y-105152369D01*
X170663431Y-102402801D01*
X171041454Y-102384778D01*
X171442005Y-102218864D01*
X171516139Y-101972745D01*
X170688000Y-101144605D01*
X170673858Y-101158748D01*
X170494252Y-100979142D01*
X170508395Y-100965000D01*
X170867605Y-100965000D01*
X171695745Y-101793139D01*
X171941864Y-101719005D01*
X172134965Y-101181777D01*
X172107778Y-100611546D01*
X171941864Y-100210995D01*
X171695745Y-100136861D01*
X170867605Y-100965000D01*
X170508395Y-100965000D01*
X169680255Y-100136861D01*
X169434136Y-100210995D01*
X169241035Y-100748223D01*
X169252659Y-100992029D01*
X168217885Y-99957255D01*
X169859861Y-99957255D01*
X170688000Y-100785395D01*
X171516139Y-99957255D01*
X171442005Y-99711136D01*
X170904777Y-99518035D01*
X170334546Y-99545222D01*
X169933995Y-99711136D01*
X169859861Y-99957255D01*
X168217885Y-99957255D01*
X165157001Y-96896371D01*
X165157001Y-90003086D01*
X165171929Y-89928039D01*
X165129186Y-89713157D01*
X165112789Y-89630722D01*
X164944372Y-89378668D01*
X164880750Y-89336157D01*
X153416000Y-77871408D01*
X153416000Y-77010598D01*
X153734430Y-76797830D01*
X154065650Y-76302124D01*
X154152600Y-75864997D01*
X154152600Y-75265003D01*
X155219400Y-75265003D01*
X155219400Y-75864998D01*
X155306350Y-76302125D01*
X155637570Y-76797830D01*
X156133276Y-77129050D01*
X156718000Y-77245359D01*
X157302725Y-77129050D01*
X157798430Y-76797830D01*
X157988000Y-76514119D01*
X158177570Y-76797830D01*
X158673276Y-77129050D01*
X159258000Y-77245359D01*
X159842725Y-77129050D01*
X160338430Y-76797830D01*
X160528000Y-76514119D01*
X160717570Y-76797830D01*
X161213276Y-77129050D01*
X161798000Y-77245359D01*
X162382725Y-77129050D01*
X162878430Y-76797830D01*
X163068000Y-76514119D01*
X163257570Y-76797830D01*
X163753276Y-77129050D01*
X164338000Y-77245359D01*
X164922725Y-77129050D01*
X165418430Y-76797830D01*
X165608000Y-76514119D01*
X165797570Y-76797830D01*
X166116001Y-77010599D01*
X166116001Y-77154369D01*
X163852254Y-79418116D01*
X163788629Y-79460629D01*
X163620212Y-79712684D01*
X163576000Y-79934953D01*
X163576000Y-79934957D01*
X163561073Y-80010000D01*
X163576000Y-80085043D01*
X163576001Y-82993952D01*
X163561073Y-83069000D01*
X163620213Y-83366317D01*
X163742774Y-83549742D01*
X163788630Y-83618371D01*
X163852251Y-83660881D01*
X166402117Y-86210748D01*
X166444629Y-86274371D01*
X166508251Y-86316882D01*
X166600560Y-86378561D01*
X166600560Y-86625000D01*
X166649843Y-86872765D01*
X166790191Y-87082809D01*
X167000235Y-87223157D01*
X167248000Y-87272440D01*
X169048000Y-87272440D01*
X169295765Y-87223157D01*
X169505809Y-87082809D01*
X169582862Y-86967492D01*
X169926001Y-87310632D01*
X169926000Y-89588293D01*
X169653423Y-89770423D01*
X169336260Y-90245091D01*
X169224887Y-90805000D01*
X169336260Y-91364909D01*
X169653423Y-91839577D01*
X170128091Y-92156740D01*
X170546667Y-92240000D01*
X170829333Y-92240000D01*
X171247909Y-92156740D01*
X171722577Y-91839577D01*
X172039740Y-91364909D01*
X172151113Y-90805000D01*
X172039740Y-90245091D01*
X171722577Y-89770423D01*
X171450000Y-89588293D01*
X171450000Y-87070042D01*
X171464927Y-86994999D01*
X171450000Y-86919956D01*
X171450000Y-86919952D01*
X171405788Y-86697683D01*
X171237371Y-86445629D01*
X171173749Y-86403118D01*
X170009883Y-85239253D01*
X169967371Y-85175629D01*
X169715317Y-85007212D01*
X169695440Y-85003258D01*
X169695440Y-84825000D01*
X169646157Y-84577235D01*
X169505809Y-84367191D01*
X169295765Y-84226843D01*
X169249502Y-84217641D01*
X169385966Y-84092576D01*
X169639046Y-83549742D01*
X169599159Y-83470750D01*
X171743000Y-83470750D01*
X171743000Y-84161310D01*
X171839673Y-84394699D01*
X172018302Y-84573327D01*
X172251691Y-84670000D01*
X172942250Y-84670000D01*
X173101000Y-84511250D01*
X173101000Y-83312000D01*
X173355000Y-83312000D01*
X173355000Y-84511250D01*
X173513750Y-84670000D01*
X174204309Y-84670000D01*
X174437698Y-84573327D01*
X174616327Y-84394699D01*
X174713000Y-84161310D01*
X174713000Y-83470750D01*
X174554250Y-83312000D01*
X173355000Y-83312000D01*
X173101000Y-83312000D01*
X171901750Y-83312000D01*
X171743000Y-83470750D01*
X169599159Y-83470750D01*
X169518997Y-83312000D01*
X168275000Y-83312000D01*
X168275000Y-83332000D01*
X168021000Y-83332000D01*
X168021000Y-83312000D01*
X166777003Y-83312000D01*
X166656954Y-83549742D01*
X166910034Y-84092576D01*
X167046498Y-84217641D01*
X167000235Y-84226843D01*
X166790191Y-84367191D01*
X166759602Y-84412971D01*
X165100000Y-82753370D01*
X165100000Y-80645000D01*
X166582928Y-80645000D01*
X166702062Y-81243927D01*
X167041327Y-81751673D01*
X167297174Y-81922624D01*
X166910034Y-82277424D01*
X166656954Y-82820258D01*
X166777003Y-83058000D01*
X168021000Y-83058000D01*
X168021000Y-83038000D01*
X168275000Y-83038000D01*
X168275000Y-83058000D01*
X169518997Y-83058000D01*
X169639046Y-82820258D01*
X169385966Y-82277424D01*
X168998826Y-81922624D01*
X169254673Y-81751673D01*
X169484976Y-81407000D01*
X171951158Y-81407000D01*
X172157375Y-81715625D01*
X172179033Y-81730096D01*
X172018302Y-81796673D01*
X171839673Y-81975301D01*
X171743000Y-82208690D01*
X171743000Y-82899250D01*
X171901750Y-83058000D01*
X173101000Y-83058000D01*
X173101000Y-83038000D01*
X173355000Y-83038000D01*
X173355000Y-83058000D01*
X174554250Y-83058000D01*
X174713000Y-82899250D01*
X174713000Y-82208690D01*
X174616327Y-81975301D01*
X174437698Y-81796673D01*
X174276967Y-81730096D01*
X174298625Y-81715625D01*
X174626839Y-81224418D01*
X174742092Y-80645000D01*
X174626839Y-80065582D01*
X174298625Y-79574375D01*
X173807418Y-79246161D01*
X173374256Y-79160000D01*
X173081744Y-79160000D01*
X172648582Y-79246161D01*
X172157375Y-79574375D01*
X171951158Y-79883000D01*
X169484976Y-79883000D01*
X169254673Y-79538327D01*
X168746927Y-79199062D01*
X168299182Y-79110000D01*
X167996818Y-79110000D01*
X167549073Y-79199062D01*
X167041327Y-79538327D01*
X166702062Y-80046073D01*
X166582928Y-80645000D01*
X165100000Y-80645000D01*
X165100000Y-80325630D01*
X167363746Y-78061884D01*
X167427371Y-78019371D01*
X167595788Y-77767317D01*
X167640000Y-77545048D01*
X167640000Y-77545044D01*
X167654927Y-77470001D01*
X167640000Y-77394958D01*
X167640000Y-77010598D01*
X167958430Y-76797830D01*
X168148000Y-76514119D01*
X168337570Y-76797830D01*
X168833276Y-77129050D01*
X169418000Y-77245359D01*
X170002725Y-77129050D01*
X170498430Y-76797830D01*
X170688000Y-76514119D01*
X170877570Y-76797830D01*
X171373276Y-77129050D01*
X171958000Y-77245359D01*
X172542725Y-77129050D01*
X173038430Y-76797830D01*
X173228000Y-76514119D01*
X173417570Y-76797830D01*
X173913276Y-77129050D01*
X174498000Y-77245359D01*
X175082725Y-77129050D01*
X175578430Y-76797830D01*
X175909650Y-76302124D01*
X175996600Y-75864997D01*
X175996600Y-75265002D01*
X175909650Y-74827875D01*
X175578430Y-74332170D01*
X175082724Y-74000950D01*
X174498000Y-73884641D01*
X173913275Y-74000950D01*
X173417570Y-74332170D01*
X173228000Y-74615881D01*
X173038430Y-74332170D01*
X172542724Y-74000950D01*
X171958000Y-73884641D01*
X171373275Y-74000950D01*
X170877570Y-74332170D01*
X170688000Y-74615881D01*
X170498430Y-74332170D01*
X170002724Y-74000950D01*
X169418000Y-73884641D01*
X168833275Y-74000950D01*
X168337570Y-74332170D01*
X168148000Y-74615881D01*
X167958430Y-74332170D01*
X167462724Y-74000950D01*
X166878000Y-73884641D01*
X166293275Y-74000950D01*
X165797570Y-74332170D01*
X165608000Y-74615881D01*
X165418430Y-74332170D01*
X164922724Y-74000950D01*
X164338000Y-73884641D01*
X163753275Y-74000950D01*
X163257570Y-74332170D01*
X163068000Y-74615881D01*
X162878430Y-74332170D01*
X162382724Y-74000950D01*
X161798000Y-73884641D01*
X161213275Y-74000950D01*
X160717570Y-74332170D01*
X160528000Y-74615881D01*
X160338430Y-74332170D01*
X159842724Y-74000950D01*
X159258000Y-73884641D01*
X158673275Y-74000950D01*
X158177570Y-74332170D01*
X157988000Y-74615881D01*
X157798430Y-74332170D01*
X157302724Y-74000950D01*
X156718000Y-73884641D01*
X156133275Y-74000950D01*
X155637570Y-74332170D01*
X155306350Y-74827876D01*
X155219400Y-75265003D01*
X154152600Y-75265003D01*
X154152600Y-75265002D01*
X154065650Y-74827875D01*
X153734430Y-74332170D01*
X153238724Y-74000950D01*
X152654000Y-73884641D01*
X152069275Y-74000950D01*
X151573570Y-74332170D01*
X151384000Y-74615881D01*
X151194430Y-74332170D01*
X150698724Y-74000950D01*
X150114000Y-73884641D01*
X149529275Y-74000950D01*
X149033570Y-74332170D01*
X148844000Y-74615881D01*
X148654430Y-74332170D01*
X148158724Y-74000950D01*
X147574000Y-73884641D01*
X146989275Y-74000950D01*
X146493570Y-74332170D01*
X146304000Y-74615881D01*
X146114430Y-74332170D01*
X145618724Y-74000950D01*
X145034000Y-73884641D01*
X144449275Y-74000950D01*
X143953570Y-74332170D01*
X143764000Y-74615881D01*
X143574430Y-74332170D01*
X143078724Y-74000950D01*
X142494000Y-73884641D01*
X141909275Y-74000950D01*
X141413570Y-74332170D01*
X141224000Y-74615881D01*
X141034430Y-74332170D01*
X140538724Y-74000950D01*
X139954000Y-73884641D01*
X139369275Y-74000950D01*
X138873570Y-74332170D01*
X138680091Y-74621733D01*
X138316036Y-74214268D01*
X137788791Y-73960291D01*
X137773026Y-73957642D01*
X137541000Y-74078783D01*
X137541000Y-75438000D01*
X137561000Y-75438000D01*
X137561000Y-75692000D01*
X137541000Y-75692000D01*
X137541000Y-77051217D01*
X137773026Y-77172358D01*
X137788791Y-77169709D01*
X138316036Y-76915732D01*
X138680090Y-76508268D01*
X138873570Y-76797830D01*
X139369276Y-77129050D01*
X139899293Y-77234477D01*
X139790770Y-77343000D01*
X135203042Y-77343000D01*
X135127999Y-77328073D01*
X135052956Y-77343000D01*
X135052952Y-77343000D01*
X134830683Y-77387212D01*
X134830682Y-77387213D01*
X134830681Y-77387213D01*
X134796412Y-77410111D01*
X134578629Y-77555629D01*
X134536118Y-77619251D01*
X134270838Y-77884531D01*
X134163330Y-77840000D01*
X133552670Y-77840000D01*
X132988493Y-78073690D01*
X132556690Y-78505493D01*
X132323000Y-79069670D01*
X132323000Y-79680330D01*
X132556690Y-80244507D01*
X132725908Y-80413725D01*
X132710235Y-80416843D01*
X132500191Y-80557191D01*
X132359843Y-80767235D01*
X132310560Y-81015000D01*
X132310560Y-82815000D01*
X132359843Y-83062765D01*
X132500191Y-83272809D01*
X132710235Y-83413157D01*
X132814430Y-83433882D01*
X132506260Y-83895091D01*
X132455580Y-84149874D01*
X130563000Y-82257294D01*
X130563000Y-82102626D01*
X130600321Y-81915000D01*
X130452471Y-81171706D01*
X130031428Y-80541572D01*
X129401294Y-80120529D01*
X128845626Y-80010000D01*
X128658000Y-79972679D01*
X128470374Y-80010000D01*
X125306679Y-80010000D01*
X122187312Y-76890634D01*
X122081030Y-76731572D01*
X121450896Y-76310529D01*
X120895228Y-76200000D01*
X120895223Y-76200000D01*
X120707602Y-76162680D01*
X120519981Y-76200000D01*
X115890374Y-76200000D01*
X115334706Y-76310529D01*
X114704572Y-76731572D01*
X114283529Y-77361706D01*
X114135679Y-78105000D01*
X114283529Y-78848294D01*
X114690195Y-79456912D01*
X114629843Y-79547235D01*
X114580560Y-79795000D01*
X114580560Y-81495000D01*
X114629843Y-81742765D01*
X114770191Y-81952809D01*
X114980235Y-82093157D01*
X115228000Y-82142440D01*
X116928000Y-82142440D01*
X117175765Y-82093157D01*
X117385809Y-81952809D01*
X117526157Y-81742765D01*
X117575440Y-81495000D01*
X117575440Y-80010000D01*
X119918526Y-80010000D01*
X120530296Y-80621771D01*
X120345138Y-80698466D01*
X119941466Y-81102138D01*
X119723000Y-81629561D01*
X119723000Y-82200439D01*
X119941466Y-82727862D01*
X120345138Y-83131534D01*
X120872561Y-83350000D01*
X121443439Y-83350000D01*
X121970862Y-83131534D01*
X122374534Y-82727862D01*
X122451229Y-82542704D01*
X123037894Y-83129369D01*
X123144174Y-83288428D01*
X123303233Y-83394708D01*
X123303235Y-83394710D01*
X123774307Y-83709471D01*
X123892530Y-83732987D01*
X124329976Y-83820000D01*
X115890374Y-83820000D01*
X115334706Y-83930529D01*
X114704572Y-84351572D01*
X114283529Y-84981706D01*
X114135679Y-85725000D01*
X114283529Y-86468294D01*
X114690195Y-87076912D01*
X114629843Y-87167235D01*
X114580560Y-87415000D01*
X114580560Y-89115000D01*
X114629843Y-89362765D01*
X114770191Y-89572809D01*
X114980235Y-89713157D01*
X115228000Y-89762440D01*
X116928000Y-89762440D01*
X117175765Y-89713157D01*
X117385809Y-89572809D01*
X117526157Y-89362765D01*
X117575440Y-89115000D01*
X117575440Y-87630000D01*
X120970374Y-87630000D01*
X120414706Y-87740529D01*
X119784572Y-88161572D01*
X119363529Y-88791706D01*
X119215679Y-89535000D01*
X119363529Y-90278294D01*
X119784572Y-90908428D01*
X120414706Y-91329471D01*
X120970374Y-91440000D01*
X115890374Y-91440000D01*
X115334706Y-91550529D01*
X114704572Y-91971572D01*
X114283529Y-92601706D01*
X114135679Y-93345000D01*
X114283529Y-94088294D01*
X114690195Y-94696912D01*
X114629843Y-94787235D01*
X114580560Y-95035000D01*
X114580560Y-96735000D01*
X114629843Y-96982765D01*
X114770191Y-97192809D01*
X114980235Y-97333157D01*
X115228000Y-97382440D01*
X116928000Y-97382440D01*
X117175765Y-97333157D01*
X117385809Y-97192809D01*
X117526157Y-96982765D01*
X117575440Y-96735000D01*
X117575440Y-95250000D01*
X120970374Y-95250000D01*
X120414706Y-95360529D01*
X119784572Y-95781572D01*
X119363529Y-96411707D01*
X119253000Y-96967375D01*
X119253001Y-98905923D01*
X117403634Y-100755290D01*
X117244572Y-100861572D01*
X116823529Y-101491707D01*
X116713000Y-102047375D01*
X116713000Y-102047379D01*
X116675680Y-102235000D01*
X116713000Y-102422621D01*
X116713001Y-111033300D01*
X116657418Y-110996161D01*
X116224256Y-110910000D01*
X115931744Y-110910000D01*
X115498582Y-110996161D01*
X115007375Y-111324375D01*
X114679161Y-111815582D01*
X114563908Y-112395000D01*
X114679161Y-112974418D01*
X114958234Y-113392080D01*
X114704572Y-113561572D01*
X114283529Y-114191706D01*
X114135679Y-114935000D01*
X114283529Y-115678294D01*
X114704572Y-116308428D01*
X114958234Y-116477920D01*
X114679161Y-116895582D01*
X114563908Y-117475000D01*
X114679161Y-118054418D01*
X114958234Y-118472080D01*
X114704572Y-118641572D01*
X114283529Y-119271706D01*
X114135679Y-120015000D01*
X114283529Y-120758294D01*
X114704572Y-121388428D01*
X115334706Y-121809471D01*
X115890374Y-121920000D01*
X118726245Y-121920000D01*
X119054707Y-122139472D01*
X119610375Y-122250001D01*
X119610380Y-122250001D01*
X119798001Y-122287321D01*
X119985622Y-122250001D01*
X122771291Y-122250001D01*
X122707026Y-122314266D01*
X122301000Y-123294501D01*
X122301000Y-124355499D01*
X122707026Y-125335734D01*
X123026292Y-125655000D01*
X111708000Y-125655000D01*
X111708000Y-73735000D01*
X124296292Y-73735000D01*
X123977026Y-74054266D01*
G36*
X124758292Y-97099369D02*
X124864572Y-97258428D01*
X125023631Y-97364708D01*
X125023632Y-97364709D01*
X125136970Y-97440439D01*
X125494706Y-97679471D01*
X126050374Y-97790000D01*
X126050378Y-97790000D01*
X126237999Y-97827320D01*
X126425620Y-97790000D01*
X126598924Y-97790000D01*
X126753000Y-97944076D01*
X126753000Y-98949777D01*
X126715680Y-99137398D01*
X126753000Y-99325019D01*
X126753000Y-99325023D01*
X126863529Y-99880691D01*
X127284572Y-100510826D01*
X127443634Y-100617108D01*
X129588987Y-102762461D01*
X128895265Y-103049810D01*
X128322810Y-103622265D01*
X128013000Y-104370213D01*
X128013000Y-105179787D01*
X128322810Y-105927735D01*
X128895265Y-106500190D01*
X129643213Y-106810000D01*
X130452787Y-106810000D01*
X131013001Y-106577952D01*
X131013001Y-107465922D01*
X129209114Y-109269809D01*
X128895265Y-109399810D01*
X128322810Y-109972265D01*
X128013000Y-110720213D01*
X128013000Y-111529787D01*
X128322810Y-112277735D01*
X128895265Y-112850190D01*
X129643213Y-113160000D01*
X130452787Y-113160000D01*
X131200735Y-112850190D01*
X131773190Y-112277735D01*
X131903191Y-111963886D01*
X134132370Y-109734707D01*
X134291429Y-109628427D01*
X134444187Y-109399810D01*
X134539806Y-109256705D01*
X134712472Y-108998293D01*
X134823001Y-108442625D01*
X134823001Y-108442621D01*
X134860321Y-108255000D01*
X134823001Y-108067379D01*
X134823001Y-103585019D01*
X134860321Y-103397398D01*
X134823001Y-103209777D01*
X134823001Y-103209773D01*
X134712472Y-102654105D01*
X134291429Y-102023971D01*
X134132367Y-101917689D01*
X130563000Y-98348322D01*
X130563000Y-97824076D01*
X137458292Y-104719369D01*
X137564572Y-104878428D01*
X137723631Y-104984708D01*
X137723633Y-104984710D01*
X138015587Y-105179787D01*
X138194706Y-105299471D01*
X138750374Y-105410000D01*
X138750379Y-105410000D01*
X138938000Y-105447320D01*
X139125621Y-105410000D01*
X141958924Y-105410000D01*
X142113000Y-105564076D01*
X142113000Y-106797817D01*
X142065809Y-106727191D01*
X141855765Y-106586843D01*
X141608000Y-106537560D01*
X138808000Y-106537560D01*
X138560235Y-106586843D01*
X138350191Y-106727191D01*
X138209843Y-106937235D01*
X138160560Y-107185000D01*
X138160560Y-109985000D01*
X138209843Y-110232765D01*
X138350191Y-110442809D01*
X138560235Y-110583157D01*
X138808000Y-110632440D01*
X141608000Y-110632440D01*
X141855765Y-110583157D01*
X142065809Y-110442809D01*
X142113000Y-110372182D01*
X142113001Y-112566367D01*
X141933190Y-112132265D01*
X141360735Y-111559810D01*
X140612787Y-111250000D01*
X139803213Y-111250000D01*
X139055265Y-111559810D01*
X138482810Y-112132265D01*
X138173000Y-112880213D01*
X138173000Y-113689787D01*
X138482810Y-114437735D01*
X139055265Y-115010190D01*
X139803213Y-115320000D01*
X140612787Y-115320000D01*
X141360735Y-115010190D01*
X141933190Y-114437735D01*
X142113001Y-114003633D01*
X142113001Y-116017374D01*
X142075680Y-116205000D01*
X142113001Y-116392626D01*
X142201989Y-116840000D01*
X142223530Y-116948294D01*
X142538290Y-117419366D01*
X142538293Y-117419369D01*
X142644573Y-117578428D01*
X142803632Y-117684708D01*
X146348292Y-121229369D01*
X146454572Y-121388428D01*
X146613631Y-121494708D01*
X146613633Y-121494710D01*
X147084705Y-121809471D01*
X147202928Y-121832987D01*
X147640374Y-121920000D01*
X147640378Y-121920000D01*
X147828000Y-121957320D01*
X148015622Y-121920000D01*
X153031546Y-121920000D01*
X153485081Y-122373535D01*
X153275964Y-122474268D01*
X152908000Y-122886108D01*
X152540036Y-122474268D01*
X152012791Y-122220291D01*
X151997026Y-122217642D01*
X151765000Y-122338783D01*
X151765000Y-123698000D01*
X154051000Y-123698000D01*
X154051000Y-123678000D01*
X154305000Y-123678000D01*
X154305000Y-123698000D01*
X154325000Y-123698000D01*
X154325000Y-123952000D01*
X154305000Y-123952000D01*
X154305000Y-125311217D01*
X154537026Y-125432358D01*
X154552791Y-125429709D01*
X155080036Y-125175732D01*
X155222709Y-125016047D01*
X155344573Y-125198428D01*
X155974707Y-125619471D01*
X156153324Y-125655000D01*
X126909708Y-125655000D01*
X127228974Y-125335734D01*
X127635000Y-124355499D01*
X127635000Y-123525003D01*
X137439400Y-123525003D01*
X137439400Y-124124998D01*
X137526350Y-124562125D01*
X137857570Y-125057830D01*
X138353276Y-125389050D01*
X138938000Y-125505359D01*
X139522725Y-125389050D01*
X140018430Y-125057830D01*
X140208000Y-124774119D01*
X140397570Y-125057830D01*
X140893276Y-125389050D01*
X141478000Y-125505359D01*
X142062725Y-125389050D01*
X142558430Y-125057830D01*
X142748000Y-124774119D01*
X142937570Y-125057830D01*
X143433276Y-125389050D01*
X144018000Y-125505359D01*
X144602725Y-125389050D01*
X145098430Y-125057830D01*
X145288000Y-124774119D01*
X145477570Y-125057830D01*
X145973276Y-125389050D01*
X146558000Y-125505359D01*
X147142725Y-125389050D01*
X147638430Y-125057830D01*
X147828000Y-124774119D01*
X148017570Y-125057830D01*
X148513276Y-125389050D01*
X149098000Y-125505359D01*
X149682725Y-125389050D01*
X150178430Y-125057830D01*
X150371909Y-124768267D01*
X150735964Y-125175732D01*
X151263209Y-125429709D01*
X151278974Y-125432358D01*
X151511000Y-125311217D01*
X151511000Y-123952000D01*
X151765000Y-123952000D01*
X151765000Y-125311217D01*
X151997026Y-125432358D01*
X152012791Y-125429709D01*
X152540036Y-125175732D01*
X152908000Y-124763892D01*
X153275964Y-125175732D01*
X153803209Y-125429709D01*
X153818974Y-125432358D01*
X154051000Y-125311217D01*
X154051000Y-123952000D01*
X151765000Y-123952000D01*
X151511000Y-123952000D01*
X151491000Y-123952000D01*
X151491000Y-123698000D01*
X151511000Y-123698000D01*
X151511000Y-122338783D01*
X151278974Y-122217642D01*
X151263209Y-122220291D01*
X150735964Y-122474268D01*
X150371910Y-122881732D01*
X150178430Y-122592170D01*
X149682724Y-122260950D01*
X149098000Y-122144641D01*
X148513275Y-122260950D01*
X148017570Y-122592170D01*
X147828000Y-122875881D01*
X147638430Y-122592170D01*
X147142724Y-122260950D01*
X146558000Y-122144641D01*
X145973275Y-122260950D01*
X145477570Y-122592170D01*
X145288000Y-122875881D01*
X145098430Y-122592170D01*
X144602724Y-122260950D01*
X144018000Y-122144641D01*
X143433275Y-122260950D01*
X142937570Y-122592170D01*
X142748000Y-122875881D01*
X142558430Y-122592170D01*
X142062724Y-122260950D01*
X141478000Y-122144641D01*
X140893275Y-122260950D01*
X140397570Y-122592170D01*
X140208000Y-122875881D01*
X140018430Y-122592170D01*
X139522724Y-122260950D01*
X138938000Y-122144641D01*
X138353275Y-122260950D01*
X137857570Y-122592170D01*
X137526350Y-123087876D01*
X137439400Y-123525003D01*
X127635000Y-123525003D01*
X127635000Y-123294501D01*
X127228974Y-122314266D01*
X127142707Y-122227999D01*
X127859321Y-122227999D01*
X128130688Y-122499366D01*
X128236970Y-122658428D01*
X128867104Y-123079471D01*
X129422772Y-123190000D01*
X129422777Y-123190000D01*
X129610398Y-123227320D01*
X129798019Y-123190000D01*
X135061624Y-123190000D01*
X135617292Y-123079471D01*
X136247426Y-122658428D01*
X136668469Y-122028294D01*
X136816319Y-121285000D01*
X136668469Y-120541706D01*
X136247426Y-119911572D01*
X135617292Y-119490529D01*
X135296522Y-119426724D01*
X138945882Y-119426724D01*
X139093455Y-119735106D01*
X139848031Y-120028405D01*
X140657409Y-120010614D01*
X141322545Y-119735106D01*
X141470118Y-119426724D01*
X140208000Y-118164605D01*
X138945882Y-119426724D01*
X135296522Y-119426724D01*
X135061624Y-119380000D01*
X130766635Y-119380000D01*
X131200735Y-119200190D01*
X131773190Y-118627735D01*
X132083000Y-117879787D01*
X132083000Y-117625031D01*
X138164595Y-117625031D01*
X138182386Y-118434409D01*
X138457894Y-119099545D01*
X138766276Y-119247118D01*
X140028395Y-117985000D01*
X140387605Y-117985000D01*
X141649724Y-119247118D01*
X141958106Y-119099545D01*
X142251405Y-118344969D01*
X142233614Y-117535591D01*
X141958106Y-116870455D01*
X141649724Y-116722882D01*
X140387605Y-117985000D01*
X140028395Y-117985000D01*
X138766276Y-116722882D01*
X138457894Y-116870455D01*
X138164595Y-117625031D01*
X132083000Y-117625031D01*
X132083000Y-117070213D01*
X131864736Y-116543276D01*
X138945882Y-116543276D01*
X140208000Y-117805395D01*
X141470118Y-116543276D01*
X141322545Y-116234894D01*
X140567969Y-115941595D01*
X139758591Y-115959386D01*
X139093455Y-116234894D01*
X138945882Y-116543276D01*
X131864736Y-116543276D01*
X131773190Y-116322265D01*
X131200735Y-115749810D01*
X130452787Y-115440000D01*
X129643213Y-115440000D01*
X128895265Y-115749810D01*
X128322810Y-116322265D01*
X128013000Y-117070213D01*
X128013000Y-117879787D01*
X128235935Y-118417999D01*
X124244785Y-118417999D01*
X124471405Y-117834969D01*
X124453614Y-117025591D01*
X124178106Y-116360455D01*
X123869724Y-116212882D01*
X122607605Y-117475000D01*
X122621748Y-117489142D01*
X122442143Y-117668748D01*
X122428000Y-117654605D01*
X122413858Y-117668748D01*
X122234252Y-117489142D01*
X122248395Y-117475000D01*
X120986276Y-116212882D01*
X120677894Y-116360455D01*
X120384595Y-117115031D01*
X120402386Y-117924409D01*
X120615951Y-118440001D01*
X120539756Y-118440001D01*
X120211294Y-118220529D01*
X119655626Y-118110000D01*
X119655621Y-118110000D01*
X119468000Y-118072680D01*
X119280379Y-118110000D01*
X117439700Y-118110000D01*
X117476839Y-118054418D01*
X117592092Y-117475000D01*
X117476839Y-116895582D01*
X117442985Y-116844916D01*
X117467702Y-116840000D01*
X117467707Y-116840000D01*
X118023375Y-116729471D01*
X118653509Y-116308428D01*
X118759791Y-116149366D01*
X118875881Y-116033276D01*
X121165882Y-116033276D01*
X122428000Y-117295395D01*
X123690118Y-116033276D01*
X123542545Y-115724894D01*
X122787969Y-115431595D01*
X121978591Y-115449386D01*
X121313455Y-115724894D01*
X121165882Y-116033276D01*
X118875881Y-116033276D01*
X119832366Y-115076791D01*
X119991428Y-114970509D01*
X120412471Y-114340375D01*
X120523000Y-113784707D01*
X120523000Y-113784703D01*
X120560320Y-113597082D01*
X120523000Y-113409461D01*
X120523000Y-111843635D01*
X120702810Y-112277735D01*
X121275265Y-112850190D01*
X122023213Y-113160000D01*
X122832787Y-113160000D01*
X123580735Y-112850190D01*
X124153190Y-112277735D01*
X124463000Y-111529787D01*
X124463000Y-110720213D01*
X124153190Y-109972265D01*
X123580735Y-109399810D01*
X122832787Y-109090000D01*
X122023213Y-109090000D01*
X121275265Y-109399810D01*
X120702810Y-109972265D01*
X120523000Y-110406365D01*
X120523000Y-106288363D01*
X120529843Y-106322765D01*
X120670191Y-106532809D01*
X120880235Y-106673157D01*
X121128000Y-106722440D01*
X123728000Y-106722440D01*
X123975765Y-106673157D01*
X124185809Y-106532809D01*
X124326157Y-106322765D01*
X124375440Y-106075000D01*
X124375440Y-103475000D01*
X124326157Y-103227235D01*
X124185809Y-103017191D01*
X123975765Y-102876843D01*
X123728000Y-102827560D01*
X121128000Y-102827560D01*
X120880235Y-102876843D01*
X120670191Y-103017191D01*
X120529843Y-103227235D01*
X120523000Y-103261637D01*
X120523000Y-103024076D01*
X122372369Y-101174708D01*
X122531428Y-101068428D01*
X122952471Y-100438294D01*
X123063000Y-99882626D01*
X123063000Y-99882622D01*
X123100320Y-99695001D01*
X123063000Y-99507380D01*
X123063000Y-96967374D01*
X122952471Y-96411706D01*
X122531428Y-95781572D01*
X121901293Y-95360529D01*
X121345626Y-95250000D01*
X122908924Y-95250000D01*
X124758292Y-97099369D01*
X124758292Y-97099369D01*
G37*
X124758292Y-97099369D02*
X124864572Y-97258428D01*
X125023631Y-97364708D01*
X125023632Y-97364709D01*
X125136970Y-97440439D01*
X125494706Y-97679471D01*
X126050374Y-97790000D01*
X126050378Y-97790000D01*
X126237999Y-97827320D01*
X126425620Y-97790000D01*
X126598924Y-97790000D01*
X126753000Y-97944076D01*
X126753000Y-98949777D01*
X126715680Y-99137398D01*
X126753000Y-99325019D01*
X126753000Y-99325023D01*
X126863529Y-99880691D01*
X127284572Y-100510826D01*
X127443634Y-100617108D01*
X129588987Y-102762461D01*
X128895265Y-103049810D01*
X128322810Y-103622265D01*
X128013000Y-104370213D01*
X128013000Y-105179787D01*
X128322810Y-105927735D01*
X128895265Y-106500190D01*
X129643213Y-106810000D01*
X130452787Y-106810000D01*
X131013001Y-106577952D01*
X131013001Y-107465922D01*
X129209114Y-109269809D01*
X128895265Y-109399810D01*
X128322810Y-109972265D01*
X128013000Y-110720213D01*
X128013000Y-111529787D01*
X128322810Y-112277735D01*
X128895265Y-112850190D01*
X129643213Y-113160000D01*
X130452787Y-113160000D01*
X131200735Y-112850190D01*
X131773190Y-112277735D01*
X131903191Y-111963886D01*
X134132370Y-109734707D01*
X134291429Y-109628427D01*
X134444187Y-109399810D01*
X134539806Y-109256705D01*
X134712472Y-108998293D01*
X134823001Y-108442625D01*
X134823001Y-108442621D01*
X134860321Y-108255000D01*
X134823001Y-108067379D01*
X134823001Y-103585019D01*
X134860321Y-103397398D01*
X134823001Y-103209777D01*
X134823001Y-103209773D01*
X134712472Y-102654105D01*
X134291429Y-102023971D01*
X134132367Y-101917689D01*
X130563000Y-98348322D01*
X130563000Y-97824076D01*
X137458292Y-104719369D01*
X137564572Y-104878428D01*
X137723631Y-104984708D01*
X137723633Y-104984710D01*
X138015587Y-105179787D01*
X138194706Y-105299471D01*
X138750374Y-105410000D01*
X138750379Y-105410000D01*
X138938000Y-105447320D01*
X139125621Y-105410000D01*
X141958924Y-105410000D01*
X142113000Y-105564076D01*
X142113000Y-106797817D01*
X142065809Y-106727191D01*
X141855765Y-106586843D01*
X141608000Y-106537560D01*
X138808000Y-106537560D01*
X138560235Y-106586843D01*
X138350191Y-106727191D01*
X138209843Y-106937235D01*
X138160560Y-107185000D01*
X138160560Y-109985000D01*
X138209843Y-110232765D01*
X138350191Y-110442809D01*
X138560235Y-110583157D01*
X138808000Y-110632440D01*
X141608000Y-110632440D01*
X141855765Y-110583157D01*
X142065809Y-110442809D01*
X142113000Y-110372182D01*
X142113001Y-112566367D01*
X141933190Y-112132265D01*
X141360735Y-111559810D01*
X140612787Y-111250000D01*
X139803213Y-111250000D01*
X139055265Y-111559810D01*
X138482810Y-112132265D01*
X138173000Y-112880213D01*
X138173000Y-113689787D01*
X138482810Y-114437735D01*
X139055265Y-115010190D01*
X139803213Y-115320000D01*
X140612787Y-115320000D01*
X141360735Y-115010190D01*
X141933190Y-114437735D01*
X142113001Y-114003633D01*
X142113001Y-116017374D01*
X142075680Y-116205000D01*
X142113001Y-116392626D01*
X142201989Y-116840000D01*
X142223530Y-116948294D01*
X142538290Y-117419366D01*
X142538293Y-117419369D01*
X142644573Y-117578428D01*
X142803632Y-117684708D01*
X146348292Y-121229369D01*
X146454572Y-121388428D01*
X146613631Y-121494708D01*
X146613633Y-121494710D01*
X147084705Y-121809471D01*
X147202928Y-121832987D01*
X147640374Y-121920000D01*
X147640378Y-121920000D01*
X147828000Y-121957320D01*
X148015622Y-121920000D01*
X153031546Y-121920000D01*
X153485081Y-122373535D01*
X153275964Y-122474268D01*
X152908000Y-122886108D01*
X152540036Y-122474268D01*
X152012791Y-122220291D01*
X151997026Y-122217642D01*
X151765000Y-122338783D01*
X151765000Y-123698000D01*
X154051000Y-123698000D01*
X154051000Y-123678000D01*
X154305000Y-123678000D01*
X154305000Y-123698000D01*
X154325000Y-123698000D01*
X154325000Y-123952000D01*
X154305000Y-123952000D01*
X154305000Y-125311217D01*
X154537026Y-125432358D01*
X154552791Y-125429709D01*
X155080036Y-125175732D01*
X155222709Y-125016047D01*
X155344573Y-125198428D01*
X155974707Y-125619471D01*
X156153324Y-125655000D01*
X126909708Y-125655000D01*
X127228974Y-125335734D01*
X127635000Y-124355499D01*
X127635000Y-123525003D01*
X137439400Y-123525003D01*
X137439400Y-124124998D01*
X137526350Y-124562125D01*
X137857570Y-125057830D01*
X138353276Y-125389050D01*
X138938000Y-125505359D01*
X139522725Y-125389050D01*
X140018430Y-125057830D01*
X140208000Y-124774119D01*
X140397570Y-125057830D01*
X140893276Y-125389050D01*
X141478000Y-125505359D01*
X142062725Y-125389050D01*
X142558430Y-125057830D01*
X142748000Y-124774119D01*
X142937570Y-125057830D01*
X143433276Y-125389050D01*
X144018000Y-125505359D01*
X144602725Y-125389050D01*
X145098430Y-125057830D01*
X145288000Y-124774119D01*
X145477570Y-125057830D01*
X145973276Y-125389050D01*
X146558000Y-125505359D01*
X147142725Y-125389050D01*
X147638430Y-125057830D01*
X147828000Y-124774119D01*
X148017570Y-125057830D01*
X148513276Y-125389050D01*
X149098000Y-125505359D01*
X149682725Y-125389050D01*
X150178430Y-125057830D01*
X150371909Y-124768267D01*
X150735964Y-125175732D01*
X151263209Y-125429709D01*
X151278974Y-125432358D01*
X151511000Y-125311217D01*
X151511000Y-123952000D01*
X151765000Y-123952000D01*
X151765000Y-125311217D01*
X151997026Y-125432358D01*
X152012791Y-125429709D01*
X152540036Y-125175732D01*
X152908000Y-124763892D01*
X153275964Y-125175732D01*
X153803209Y-125429709D01*
X153818974Y-125432358D01*
X154051000Y-125311217D01*
X154051000Y-123952000D01*
X151765000Y-123952000D01*
X151511000Y-123952000D01*
X151491000Y-123952000D01*
X151491000Y-123698000D01*
X151511000Y-123698000D01*
X151511000Y-122338783D01*
X151278974Y-122217642D01*
X151263209Y-122220291D01*
X150735964Y-122474268D01*
X150371910Y-122881732D01*
X150178430Y-122592170D01*
X149682724Y-122260950D01*
X149098000Y-122144641D01*
X148513275Y-122260950D01*
X148017570Y-122592170D01*
X147828000Y-122875881D01*
X147638430Y-122592170D01*
X147142724Y-122260950D01*
X146558000Y-122144641D01*
X145973275Y-122260950D01*
X145477570Y-122592170D01*
X145288000Y-122875881D01*
X145098430Y-122592170D01*
X144602724Y-122260950D01*
X144018000Y-122144641D01*
X143433275Y-122260950D01*
X142937570Y-122592170D01*
X142748000Y-122875881D01*
X142558430Y-122592170D01*
X142062724Y-122260950D01*
X141478000Y-122144641D01*
X140893275Y-122260950D01*
X140397570Y-122592170D01*
X140208000Y-122875881D01*
X140018430Y-122592170D01*
X139522724Y-122260950D01*
X138938000Y-122144641D01*
X138353275Y-122260950D01*
X137857570Y-122592170D01*
X137526350Y-123087876D01*
X137439400Y-123525003D01*
X127635000Y-123525003D01*
X127635000Y-123294501D01*
X127228974Y-122314266D01*
X127142707Y-122227999D01*
X127859321Y-122227999D01*
X128130688Y-122499366D01*
X128236970Y-122658428D01*
X128867104Y-123079471D01*
X129422772Y-123190000D01*
X129422777Y-123190000D01*
X129610398Y-123227320D01*
X129798019Y-123190000D01*
X135061624Y-123190000D01*
X135617292Y-123079471D01*
X136247426Y-122658428D01*
X136668469Y-122028294D01*
X136816319Y-121285000D01*
X136668469Y-120541706D01*
X136247426Y-119911572D01*
X135617292Y-119490529D01*
X135296522Y-119426724D01*
X138945882Y-119426724D01*
X139093455Y-119735106D01*
X139848031Y-120028405D01*
X140657409Y-120010614D01*
X141322545Y-119735106D01*
X141470118Y-119426724D01*
X140208000Y-118164605D01*
X138945882Y-119426724D01*
X135296522Y-119426724D01*
X135061624Y-119380000D01*
X130766635Y-119380000D01*
X131200735Y-119200190D01*
X131773190Y-118627735D01*
X132083000Y-117879787D01*
X132083000Y-117625031D01*
X138164595Y-117625031D01*
X138182386Y-118434409D01*
X138457894Y-119099545D01*
X138766276Y-119247118D01*
X140028395Y-117985000D01*
X140387605Y-117985000D01*
X141649724Y-119247118D01*
X141958106Y-119099545D01*
X142251405Y-118344969D01*
X142233614Y-117535591D01*
X141958106Y-116870455D01*
X141649724Y-116722882D01*
X140387605Y-117985000D01*
X140028395Y-117985000D01*
X138766276Y-116722882D01*
X138457894Y-116870455D01*
X138164595Y-117625031D01*
X132083000Y-117625031D01*
X132083000Y-117070213D01*
X131864736Y-116543276D01*
X138945882Y-116543276D01*
X140208000Y-117805395D01*
X141470118Y-116543276D01*
X141322545Y-116234894D01*
X140567969Y-115941595D01*
X139758591Y-115959386D01*
X139093455Y-116234894D01*
X138945882Y-116543276D01*
X131864736Y-116543276D01*
X131773190Y-116322265D01*
X131200735Y-115749810D01*
X130452787Y-115440000D01*
X129643213Y-115440000D01*
X128895265Y-115749810D01*
X128322810Y-116322265D01*
X128013000Y-117070213D01*
X128013000Y-117879787D01*
X128235935Y-118417999D01*
X124244785Y-118417999D01*
X124471405Y-117834969D01*
X124453614Y-117025591D01*
X124178106Y-116360455D01*
X123869724Y-116212882D01*
X122607605Y-117475000D01*
X122621748Y-117489142D01*
X122442143Y-117668748D01*
X122428000Y-117654605D01*
X122413858Y-117668748D01*
X122234252Y-117489142D01*
X122248395Y-117475000D01*
X120986276Y-116212882D01*
X120677894Y-116360455D01*
X120384595Y-117115031D01*
X120402386Y-117924409D01*
X120615951Y-118440001D01*
X120539756Y-118440001D01*
X120211294Y-118220529D01*
X119655626Y-118110000D01*
X119655621Y-118110000D01*
X119468000Y-118072680D01*
X119280379Y-118110000D01*
X117439700Y-118110000D01*
X117476839Y-118054418D01*
X117592092Y-117475000D01*
X117476839Y-116895582D01*
X117442985Y-116844916D01*
X117467702Y-116840000D01*
X117467707Y-116840000D01*
X118023375Y-116729471D01*
X118653509Y-116308428D01*
X118759791Y-116149366D01*
X118875881Y-116033276D01*
X121165882Y-116033276D01*
X122428000Y-117295395D01*
X123690118Y-116033276D01*
X123542545Y-115724894D01*
X122787969Y-115431595D01*
X121978591Y-115449386D01*
X121313455Y-115724894D01*
X121165882Y-116033276D01*
X118875881Y-116033276D01*
X119832366Y-115076791D01*
X119991428Y-114970509D01*
X120412471Y-114340375D01*
X120523000Y-113784707D01*
X120523000Y-113784703D01*
X120560320Y-113597082D01*
X120523000Y-113409461D01*
X120523000Y-111843635D01*
X120702810Y-112277735D01*
X121275265Y-112850190D01*
X122023213Y-113160000D01*
X122832787Y-113160000D01*
X123580735Y-112850190D01*
X124153190Y-112277735D01*
X124463000Y-111529787D01*
X124463000Y-110720213D01*
X124153190Y-109972265D01*
X123580735Y-109399810D01*
X122832787Y-109090000D01*
X122023213Y-109090000D01*
X121275265Y-109399810D01*
X120702810Y-109972265D01*
X120523000Y-110406365D01*
X120523000Y-106288363D01*
X120529843Y-106322765D01*
X120670191Y-106532809D01*
X120880235Y-106673157D01*
X121128000Y-106722440D01*
X123728000Y-106722440D01*
X123975765Y-106673157D01*
X124185809Y-106532809D01*
X124326157Y-106322765D01*
X124375440Y-106075000D01*
X124375440Y-103475000D01*
X124326157Y-103227235D01*
X124185809Y-103017191D01*
X123975765Y-102876843D01*
X123728000Y-102827560D01*
X121128000Y-102827560D01*
X120880235Y-102876843D01*
X120670191Y-103017191D01*
X120529843Y-103227235D01*
X120523000Y-103261637D01*
X120523000Y-103024076D01*
X122372369Y-101174708D01*
X122531428Y-101068428D01*
X122952471Y-100438294D01*
X123063000Y-99882626D01*
X123063000Y-99882622D01*
X123100320Y-99695001D01*
X123063000Y-99507380D01*
X123063000Y-96967374D01*
X122952471Y-96411706D01*
X122531428Y-95781572D01*
X121901293Y-95360529D01*
X121345626Y-95250000D01*
X122908924Y-95250000D01*
X124758292Y-97099369D01*
G36*
X149033570Y-76797830D02*
X149529276Y-77129050D01*
X150059293Y-77234477D01*
X148680770Y-78613000D01*
X145234707Y-78613000D01*
X145052577Y-78340423D01*
X144577909Y-78023260D01*
X144159333Y-77940000D01*
X143876667Y-77940000D01*
X143458091Y-78023260D01*
X142983423Y-78340423D01*
X142666260Y-78815091D01*
X142554887Y-79375000D01*
X142666260Y-79934909D01*
X142983423Y-80409577D01*
X143458091Y-80726740D01*
X143876667Y-80810000D01*
X144159333Y-80810000D01*
X144577909Y-80726740D01*
X145052577Y-80409577D01*
X145234707Y-80137000D01*
X148921357Y-80137000D01*
X148996400Y-80151927D01*
X149071443Y-80137000D01*
X149071448Y-80137000D01*
X149293717Y-80092788D01*
X149545771Y-79924371D01*
X149588283Y-79860747D01*
X151892000Y-77557030D01*
X151892000Y-78111995D01*
X151877073Y-78187038D01*
X151892000Y-78262081D01*
X151892000Y-78262085D01*
X151936212Y-78484354D01*
X152104629Y-78736409D01*
X152168253Y-78778922D01*
X162083931Y-88694600D01*
X161358620Y-88995034D01*
X160758034Y-89595620D01*
X160528034Y-90150890D01*
X156773632Y-93905292D01*
X156614573Y-94011572D01*
X156508293Y-94170631D01*
X156508290Y-94170634D01*
X156193530Y-94641706D01*
X156045680Y-95385000D01*
X156083001Y-95572625D01*
X156083000Y-97342625D01*
X156193529Y-97898293D01*
X156614572Y-98528428D01*
X157244706Y-98949471D01*
X157988000Y-99097321D01*
X158731293Y-98949471D01*
X159361428Y-98528428D01*
X159782471Y-97898294D01*
X159893000Y-97342626D01*
X159893000Y-96174076D01*
X163222110Y-92844966D01*
X163633002Y-92674769D01*
X163633001Y-97136958D01*
X163618074Y-97212001D01*
X163633001Y-97287044D01*
X163633001Y-97287048D01*
X163677213Y-97509317D01*
X163845630Y-97761372D01*
X163909254Y-97803885D01*
X164035369Y-97929999D01*
X161330021Y-97929999D01*
X161142399Y-97892679D01*
X160954777Y-97929999D01*
X160954773Y-97929999D01*
X160530560Y-98014380D01*
X160399104Y-98040528D01*
X159928032Y-98355289D01*
X159928030Y-98355291D01*
X159768971Y-98461571D01*
X159662691Y-98620630D01*
X157383322Y-100900000D01*
X151347947Y-100900000D01*
X150792678Y-100670000D01*
X149943322Y-100670000D01*
X149158620Y-100995034D01*
X148558034Y-101595620D01*
X148233000Y-102380322D01*
X148233000Y-103229678D01*
X148558034Y-104014380D01*
X149158620Y-104614966D01*
X149238371Y-104648000D01*
X148497144Y-104648000D01*
X144328396Y-100479253D01*
X144285884Y-100415629D01*
X144033830Y-100247212D01*
X143811561Y-100203000D01*
X143811556Y-100203000D01*
X143736513Y-100188073D01*
X143661470Y-100203000D01*
X142245941Y-100203000D01*
X142851424Y-99798428D01*
X143272467Y-99168294D01*
X143382996Y-98612625D01*
X143382996Y-96380322D01*
X146233000Y-96380322D01*
X146233000Y-97229678D01*
X146558034Y-98014380D01*
X147158620Y-98614966D01*
X147943322Y-98940000D01*
X148792678Y-98940000D01*
X149577380Y-98614966D01*
X150177966Y-98014380D01*
X150503000Y-97229678D01*
X150503000Y-96380322D01*
X150177966Y-95595620D01*
X149577380Y-94995034D01*
X148792678Y-94670000D01*
X147943322Y-94670000D01*
X147158620Y-94995034D01*
X146558034Y-95595620D01*
X146233000Y-96380322D01*
X143382996Y-96380322D01*
X143382996Y-93983016D01*
X143420316Y-93795394D01*
X143382996Y-93607772D01*
X143382996Y-93607768D01*
X143272467Y-93052100D01*
X143272467Y-93052099D01*
X142957706Y-92581027D01*
X142957704Y-92581025D01*
X142851424Y-92421966D01*
X142692365Y-92315686D01*
X140919424Y-90542745D01*
X143189861Y-90542745D01*
X143263995Y-90788864D01*
X143801223Y-90981965D01*
X144371454Y-90954778D01*
X144772005Y-90788864D01*
X144846139Y-90542745D01*
X144683717Y-90380322D01*
X148233000Y-90380322D01*
X148233000Y-91229678D01*
X148558034Y-92014380D01*
X149158620Y-92614966D01*
X149943322Y-92940000D01*
X150792678Y-92940000D01*
X151577380Y-92614966D01*
X152177966Y-92014380D01*
X152503000Y-91229678D01*
X152503000Y-90380322D01*
X152177966Y-89595620D01*
X151577380Y-88995034D01*
X150792678Y-88670000D01*
X149943322Y-88670000D01*
X149158620Y-88995034D01*
X148558034Y-89595620D01*
X148233000Y-90380322D01*
X144683717Y-90380322D01*
X144018000Y-89714605D01*
X143189861Y-90542745D01*
X140919424Y-90542745D01*
X139967311Y-89590633D01*
X139861030Y-89431572D01*
X139691392Y-89318223D01*
X142571035Y-89318223D01*
X142598222Y-89888454D01*
X142764136Y-90289005D01*
X143010255Y-90363139D01*
X143838395Y-89535000D01*
X144197605Y-89535000D01*
X145025745Y-90363139D01*
X145271864Y-90289005D01*
X145464965Y-89751777D01*
X145437778Y-89181546D01*
X145271864Y-88780995D01*
X145025745Y-88706861D01*
X144197605Y-89535000D01*
X143838395Y-89535000D01*
X143010255Y-88706861D01*
X142764136Y-88780995D01*
X142571035Y-89318223D01*
X139691392Y-89318223D01*
X139230896Y-89010529D01*
X138675228Y-88900000D01*
X138675223Y-88900000D01*
X138487602Y-88862680D01*
X138299981Y-88900000D01*
X137205707Y-88900000D01*
X136832962Y-88527255D01*
X143189861Y-88527255D01*
X144018000Y-89355395D01*
X144846139Y-88527255D01*
X144772005Y-88281136D01*
X144234777Y-88088035D01*
X143664546Y-88115222D01*
X143263995Y-88281136D01*
X143189861Y-88527255D01*
X136832962Y-88527255D01*
X134163126Y-85857420D01*
X134417909Y-85806740D01*
X134892577Y-85489577D01*
X135209740Y-85014909D01*
X135321113Y-84455000D01*
X135209740Y-83895091D01*
X134901570Y-83433882D01*
X135005765Y-83413157D01*
X135215809Y-83272809D01*
X135356157Y-83062765D01*
X135405440Y-82815000D01*
X135405440Y-81015000D01*
X135356157Y-80767235D01*
X135215809Y-80557191D01*
X135005765Y-80416843D01*
X134990092Y-80413725D01*
X135159310Y-80244507D01*
X135393000Y-79680330D01*
X135393000Y-79069670D01*
X135348469Y-78962162D01*
X135443631Y-78867000D01*
X137486949Y-78867000D01*
X137403000Y-79069670D01*
X137403000Y-79680330D01*
X137636690Y-80244507D01*
X137805908Y-80413725D01*
X137790235Y-80416843D01*
X137580191Y-80557191D01*
X137439843Y-80767235D01*
X137390560Y-81015000D01*
X137390560Y-82815000D01*
X137439843Y-83062765D01*
X137580191Y-83272809D01*
X137790235Y-83413157D01*
X137894430Y-83433882D01*
X137586260Y-83895091D01*
X137474887Y-84455000D01*
X137586260Y-85014909D01*
X137903423Y-85489577D01*
X138378091Y-85806740D01*
X138796667Y-85890000D01*
X139079333Y-85890000D01*
X139497909Y-85806740D01*
X139972577Y-85489577D01*
X140289740Y-85014909D01*
X140401113Y-84455000D01*
X140289740Y-83895091D01*
X139981570Y-83433882D01*
X140085765Y-83413157D01*
X140295809Y-83272809D01*
X140354481Y-83185000D01*
X149056276Y-83185000D01*
X149241380Y-84115580D01*
X149768511Y-84904489D01*
X150557420Y-85431620D01*
X151253103Y-85570000D01*
X151722897Y-85570000D01*
X152418580Y-85431620D01*
X153207489Y-84904489D01*
X153734620Y-84115580D01*
X153919724Y-83185000D01*
X153734620Y-82254420D01*
X153207489Y-81465511D01*
X152418580Y-80938380D01*
X151722897Y-80800000D01*
X151253103Y-80800000D01*
X150557420Y-80938380D01*
X149768511Y-81465511D01*
X149241380Y-82254420D01*
X149056276Y-83185000D01*
X140354481Y-83185000D01*
X140436157Y-83062765D01*
X140485440Y-82815000D01*
X140485440Y-81015000D01*
X140436157Y-80767235D01*
X140295809Y-80557191D01*
X140085765Y-80416843D01*
X140070092Y-80413725D01*
X140239310Y-80244507D01*
X140473000Y-79680330D01*
X140473000Y-79069670D01*
X140373248Y-78828849D01*
X140403717Y-78822788D01*
X140655771Y-78654371D01*
X140698283Y-78590747D01*
X142118386Y-77170645D01*
X142494000Y-77245359D01*
X143078725Y-77129050D01*
X143574430Y-76797830D01*
X143764000Y-76514119D01*
X143953570Y-76797830D01*
X144449276Y-77129050D01*
X145034000Y-77245359D01*
X145618725Y-77129050D01*
X146114430Y-76797830D01*
X146304000Y-76514119D01*
X146493570Y-76797830D01*
X146989276Y-77129050D01*
X147574000Y-77245359D01*
X148158725Y-77129050D01*
X148654430Y-76797830D01*
X148844000Y-76514119D01*
X149033570Y-76797830D01*
X149033570Y-76797830D01*
G37*
X149033570Y-76797830D02*
X149529276Y-77129050D01*
X150059293Y-77234477D01*
X148680770Y-78613000D01*
X145234707Y-78613000D01*
X145052577Y-78340423D01*
X144577909Y-78023260D01*
X144159333Y-77940000D01*
X143876667Y-77940000D01*
X143458091Y-78023260D01*
X142983423Y-78340423D01*
X142666260Y-78815091D01*
X142554887Y-79375000D01*
X142666260Y-79934909D01*
X142983423Y-80409577D01*
X143458091Y-80726740D01*
X143876667Y-80810000D01*
X144159333Y-80810000D01*
X144577909Y-80726740D01*
X145052577Y-80409577D01*
X145234707Y-80137000D01*
X148921357Y-80137000D01*
X148996400Y-80151927D01*
X149071443Y-80137000D01*
X149071448Y-80137000D01*
X149293717Y-80092788D01*
X149545771Y-79924371D01*
X149588283Y-79860747D01*
X151892000Y-77557030D01*
X151892000Y-78111995D01*
X151877073Y-78187038D01*
X151892000Y-78262081D01*
X151892000Y-78262085D01*
X151936212Y-78484354D01*
X152104629Y-78736409D01*
X152168253Y-78778922D01*
X162083931Y-88694600D01*
X161358620Y-88995034D01*
X160758034Y-89595620D01*
X160528034Y-90150890D01*
X156773632Y-93905292D01*
X156614573Y-94011572D01*
X156508293Y-94170631D01*
X156508290Y-94170634D01*
X156193530Y-94641706D01*
X156045680Y-95385000D01*
X156083001Y-95572625D01*
X156083000Y-97342625D01*
X156193529Y-97898293D01*
X156614572Y-98528428D01*
X157244706Y-98949471D01*
X157988000Y-99097321D01*
X158731293Y-98949471D01*
X159361428Y-98528428D01*
X159782471Y-97898294D01*
X159893000Y-97342626D01*
X159893000Y-96174076D01*
X163222110Y-92844966D01*
X163633002Y-92674769D01*
X163633001Y-97136958D01*
X163618074Y-97212001D01*
X163633001Y-97287044D01*
X163633001Y-97287048D01*
X163677213Y-97509317D01*
X163845630Y-97761372D01*
X163909254Y-97803885D01*
X164035369Y-97929999D01*
X161330021Y-97929999D01*
X161142399Y-97892679D01*
X160954777Y-97929999D01*
X160954773Y-97929999D01*
X160530560Y-98014380D01*
X160399104Y-98040528D01*
X159928032Y-98355289D01*
X159928030Y-98355291D01*
X159768971Y-98461571D01*
X159662691Y-98620630D01*
X157383322Y-100900000D01*
X151347947Y-100900000D01*
X150792678Y-100670000D01*
X149943322Y-100670000D01*
X149158620Y-100995034D01*
X148558034Y-101595620D01*
X148233000Y-102380322D01*
X148233000Y-103229678D01*
X148558034Y-104014380D01*
X149158620Y-104614966D01*
X149238371Y-104648000D01*
X148497144Y-104648000D01*
X144328396Y-100479253D01*
X144285884Y-100415629D01*
X144033830Y-100247212D01*
X143811561Y-100203000D01*
X143811556Y-100203000D01*
X143736513Y-100188073D01*
X143661470Y-100203000D01*
X142245941Y-100203000D01*
X142851424Y-99798428D01*
X143272467Y-99168294D01*
X143382996Y-98612625D01*
X143382996Y-96380322D01*
X146233000Y-96380322D01*
X146233000Y-97229678D01*
X146558034Y-98014380D01*
X147158620Y-98614966D01*
X147943322Y-98940000D01*
X148792678Y-98940000D01*
X149577380Y-98614966D01*
X150177966Y-98014380D01*
X150503000Y-97229678D01*
X150503000Y-96380322D01*
X150177966Y-95595620D01*
X149577380Y-94995034D01*
X148792678Y-94670000D01*
X147943322Y-94670000D01*
X147158620Y-94995034D01*
X146558034Y-95595620D01*
X146233000Y-96380322D01*
X143382996Y-96380322D01*
X143382996Y-93983016D01*
X143420316Y-93795394D01*
X143382996Y-93607772D01*
X143382996Y-93607768D01*
X143272467Y-93052100D01*
X143272467Y-93052099D01*
X142957706Y-92581027D01*
X142957704Y-92581025D01*
X142851424Y-92421966D01*
X142692365Y-92315686D01*
X140919424Y-90542745D01*
X143189861Y-90542745D01*
X143263995Y-90788864D01*
X143801223Y-90981965D01*
X144371454Y-90954778D01*
X144772005Y-90788864D01*
X144846139Y-90542745D01*
X144683717Y-90380322D01*
X148233000Y-90380322D01*
X148233000Y-91229678D01*
X148558034Y-92014380D01*
X149158620Y-92614966D01*
X149943322Y-92940000D01*
X150792678Y-92940000D01*
X151577380Y-92614966D01*
X152177966Y-92014380D01*
X152503000Y-91229678D01*
X152503000Y-90380322D01*
X152177966Y-89595620D01*
X151577380Y-88995034D01*
X150792678Y-88670000D01*
X149943322Y-88670000D01*
X149158620Y-88995034D01*
X148558034Y-89595620D01*
X148233000Y-90380322D01*
X144683717Y-90380322D01*
X144018000Y-89714605D01*
X143189861Y-90542745D01*
X140919424Y-90542745D01*
X139967311Y-89590633D01*
X139861030Y-89431572D01*
X139691392Y-89318223D01*
X142571035Y-89318223D01*
X142598222Y-89888454D01*
X142764136Y-90289005D01*
X143010255Y-90363139D01*
X143838395Y-89535000D01*
X144197605Y-89535000D01*
X145025745Y-90363139D01*
X145271864Y-90289005D01*
X145464965Y-89751777D01*
X145437778Y-89181546D01*
X145271864Y-88780995D01*
X145025745Y-88706861D01*
X144197605Y-89535000D01*
X143838395Y-89535000D01*
X143010255Y-88706861D01*
X142764136Y-88780995D01*
X142571035Y-89318223D01*
X139691392Y-89318223D01*
X139230896Y-89010529D01*
X138675228Y-88900000D01*
X138675223Y-88900000D01*
X138487602Y-88862680D01*
X138299981Y-88900000D01*
X137205707Y-88900000D01*
X136832962Y-88527255D01*
X143189861Y-88527255D01*
X144018000Y-89355395D01*
X144846139Y-88527255D01*
X144772005Y-88281136D01*
X144234777Y-88088035D01*
X143664546Y-88115222D01*
X143263995Y-88281136D01*
X143189861Y-88527255D01*
X136832962Y-88527255D01*
X134163126Y-85857420D01*
X134417909Y-85806740D01*
X134892577Y-85489577D01*
X135209740Y-85014909D01*
X135321113Y-84455000D01*
X135209740Y-83895091D01*
X134901570Y-83433882D01*
X135005765Y-83413157D01*
X135215809Y-83272809D01*
X135356157Y-83062765D01*
X135405440Y-82815000D01*
X135405440Y-81015000D01*
X135356157Y-80767235D01*
X135215809Y-80557191D01*
X135005765Y-80416843D01*
X134990092Y-80413725D01*
X135159310Y-80244507D01*
X135393000Y-79680330D01*
X135393000Y-79069670D01*
X135348469Y-78962162D01*
X135443631Y-78867000D01*
X137486949Y-78867000D01*
X137403000Y-79069670D01*
X137403000Y-79680330D01*
X137636690Y-80244507D01*
X137805908Y-80413725D01*
X137790235Y-80416843D01*
X137580191Y-80557191D01*
X137439843Y-80767235D01*
X137390560Y-81015000D01*
X137390560Y-82815000D01*
X137439843Y-83062765D01*
X137580191Y-83272809D01*
X137790235Y-83413157D01*
X137894430Y-83433882D01*
X137586260Y-83895091D01*
X137474887Y-84455000D01*
X137586260Y-85014909D01*
X137903423Y-85489577D01*
X138378091Y-85806740D01*
X138796667Y-85890000D01*
X139079333Y-85890000D01*
X139497909Y-85806740D01*
X139972577Y-85489577D01*
X140289740Y-85014909D01*
X140401113Y-84455000D01*
X140289740Y-83895091D01*
X139981570Y-83433882D01*
X140085765Y-83413157D01*
X140295809Y-83272809D01*
X140354481Y-83185000D01*
X149056276Y-83185000D01*
X149241380Y-84115580D01*
X149768511Y-84904489D01*
X150557420Y-85431620D01*
X151253103Y-85570000D01*
X151722897Y-85570000D01*
X152418580Y-85431620D01*
X153207489Y-84904489D01*
X153734620Y-84115580D01*
X153919724Y-83185000D01*
X153734620Y-82254420D01*
X153207489Y-81465511D01*
X152418580Y-80938380D01*
X151722897Y-80800000D01*
X151253103Y-80800000D01*
X150557420Y-80938380D01*
X149768511Y-81465511D01*
X149241380Y-82254420D01*
X149056276Y-83185000D01*
X140354481Y-83185000D01*
X140436157Y-83062765D01*
X140485440Y-82815000D01*
X140485440Y-81015000D01*
X140436157Y-80767235D01*
X140295809Y-80557191D01*
X140085765Y-80416843D01*
X140070092Y-80413725D01*
X140239310Y-80244507D01*
X140473000Y-79680330D01*
X140473000Y-79069670D01*
X140373248Y-78828849D01*
X140403717Y-78822788D01*
X140655771Y-78654371D01*
X140698283Y-78590747D01*
X142118386Y-77170645D01*
X142494000Y-77245359D01*
X143078725Y-77129050D01*
X143574430Y-76797830D01*
X143764000Y-76514119D01*
X143953570Y-76797830D01*
X144449276Y-77129050D01*
X145034000Y-77245359D01*
X145618725Y-77129050D01*
X146114430Y-76797830D01*
X146304000Y-76514119D01*
X146493570Y-76797830D01*
X146989276Y-77129050D01*
X147574000Y-77245359D01*
X148158725Y-77129050D01*
X148654430Y-76797830D01*
X148844000Y-76514119D01*
X149033570Y-76797830D01*
G36*
X127050410Y-84069350D02*
X127178290Y-84260736D01*
X127178292Y-84260738D01*
X127284573Y-84419798D01*
X127443632Y-84526078D01*
X134936922Y-92019369D01*
X135043202Y-92178428D01*
X135202261Y-92284708D01*
X135202263Y-92284710D01*
X135673335Y-92599471D01*
X135791558Y-92622987D01*
X136229004Y-92710000D01*
X136229008Y-92710000D01*
X136416630Y-92747320D01*
X136604252Y-92710000D01*
X137698526Y-92710000D01*
X138301139Y-93312613D01*
X138183995Y-93361136D01*
X138109861Y-93607255D01*
X138938000Y-94435395D01*
X138952143Y-94421253D01*
X139131748Y-94600858D01*
X139117605Y-94615000D01*
X139131748Y-94629143D01*
X138952142Y-94808748D01*
X138938000Y-94794605D01*
X138109861Y-95622745D01*
X138183995Y-95868864D01*
X138721223Y-96061965D01*
X139291454Y-96034778D01*
X139572997Y-95918159D01*
X139572997Y-97813106D01*
X139572996Y-97813111D01*
X139572996Y-98612626D01*
X139683525Y-99168294D01*
X140075388Y-99754757D01*
X135271932Y-94951302D01*
X135293000Y-94900439D01*
X135293000Y-94398223D01*
X137491035Y-94398223D01*
X137518222Y-94968454D01*
X137684136Y-95369005D01*
X137930255Y-95443139D01*
X138758395Y-94615000D01*
X137930255Y-93786861D01*
X137684136Y-93860995D01*
X137491035Y-94398223D01*
X135293000Y-94398223D01*
X135293000Y-94329561D01*
X135074534Y-93802138D01*
X134670862Y-93398466D01*
X134143439Y-93180000D01*
X133572561Y-93180000D01*
X133045138Y-93398466D01*
X132641466Y-93802138D01*
X132432852Y-94305776D01*
X130257709Y-92130633D01*
X130151428Y-91971572D01*
X129521294Y-91550529D01*
X129485535Y-91543416D01*
X129293109Y-91350990D01*
X129401294Y-91329471D01*
X130031428Y-90908428D01*
X130452471Y-90278294D01*
X130600320Y-89535000D01*
X130452471Y-88791705D01*
X130137710Y-88320633D01*
X126327710Y-84510634D01*
X126221428Y-84351572D01*
X125591294Y-83930529D01*
X125035626Y-83820000D01*
X126883799Y-83820000D01*
X127050410Y-84069350D01*
X127050410Y-84069350D01*
G37*
X127050410Y-84069350D02*
X127178290Y-84260736D01*
X127178292Y-84260738D01*
X127284573Y-84419798D01*
X127443632Y-84526078D01*
X134936922Y-92019369D01*
X135043202Y-92178428D01*
X135202261Y-92284708D01*
X135202263Y-92284710D01*
X135673335Y-92599471D01*
X135791558Y-92622987D01*
X136229004Y-92710000D01*
X136229008Y-92710000D01*
X136416630Y-92747320D01*
X136604252Y-92710000D01*
X137698526Y-92710000D01*
X138301139Y-93312613D01*
X138183995Y-93361136D01*
X138109861Y-93607255D01*
X138938000Y-94435395D01*
X138952143Y-94421253D01*
X139131748Y-94600858D01*
X139117605Y-94615000D01*
X139131748Y-94629143D01*
X138952142Y-94808748D01*
X138938000Y-94794605D01*
X138109861Y-95622745D01*
X138183995Y-95868864D01*
X138721223Y-96061965D01*
X139291454Y-96034778D01*
X139572997Y-95918159D01*
X139572997Y-97813106D01*
X139572996Y-97813111D01*
X139572996Y-98612626D01*
X139683525Y-99168294D01*
X140075388Y-99754757D01*
X135271932Y-94951302D01*
X135293000Y-94900439D01*
X135293000Y-94398223D01*
X137491035Y-94398223D01*
X137518222Y-94968454D01*
X137684136Y-95369005D01*
X137930255Y-95443139D01*
X138758395Y-94615000D01*
X137930255Y-93786861D01*
X137684136Y-93860995D01*
X137491035Y-94398223D01*
X135293000Y-94398223D01*
X135293000Y-94329561D01*
X135074534Y-93802138D01*
X134670862Y-93398466D01*
X134143439Y-93180000D01*
X133572561Y-93180000D01*
X133045138Y-93398466D01*
X132641466Y-93802138D01*
X132432852Y-94305776D01*
X130257709Y-92130633D01*
X130151428Y-91971572D01*
X129521294Y-91550529D01*
X129485535Y-91543416D01*
X129293109Y-91350990D01*
X129401294Y-91329471D01*
X130031428Y-90908428D01*
X130452471Y-90278294D01*
X130600320Y-89535000D01*
X130452471Y-88791705D01*
X130137710Y-88320633D01*
X126327710Y-84510634D01*
X126221428Y-84351572D01*
X125591294Y-83930529D01*
X125035626Y-83820000D01*
X126883799Y-83820000D01*
X127050410Y-84069350D01*
G04 #@! TD*
M02*
