G04 #@! TF.GenerationSoftware,KiCad,Pcbnew,(5.0.2)-1*
G04 #@! TF.CreationDate,2019-02-18T20:30:17-05:00*
G04 #@! TF.ProjectId,PRIME-D,5052494d-452d-4442-9e6b-696361645f70,rev?*
G04 #@! TF.SameCoordinates,Original*
G04 #@! TF.FileFunction,Copper,L2,Bot*
G04 #@! TF.FilePolarity,Positive*
%FSLAX46Y46*%
G04 Gerber Fmt 4.6, Leading zero omitted, Abs format (unit mm)*
G04 Created by KiCad (PCBNEW (5.0.2)-1) date 2/18/2019 8:30:17 PM*
%MOMM*%
%LPD*%
G01*
G04 APERTURE LIST*
G04 #@! TA.AperFunction,ComponentPad*
%ADD10R,1.700000X1.700000*%
G04 #@! TD*
G04 #@! TA.AperFunction,ComponentPad*
%ADD11O,1.700000X1.700000*%
G04 #@! TD*
G04 #@! TA.AperFunction,ComponentPad*
%ADD12O,1.800000X1.800000*%
G04 #@! TD*
G04 #@! TA.AperFunction,ComponentPad*
%ADD13R,1.800000X1.800000*%
G04 #@! TD*
G04 #@! TA.AperFunction,ComponentPad*
%ADD14C,1.800000*%
G04 #@! TD*
G04 #@! TA.AperFunction,ComponentPad*
%ADD15O,1.727200X2.032000*%
G04 #@! TD*
G04 #@! TA.AperFunction,ComponentPad*
%ADD16C,4.064000*%
G04 #@! TD*
G04 #@! TA.AperFunction,ComponentPad*
%ADD17O,1.600000X1.600000*%
G04 #@! TD*
G04 #@! TA.AperFunction,ComponentPad*
%ADD18C,1.600000*%
G04 #@! TD*
G04 #@! TA.AperFunction,ComponentPad*
%ADD19C,3.000000*%
G04 #@! TD*
G04 #@! TA.AperFunction,ComponentPad*
%ADD20C,2.800000*%
G04 #@! TD*
G04 #@! TA.AperFunction,ComponentPad*
%ADD21R,2.800000X2.800000*%
G04 #@! TD*
G04 #@! TA.AperFunction,ComponentPad*
%ADD22R,2.600000X2.600000*%
G04 #@! TD*
G04 #@! TA.AperFunction,ComponentPad*
%ADD23R,0.900000X1.500000*%
G04 #@! TD*
G04 #@! TA.AperFunction,ComponentPad*
%ADD24O,0.900000X1.500000*%
G04 #@! TD*
G04 #@! TA.AperFunction,ComponentPad*
%ADD25O,3.200000X3.200000*%
G04 #@! TD*
G04 #@! TA.AperFunction,ComponentPad*
%ADD26R,3.200000X3.200000*%
G04 #@! TD*
G04 #@! TA.AperFunction,ViaPad*
%ADD27C,0.600000*%
G04 #@! TD*
G04 #@! TA.AperFunction,Conductor*
%ADD28C,0.254000*%
G04 #@! TD*
G04 #@! TA.AperFunction,Conductor*
%ADD29C,2.540000*%
G04 #@! TD*
G04 APERTURE END LIST*
D10*
G04 #@! TO.P,J10,1*
G04 #@! TO.N,/DropSignal_High*
X177038000Y-112395000D03*
D11*
G04 #@! TO.P,J10,2*
G04 #@! TO.N,/8*
X177038000Y-109855000D03*
G04 #@! TD*
D12*
G04 #@! TO.P,Q1,3*
G04 #@! TO.N,/CameraTrigger_Output*
X168148000Y-80645000D03*
G04 #@! TO.P,Q1,2*
G04 #@! TO.N,GND*
X168148000Y-83185000D03*
D13*
G04 #@! TO.P,Q1,1*
G04 #@! TO.N,/3(\002A\002A)*
X168148000Y-85725000D03*
G04 #@! TD*
G04 #@! TO.P,D1,1*
G04 #@! TO.N,Net-(D1-Pad1)*
X133858000Y-81915000D03*
D14*
G04 #@! TO.P,D1,2*
G04 #@! TO.N,/12(MISO)*
X133858000Y-79375000D03*
G04 #@! TD*
D15*
G04 #@! TO.P,P1,8*
G04 #@! TO.N,/BT2_V+*
X156718000Y-123825000D03*
G04 #@! TO.P,P1,7*
G04 #@! TO.N,GND*
X154178000Y-123825000D03*
G04 #@! TO.P,P1,6*
X151638000Y-123825000D03*
G04 #@! TO.P,P1,5*
G04 #@! TO.N,+5V*
X149098000Y-123825000D03*
G04 #@! TO.P,P1,4*
G04 #@! TO.N,N/C*
X146558000Y-123825000D03*
G04 #@! TO.P,P1,3*
X144018000Y-123825000D03*
G04 #@! TO.P,P1,2*
X141478000Y-123825000D03*
G04 #@! TO.P,P1,1*
X138938000Y-123825000D03*
G04 #@! TD*
G04 #@! TO.P,P2,6*
G04 #@! TO.N,N/C*
X174498000Y-123825000D03*
G04 #@! TO.P,P2,5*
X171958000Y-123825000D03*
G04 #@! TO.P,P2,4*
X169418000Y-123825000D03*
G04 #@! TO.P,P2,3*
X166878000Y-123825000D03*
G04 #@! TO.P,P2,2*
X164338000Y-123825000D03*
G04 #@! TO.P,P2,1*
X161798000Y-123825000D03*
G04 #@! TD*
G04 #@! TO.P,P3,10*
G04 #@! TO.N,/8*
X152654000Y-75565000D03*
G04 #@! TO.P,P3,9*
G04 #@! TO.N,N/C*
X150114000Y-75565000D03*
G04 #@! TO.P,P3,8*
X147574000Y-75565000D03*
G04 #@! TO.P,P3,7*
G04 #@! TO.N,/11(\002A\002A/MOSI)*
X145034000Y-75565000D03*
G04 #@! TO.P,P3,6*
G04 #@! TO.N,/12(MISO)*
X142494000Y-75565000D03*
G04 #@! TO.P,P3,5*
G04 #@! TO.N,N/C*
X139954000Y-75565000D03*
G04 #@! TO.P,P3,4*
G04 #@! TO.N,GND*
X137414000Y-75565000D03*
G04 #@! TO.P,P3,3*
G04 #@! TO.N,N/C*
X134874000Y-75565000D03*
G04 #@! TO.P,P3,2*
X132334000Y-75565000D03*
G04 #@! TO.P,P3,1*
X129794000Y-75565000D03*
G04 #@! TD*
G04 #@! TO.P,P4,8*
G04 #@! TO.N,N/C*
X174498000Y-75565000D03*
G04 #@! TO.P,P4,7*
X171958000Y-75565000D03*
G04 #@! TO.P,P4,6*
X169418000Y-75565000D03*
G04 #@! TO.P,P4,5*
G04 #@! TO.N,/3(\002A\002A)*
X166878000Y-75565000D03*
G04 #@! TO.P,P4,4*
G04 #@! TO.N,/4*
X164338000Y-75565000D03*
G04 #@! TO.P,P4,3*
G04 #@! TO.N,N/C*
X161798000Y-75565000D03*
G04 #@! TO.P,P4,2*
X159258000Y-75565000D03*
G04 #@! TO.P,P4,1*
X156718000Y-75565000D03*
G04 #@! TD*
D16*
G04 #@! TO.P,P5,1*
G04 #@! TO.N,N/C*
X124968000Y-123825000D03*
G04 #@! TD*
G04 #@! TO.P,P6,1*
G04 #@! TO.N,N/C*
X177038000Y-118745000D03*
G04 #@! TD*
G04 #@! TO.P,P7,1*
G04 #@! TO.N,N/C*
X126238000Y-75565000D03*
G04 #@! TD*
G04 #@! TO.P,P8,1*
G04 #@! TO.N,N/C*
X177038000Y-90805000D03*
G04 #@! TD*
D17*
G04 #@! TO.P,C1,2*
G04 #@! TO.N,/BT1_V-*
X128658000Y-97155000D03*
D18*
G04 #@! TO.P,C1,1*
G04 #@! TO.N,/BT1_V+*
X121158000Y-97155000D03*
G04 #@! TD*
G04 #@! TO.P,C2,1*
G04 #@! TO.N,/BT2_V+*
X121158000Y-89535000D03*
D17*
G04 #@! TO.P,C2,2*
G04 #@! TO.N,/BT2_V-*
X128658000Y-89535000D03*
G04 #@! TD*
G04 #@! TO.P,C3,2*
G04 #@! TO.N,/BT3_V-*
X128658000Y-81915000D03*
D18*
G04 #@! TO.P,C3,1*
G04 #@! TO.N,/BT3_V+*
X121158000Y-81915000D03*
G04 #@! TD*
D10*
G04 #@! TO.P,J3,1*
G04 #@! TO.N,/SOLENOID+*
X116078000Y-120015000D03*
D11*
G04 #@! TO.P,J3,2*
G04 #@! TO.N,/BT3_V-*
X116078000Y-117475000D03*
G04 #@! TO.P,J3,3*
G04 #@! TO.N,/BT1_V+*
X116078000Y-114935000D03*
G04 #@! TO.P,J3,4*
G04 #@! TO.N,/LEDStrip_V-*
X116078000Y-112395000D03*
G04 #@! TD*
D10*
G04 #@! TO.P,J6,1*
G04 #@! TO.N,/BT1_V+*
X116078000Y-95885000D03*
D11*
G04 #@! TO.P,J6,2*
G04 #@! TO.N,/BT1_V-*
X116078000Y-93345000D03*
G04 #@! TD*
G04 #@! TO.P,J7,2*
G04 #@! TO.N,/BT2_V-*
X116078000Y-85725000D03*
D10*
G04 #@! TO.P,J7,1*
G04 #@! TO.N,/BT2_V+*
X116078000Y-88265000D03*
G04 #@! TD*
G04 #@! TO.P,J8,1*
G04 #@! TO.N,/BT3_V+*
X116078000Y-80645000D03*
D11*
G04 #@! TO.P,J8,2*
G04 #@! TO.N,/BT3_V-*
X116078000Y-78105000D03*
G04 #@! TD*
D18*
G04 #@! TO.P,R1,1*
G04 #@! TO.N,GND*
X170688000Y-100965000D03*
D17*
G04 #@! TO.P,R1,2*
G04 #@! TO.N,/3(\002A\002A)*
X170688000Y-90805000D03*
G04 #@! TD*
D18*
G04 #@! TO.P,R2,1*
G04 #@! TO.N,GND*
X144018000Y-89535000D03*
D17*
G04 #@! TO.P,R2,2*
G04 #@! TO.N,/8*
X144018000Y-79375000D03*
G04 #@! TD*
G04 #@! TO.P,R3,2*
G04 #@! TO.N,Net-(D1-Pad1)*
X133858000Y-84455000D03*
D18*
G04 #@! TO.P,R3,1*
G04 #@! TO.N,Net-(Q2-Pad2)*
X133858000Y-94615000D03*
G04 #@! TD*
G04 #@! TO.P,R4,1*
G04 #@! TO.N,GND*
X138938000Y-94615000D03*
D17*
G04 #@! TO.P,R4,2*
G04 #@! TO.N,Net-(D3-Pad1)*
X138938000Y-84455000D03*
G04 #@! TD*
D11*
G04 #@! TO.P,J9,2*
G04 #@! TO.N,/CameraTrigger_Output*
X173228000Y-80645000D03*
D10*
G04 #@! TO.P,J9,1*
G04 #@! TO.N,GND*
X173228000Y-83185000D03*
G04 #@! TD*
D19*
G04 #@! TO.P,K1,4*
G04 #@! TO.N,/BT3_V+*
X148368000Y-96805000D03*
G04 #@! TO.P,K1,2*
G04 #@! TO.N,N/C*
X162568000Y-102805000D03*
G04 #@! TO.P,K1,5*
G04 #@! TO.N,Net-(D2-Pad2)*
X150368000Y-102805000D03*
G04 #@! TO.P,K1,3*
G04 #@! TO.N,/SOLENOID+*
X162568000Y-90805000D03*
G04 #@! TO.P,K1,1*
G04 #@! TO.N,+5V*
X150368000Y-90805000D03*
G04 #@! TD*
D17*
G04 #@! TO.P,R5,2*
G04 #@! TO.N,+5V*
X160528000Y-117475000D03*
D18*
G04 #@! TO.P,R5,1*
G04 #@! TO.N,Net-(J1-Pad1)*
X160528000Y-107315000D03*
G04 #@! TD*
G04 #@! TO.P,R6,1*
G04 #@! TO.N,Net-(J2-Pad1)*
X152908000Y-107315000D03*
D17*
G04 #@! TO.P,R6,2*
G04 #@! TO.N,+5V*
X152908000Y-117475000D03*
G04 #@! TD*
D20*
G04 #@! TO.P,SW1,3*
G04 #@! TO.N,GND*
X140208000Y-117985000D03*
G04 #@! TO.P,SW1,2*
G04 #@! TO.N,/11(\002A\002A/MOSI)*
X140208000Y-113285000D03*
D21*
G04 #@! TO.P,SW1,1*
G04 #@! TO.N,Net-(J2-Pad2)*
X140208000Y-108585000D03*
G04 #@! TD*
D20*
G04 #@! TO.P,SW2,6*
G04 #@! TO.N,/LEDStrip_V-*
X130048000Y-117475000D03*
G04 #@! TO.P,SW2,3*
G04 #@! TO.N,GND*
X122428000Y-117475000D03*
G04 #@! TO.P,SW2,5*
G04 #@! TO.N,/BT1_V-*
X130048000Y-111125000D03*
G04 #@! TO.P,SW2,2*
G04 #@! TO.N,/BT2_V-*
X122428000Y-111125000D03*
G04 #@! TO.P,SW2,4*
G04 #@! TO.N,N/C*
X130048000Y-104775000D03*
D22*
G04 #@! TO.P,SW2,1*
X122428000Y-104775000D03*
G04 #@! TD*
D23*
G04 #@! TO.P,Q2,1*
G04 #@! TO.N,GND*
X177038000Y-104775000D03*
D24*
G04 #@! TO.P,Q2,3*
G04 #@! TO.N,Net-(D2-Pad2)*
X174498000Y-104775000D03*
G04 #@! TO.P,Q2,2*
G04 #@! TO.N,Net-(Q2-Pad2)*
X175768000Y-104775000D03*
G04 #@! TD*
D25*
G04 #@! TO.P,D2,2*
G04 #@! TO.N,Net-(D2-Pad2)*
X171958000Y-117475000D03*
D26*
G04 #@! TO.P,D2,1*
G04 #@! TO.N,+5V*
X166878000Y-117475000D03*
G04 #@! TD*
D14*
G04 #@! TO.P,D3,2*
G04 #@! TO.N,/4*
X138938000Y-79375000D03*
D13*
G04 #@! TO.P,D3,1*
G04 #@! TO.N,Net-(D3-Pad1)*
X138938000Y-81915000D03*
G04 #@! TD*
D27*
G04 #@! TO.N,Net-(D2-Pad2)*
X171958000Y-107315000D03*
G04 #@! TO.N,Net-(Q2-Pad2)*
X173863000Y-109220000D03*
G04 #@! TO.N,/BT3_V-*
X141477996Y-98425000D03*
G04 #@! TO.N,GND*
X133350000Y-124333000D03*
G04 #@! TO.N,Net-(J2-Pad2)*
X146558000Y-111125000D03*
G04 #@! TO.N,/SOLENOID+*
X157988000Y-97155000D03*
X134873998Y-121285000D03*
G04 #@! TD*
D28*
G04 #@! TO.N,/4*
X164338000Y-75717400D02*
X164338000Y-75565000D01*
X159410400Y-80645000D02*
X164338000Y-75717400D01*
X140208000Y-80645000D02*
X159410400Y-80645000D01*
X138938000Y-79375000D02*
X140208000Y-80645000D01*
G04 #@! TO.N,/11(\002A\002A/MOSI)*
X145034000Y-75717400D02*
X145034000Y-75565000D01*
X143154400Y-77597000D02*
X145034000Y-75717400D01*
X138430000Y-77597000D02*
X143154400Y-77597000D01*
X136398000Y-85217000D02*
X136398000Y-79629000D01*
X136398000Y-79629000D02*
X138430000Y-77597000D01*
X137848990Y-86667990D02*
X136398000Y-85217000D01*
X143625590Y-86667990D02*
X137848990Y-86667990D01*
X146938000Y-113285000D02*
X147185001Y-113037999D01*
X140208000Y-113285000D02*
X146938000Y-113285000D01*
X147185001Y-113037999D02*
X147185001Y-102369999D01*
X147185001Y-102369999D02*
X151638000Y-97917000D01*
X151638000Y-97917000D02*
X151638000Y-94680400D01*
X151638000Y-94680400D02*
X143625590Y-86667990D01*
D29*
G04 #@! TO.N,/BT2_V+*
X117348000Y-89535000D02*
X116078000Y-88265000D01*
X121158000Y-89535000D02*
X117348000Y-89535000D01*
G04 #@! TO.N,/BT2_V-*
X127858001Y-90334999D02*
X128658000Y-89535000D01*
X126387999Y-91805001D02*
X127858001Y-90334999D01*
X126387999Y-107165001D02*
X126387999Y-91805001D01*
X122428000Y-111125000D02*
X126387999Y-107165001D01*
G04 #@! TO.N,Net-(D2-Pad2)*
X171958000Y-107315000D02*
X173847990Y-105425010D01*
X171958000Y-117475000D02*
X171958000Y-107315000D01*
D28*
G04 #@! TO.N,Net-(Q2-Pad2)*
X175768000Y-104775000D02*
X175768000Y-107315000D01*
X174162999Y-108920001D02*
X173863000Y-109220000D01*
X175768000Y-107315000D02*
X174162999Y-108920001D01*
D29*
G04 #@! TO.N,/BT1_V+*
X117348000Y-97155000D02*
X116078000Y-95885000D01*
X121158000Y-97155000D02*
X117348000Y-97155000D01*
G04 #@! TO.N,/BT3_V-*
X133858000Y-106044996D02*
X141477996Y-98425000D01*
X133858000Y-117912602D02*
X133858000Y-106044996D01*
X131425601Y-120345001D02*
X133858000Y-117912602D01*
X126670963Y-120345001D02*
X131425601Y-120345001D01*
X117856000Y-117475000D02*
X120726001Y-120345001D01*
X116078000Y-117475000D02*
X117856000Y-117475000D01*
X120726001Y-120345001D02*
X123265037Y-120345001D01*
X123265037Y-120345001D02*
X123287039Y-120322999D01*
X123287039Y-120322999D02*
X126648961Y-120322999D01*
X126648961Y-120322999D02*
X126670963Y-120345001D01*
G04 #@! TO.N,/BT3_V+*
X117348000Y-81915000D02*
X116078000Y-80645000D01*
X121158000Y-81915000D02*
X117348000Y-81915000D01*
X146868001Y-95305001D02*
X148368000Y-96805000D01*
X144018000Y-92455000D02*
X146868001Y-95305001D01*
X144018000Y-92329000D02*
X144018000Y-92455000D01*
X121158000Y-81915000D02*
X124968000Y-85725000D01*
X128722958Y-85725000D02*
X131262958Y-88265000D01*
X131262958Y-88265000D02*
X137922000Y-88265000D01*
X124968000Y-85725000D02*
X128722958Y-85725000D01*
X137922000Y-88265000D02*
X141986000Y-92329000D01*
X141986000Y-92329000D02*
X144018000Y-92329000D01*
G04 #@! TO.N,+5V*
X160528000Y-117475000D02*
X152908000Y-117475000D01*
X149098000Y-121285000D02*
X152908000Y-117475000D01*
X149098000Y-123825000D02*
X149098000Y-121285000D01*
X160528000Y-117475000D02*
X166878000Y-117475000D01*
X151867999Y-92304999D02*
X150368000Y-90805000D01*
X159487999Y-92304999D02*
X151867999Y-92304999D01*
X167147999Y-99964999D02*
X159487999Y-92304999D01*
X166878000Y-117475000D02*
X167147999Y-117205001D01*
X167147999Y-117205001D02*
X167147999Y-99964999D01*
D28*
G04 #@! TO.N,Net-(J2-Pad2)*
X140208000Y-110239000D02*
X140208000Y-108585000D01*
X141094000Y-111125000D02*
X140208000Y-110239000D01*
X146558000Y-111125000D02*
X141094000Y-111125000D01*
D29*
G04 #@! TO.N,/SOLENOID+*
X157988000Y-107315000D02*
X144018000Y-121285000D01*
X144018000Y-121285000D02*
X135298262Y-121285000D01*
X135298262Y-121285000D02*
X134873998Y-121285000D01*
X157988000Y-97155000D02*
X157988000Y-107315000D01*
G04 #@! TO.N,/LEDStrip_V-*
X117280081Y-112395000D02*
X116078000Y-112395000D01*
X119490080Y-114604999D02*
X117280081Y-112395000D01*
X127177999Y-114604999D02*
X119490080Y-114604999D01*
X130048000Y-117475000D02*
X127177999Y-114604999D01*
G04 #@! TD*
D28*
G04 #@! TO.N,GND*
G36*
X123977026Y-74054266D02*
X123571000Y-75034501D01*
X123571000Y-76095499D01*
X123977026Y-77075734D01*
X124727266Y-77825974D01*
X125707501Y-78232000D01*
X126768499Y-78232000D01*
X127748734Y-77825974D01*
X128498974Y-77075734D01*
X128652156Y-76705918D01*
X128713570Y-76797830D01*
X129209276Y-77129050D01*
X129794000Y-77245359D01*
X130378725Y-77129050D01*
X130874430Y-76797830D01*
X131064000Y-76514119D01*
X131253570Y-76797830D01*
X131749276Y-77129050D01*
X132334000Y-77245359D01*
X132918725Y-77129050D01*
X133414430Y-76797830D01*
X133604000Y-76514119D01*
X133793570Y-76797830D01*
X134289276Y-77129050D01*
X134874000Y-77245359D01*
X135458725Y-77129050D01*
X135954430Y-76797830D01*
X136147909Y-76508267D01*
X136511964Y-76915732D01*
X137039209Y-77169709D01*
X137054974Y-77172358D01*
X137287000Y-77051217D01*
X137287000Y-75692000D01*
X137267000Y-75692000D01*
X137267000Y-75438000D01*
X137287000Y-75438000D01*
X137287000Y-74078783D01*
X137054974Y-73957642D01*
X137039209Y-73960291D01*
X136511964Y-74214268D01*
X136147910Y-74621732D01*
X135954430Y-74332170D01*
X135458724Y-74000950D01*
X134874000Y-73884641D01*
X134289275Y-74000950D01*
X133793570Y-74332170D01*
X133604000Y-74615881D01*
X133414430Y-74332170D01*
X132918724Y-74000950D01*
X132334000Y-73884641D01*
X131749275Y-74000950D01*
X131253570Y-74332170D01*
X131064000Y-74615881D01*
X130874430Y-74332170D01*
X130378724Y-74000950D01*
X129794000Y-73884641D01*
X129209275Y-74000950D01*
X128713570Y-74332170D01*
X128652156Y-74424082D01*
X128498974Y-74054266D01*
X128179708Y-73735000D01*
X175219910Y-73735000D01*
X176328001Y-74843092D01*
X176328000Y-85909076D01*
X176314091Y-85979000D01*
X176328000Y-86048924D01*
X176328000Y-86048925D01*
X176369195Y-86256027D01*
X176526119Y-86490880D01*
X176585402Y-86530492D01*
X178868001Y-88813092D01*
X178868001Y-88863293D01*
X178548734Y-88544026D01*
X177568499Y-88138000D01*
X176507501Y-88138000D01*
X175527266Y-88544026D01*
X174777026Y-89294266D01*
X174371000Y-90274501D01*
X174371000Y-91335499D01*
X174777026Y-92315734D01*
X175527266Y-93065974D01*
X176507501Y-93472000D01*
X177568499Y-93472000D01*
X178548734Y-93065974D01*
X178868001Y-92746707D01*
X178868000Y-116803292D01*
X178548734Y-116484026D01*
X177568499Y-116078000D01*
X176507501Y-116078000D01*
X175527266Y-116484026D01*
X174777026Y-117234266D01*
X174371000Y-118214501D01*
X174371000Y-119275499D01*
X174777026Y-120255734D01*
X175527266Y-121005974D01*
X176507501Y-121412000D01*
X177568499Y-121412000D01*
X178548734Y-121005974D01*
X178868000Y-120686708D01*
X178868000Y-120990909D01*
X176585402Y-123273508D01*
X176526120Y-123313119D01*
X176384544Y-123525002D01*
X176369196Y-123547972D01*
X176314091Y-123825000D01*
X176328001Y-123894929D01*
X176328000Y-125655000D01*
X149662676Y-125655000D01*
X149841293Y-125619471D01*
X150471428Y-125198428D01*
X150593291Y-125016047D01*
X150735964Y-125175732D01*
X151263209Y-125429709D01*
X151278974Y-125432358D01*
X151511000Y-125311217D01*
X151511000Y-123952000D01*
X151765000Y-123952000D01*
X151765000Y-125311217D01*
X151997026Y-125432358D01*
X152012791Y-125429709D01*
X152540036Y-125175732D01*
X152908000Y-124763892D01*
X153275964Y-125175732D01*
X153803209Y-125429709D01*
X153818974Y-125432358D01*
X154051000Y-125311217D01*
X154051000Y-123952000D01*
X151765000Y-123952000D01*
X151511000Y-123952000D01*
X151491000Y-123952000D01*
X151491000Y-123698000D01*
X151511000Y-123698000D01*
X151511000Y-122338783D01*
X151765000Y-122338783D01*
X151765000Y-123698000D01*
X154051000Y-123698000D01*
X154051000Y-122338783D01*
X154305000Y-122338783D01*
X154305000Y-123698000D01*
X154325000Y-123698000D01*
X154325000Y-123952000D01*
X154305000Y-123952000D01*
X154305000Y-125311217D01*
X154537026Y-125432358D01*
X154552791Y-125429709D01*
X155080036Y-125175732D01*
X155444090Y-124768268D01*
X155637570Y-125057830D01*
X156133276Y-125389050D01*
X156718000Y-125505359D01*
X157302725Y-125389050D01*
X157798430Y-125057830D01*
X158129650Y-124562124D01*
X158216600Y-124124997D01*
X158216600Y-123525003D01*
X160299400Y-123525003D01*
X160299400Y-124124998D01*
X160386350Y-124562125D01*
X160717570Y-125057830D01*
X161213276Y-125389050D01*
X161798000Y-125505359D01*
X162382725Y-125389050D01*
X162878430Y-125057830D01*
X163068000Y-124774119D01*
X163257570Y-125057830D01*
X163753276Y-125389050D01*
X164338000Y-125505359D01*
X164922725Y-125389050D01*
X165418430Y-125057830D01*
X165608000Y-124774119D01*
X165797570Y-125057830D01*
X166293276Y-125389050D01*
X166878000Y-125505359D01*
X167462725Y-125389050D01*
X167958430Y-125057830D01*
X168148000Y-124774119D01*
X168337570Y-125057830D01*
X168833276Y-125389050D01*
X169418000Y-125505359D01*
X170002725Y-125389050D01*
X170498430Y-125057830D01*
X170688000Y-124774119D01*
X170877570Y-125057830D01*
X171373276Y-125389050D01*
X171958000Y-125505359D01*
X172542725Y-125389050D01*
X173038430Y-125057830D01*
X173228000Y-124774119D01*
X173417570Y-125057830D01*
X173913276Y-125389050D01*
X174498000Y-125505359D01*
X175082725Y-125389050D01*
X175578430Y-125057830D01*
X175909650Y-124562124D01*
X175996600Y-124124997D01*
X175996600Y-123525002D01*
X175909650Y-123087875D01*
X175578430Y-122592170D01*
X175082724Y-122260950D01*
X174498000Y-122144641D01*
X173913275Y-122260950D01*
X173417570Y-122592170D01*
X173228000Y-122875881D01*
X173038430Y-122592170D01*
X172542724Y-122260950D01*
X171958000Y-122144641D01*
X171373275Y-122260950D01*
X170877570Y-122592170D01*
X170688000Y-122875881D01*
X170498430Y-122592170D01*
X170002724Y-122260950D01*
X169418000Y-122144641D01*
X168833275Y-122260950D01*
X168337570Y-122592170D01*
X168148000Y-122875881D01*
X167958430Y-122592170D01*
X167462724Y-122260950D01*
X166878000Y-122144641D01*
X166293275Y-122260950D01*
X165797570Y-122592170D01*
X165608000Y-122875881D01*
X165418430Y-122592170D01*
X164922724Y-122260950D01*
X164338000Y-122144641D01*
X163753275Y-122260950D01*
X163257570Y-122592170D01*
X163068000Y-122875881D01*
X162878430Y-122592170D01*
X162382724Y-122260950D01*
X161798000Y-122144641D01*
X161213275Y-122260950D01*
X160717570Y-122592170D01*
X160386350Y-123087876D01*
X160299400Y-123525003D01*
X158216600Y-123525003D01*
X158216600Y-123525002D01*
X158129650Y-123087875D01*
X157798430Y-122592170D01*
X157302724Y-122260950D01*
X156718000Y-122144641D01*
X156133275Y-122260950D01*
X155637570Y-122592170D01*
X155444091Y-122881733D01*
X155080036Y-122474268D01*
X154552791Y-122220291D01*
X154537026Y-122217642D01*
X154305000Y-122338783D01*
X154051000Y-122338783D01*
X153818974Y-122217642D01*
X153803209Y-122220291D01*
X153275964Y-122474268D01*
X152908000Y-122886108D01*
X152540036Y-122474268D01*
X152012791Y-122220291D01*
X151997026Y-122217642D01*
X151765000Y-122338783D01*
X151511000Y-122338783D01*
X151278974Y-122217642D01*
X151263209Y-122220291D01*
X151003000Y-122345635D01*
X151003000Y-122074076D01*
X153697077Y-119380000D01*
X164718087Y-119380000D01*
X164820191Y-119532809D01*
X165030235Y-119673157D01*
X165278000Y-119722440D01*
X168478000Y-119722440D01*
X168725765Y-119673157D01*
X168935809Y-119532809D01*
X169076157Y-119322765D01*
X169125440Y-119075000D01*
X169125440Y-117475000D01*
X169679214Y-117475000D01*
X169852676Y-118347054D01*
X170346655Y-119086345D01*
X171085946Y-119580324D01*
X171737872Y-119710000D01*
X172178128Y-119710000D01*
X172830054Y-119580324D01*
X173569345Y-119086345D01*
X174063324Y-118347054D01*
X174236786Y-117475000D01*
X174063324Y-116602946D01*
X173863000Y-116303140D01*
X173863000Y-110155000D01*
X174048983Y-110155000D01*
X174392635Y-110012655D01*
X174550290Y-109855000D01*
X175523908Y-109855000D01*
X175639161Y-110434418D01*
X175967375Y-110925625D01*
X175985619Y-110937816D01*
X175940235Y-110946843D01*
X175730191Y-111087191D01*
X175589843Y-111297235D01*
X175540560Y-111545000D01*
X175540560Y-113245000D01*
X175589843Y-113492765D01*
X175730191Y-113702809D01*
X175940235Y-113843157D01*
X176188000Y-113892440D01*
X177888000Y-113892440D01*
X178135765Y-113843157D01*
X178345809Y-113702809D01*
X178486157Y-113492765D01*
X178535440Y-113245000D01*
X178535440Y-111545000D01*
X178486157Y-111297235D01*
X178345809Y-111087191D01*
X178135765Y-110946843D01*
X178090381Y-110937816D01*
X178108625Y-110925625D01*
X178436839Y-110434418D01*
X178552092Y-109855000D01*
X178436839Y-109275582D01*
X178108625Y-108784375D01*
X177617418Y-108456161D01*
X177184256Y-108370000D01*
X176891744Y-108370000D01*
X176458582Y-108456161D01*
X175967375Y-108784375D01*
X175639161Y-109275582D01*
X175523908Y-109855000D01*
X174550290Y-109855000D01*
X174655655Y-109749635D01*
X174798000Y-109405983D01*
X174798000Y-109362630D01*
X176253749Y-107906882D01*
X176317371Y-107864371D01*
X176485788Y-107612317D01*
X176530000Y-107390048D01*
X176530000Y-107390044D01*
X176544927Y-107315001D01*
X176530000Y-107239958D01*
X176530000Y-106160000D01*
X176752250Y-106160000D01*
X176911000Y-106001250D01*
X176911000Y-104902000D01*
X177165000Y-104902000D01*
X177165000Y-106001250D01*
X177323750Y-106160000D01*
X177614309Y-106160000D01*
X177847698Y-106063327D01*
X178026327Y-105884699D01*
X178123000Y-105651310D01*
X178123000Y-105060750D01*
X177964250Y-104902000D01*
X177165000Y-104902000D01*
X176911000Y-104902000D01*
X176891000Y-104902000D01*
X176891000Y-104648000D01*
X176911000Y-104648000D01*
X176911000Y-103548750D01*
X177165000Y-103548750D01*
X177165000Y-104648000D01*
X177964250Y-104648000D01*
X178123000Y-104489250D01*
X178123000Y-103898690D01*
X178026327Y-103665301D01*
X177847698Y-103486673D01*
X177614309Y-103390000D01*
X177323750Y-103390000D01*
X177165000Y-103548750D01*
X176911000Y-103548750D01*
X176752250Y-103390000D01*
X176461691Y-103390000D01*
X176236641Y-103483219D01*
X176191345Y-103452953D01*
X175768000Y-103368744D01*
X175344654Y-103452953D01*
X175133000Y-103594376D01*
X174921345Y-103452953D01*
X174498000Y-103368744D01*
X174074654Y-103452953D01*
X173988362Y-103510612D01*
X173847989Y-103482690D01*
X173104695Y-103630540D01*
X172633622Y-103945301D01*
X170743633Y-105835291D01*
X170584573Y-105941572D01*
X170478293Y-106100631D01*
X170478290Y-106100634D01*
X170163530Y-106571706D01*
X170015680Y-107315000D01*
X170053001Y-107502626D01*
X170053000Y-116303140D01*
X169852676Y-116602946D01*
X169679214Y-117475000D01*
X169125440Y-117475000D01*
X169125440Y-115875000D01*
X169076157Y-115627235D01*
X169052999Y-115592577D01*
X169052999Y-101972745D01*
X169859861Y-101972745D01*
X169933995Y-102218864D01*
X170471223Y-102411965D01*
X171041454Y-102384778D01*
X171442005Y-102218864D01*
X171516139Y-101972745D01*
X170688000Y-101144605D01*
X169859861Y-101972745D01*
X169052999Y-101972745D01*
X169052999Y-100748223D01*
X169241035Y-100748223D01*
X169268222Y-101318454D01*
X169434136Y-101719005D01*
X169680255Y-101793139D01*
X170508395Y-100965000D01*
X170867605Y-100965000D01*
X171695745Y-101793139D01*
X171941864Y-101719005D01*
X172134965Y-101181777D01*
X172107778Y-100611546D01*
X171941864Y-100210995D01*
X171695745Y-100136861D01*
X170867605Y-100965000D01*
X170508395Y-100965000D01*
X169680255Y-100136861D01*
X169434136Y-100210995D01*
X169241035Y-100748223D01*
X169052999Y-100748223D01*
X169052999Y-100152620D01*
X169090319Y-99964999D01*
X169088779Y-99957255D01*
X169859861Y-99957255D01*
X170688000Y-100785395D01*
X171516139Y-99957255D01*
X171442005Y-99711136D01*
X170904777Y-99518035D01*
X170334546Y-99545222D01*
X169933995Y-99711136D01*
X169859861Y-99957255D01*
X169088779Y-99957255D01*
X169052999Y-99777378D01*
X169052999Y-99777373D01*
X168942470Y-99221705D01*
X168760568Y-98949470D01*
X168627709Y-98750632D01*
X168627707Y-98750630D01*
X168521427Y-98591571D01*
X168362368Y-98485291D01*
X162817076Y-92940000D01*
X162992678Y-92940000D01*
X163777380Y-92614966D01*
X164377966Y-92014380D01*
X164703000Y-91229678D01*
X164703000Y-90805000D01*
X169224887Y-90805000D01*
X169336260Y-91364909D01*
X169653423Y-91839577D01*
X170128091Y-92156740D01*
X170546667Y-92240000D01*
X170829333Y-92240000D01*
X171247909Y-92156740D01*
X171722577Y-91839577D01*
X172039740Y-91364909D01*
X172151113Y-90805000D01*
X172039740Y-90245091D01*
X171722577Y-89770423D01*
X171247909Y-89453260D01*
X170829333Y-89370000D01*
X170546667Y-89370000D01*
X170128091Y-89453260D01*
X169653423Y-89770423D01*
X169336260Y-90245091D01*
X169224887Y-90805000D01*
X164703000Y-90805000D01*
X164703000Y-90380322D01*
X164377966Y-89595620D01*
X163777380Y-88995034D01*
X162992678Y-88670000D01*
X162143322Y-88670000D01*
X161358620Y-88995034D01*
X160758034Y-89595620D01*
X160433000Y-90380322D01*
X160433000Y-90645305D01*
X160231293Y-90510528D01*
X159675625Y-90399999D01*
X159675620Y-90399999D01*
X159487999Y-90362679D01*
X159300378Y-90399999D01*
X152657076Y-90399999D01*
X152407966Y-90150890D01*
X152177966Y-89595620D01*
X151577380Y-88995034D01*
X150792678Y-88670000D01*
X149943322Y-88670000D01*
X149158620Y-88995034D01*
X148558034Y-89595620D01*
X148286468Y-90251238D01*
X144217473Y-86182243D01*
X144174961Y-86118619D01*
X143922907Y-85950202D01*
X143700638Y-85905990D01*
X143700633Y-85905990D01*
X143625590Y-85891063D01*
X143550547Y-85905990D01*
X138164621Y-85905990D01*
X137160000Y-84901370D01*
X137160000Y-79944630D01*
X137409239Y-79695392D01*
X137636690Y-80244507D01*
X137805908Y-80413725D01*
X137790235Y-80416843D01*
X137580191Y-80557191D01*
X137439843Y-80767235D01*
X137390560Y-81015000D01*
X137390560Y-82815000D01*
X137439843Y-83062765D01*
X137580191Y-83272809D01*
X137790235Y-83413157D01*
X137894430Y-83433882D01*
X137586260Y-83895091D01*
X137474887Y-84455000D01*
X137586260Y-85014909D01*
X137903423Y-85489577D01*
X138378091Y-85806740D01*
X138796667Y-85890000D01*
X139079333Y-85890000D01*
X139497909Y-85806740D01*
X139972577Y-85489577D01*
X140289740Y-85014909D01*
X140401113Y-84455000D01*
X140289740Y-83895091D01*
X139981570Y-83433882D01*
X140085765Y-83413157D01*
X140295809Y-83272809D01*
X140436157Y-83062765D01*
X140485440Y-82815000D01*
X140485440Y-81407000D01*
X149856079Y-81407000D01*
X149768511Y-81465511D01*
X149241380Y-82254420D01*
X149056276Y-83185000D01*
X149241380Y-84115580D01*
X149768511Y-84904489D01*
X150557420Y-85431620D01*
X151253103Y-85570000D01*
X151722897Y-85570000D01*
X152418580Y-85431620D01*
X153207489Y-84904489D01*
X153260601Y-84825000D01*
X166600560Y-84825000D01*
X166600560Y-86625000D01*
X166649843Y-86872765D01*
X166790191Y-87082809D01*
X167000235Y-87223157D01*
X167248000Y-87272440D01*
X169048000Y-87272440D01*
X169295765Y-87223157D01*
X169505809Y-87082809D01*
X169646157Y-86872765D01*
X169695440Y-86625000D01*
X169695440Y-84825000D01*
X169646157Y-84577235D01*
X169505809Y-84367191D01*
X169295765Y-84226843D01*
X169249502Y-84217641D01*
X169385966Y-84092576D01*
X169639046Y-83549742D01*
X169599159Y-83470750D01*
X171743000Y-83470750D01*
X171743000Y-84161310D01*
X171839673Y-84394699D01*
X172018302Y-84573327D01*
X172251691Y-84670000D01*
X172942250Y-84670000D01*
X173101000Y-84511250D01*
X173101000Y-83312000D01*
X173355000Y-83312000D01*
X173355000Y-84511250D01*
X173513750Y-84670000D01*
X174204309Y-84670000D01*
X174437698Y-84573327D01*
X174616327Y-84394699D01*
X174713000Y-84161310D01*
X174713000Y-83470750D01*
X174554250Y-83312000D01*
X173355000Y-83312000D01*
X173101000Y-83312000D01*
X171901750Y-83312000D01*
X171743000Y-83470750D01*
X169599159Y-83470750D01*
X169518997Y-83312000D01*
X168275000Y-83312000D01*
X168275000Y-83332000D01*
X168021000Y-83332000D01*
X168021000Y-83312000D01*
X166777003Y-83312000D01*
X166656954Y-83549742D01*
X166910034Y-84092576D01*
X167046498Y-84217641D01*
X167000235Y-84226843D01*
X166790191Y-84367191D01*
X166649843Y-84577235D01*
X166600560Y-84825000D01*
X153260601Y-84825000D01*
X153734620Y-84115580D01*
X153919724Y-83185000D01*
X153734620Y-82254420D01*
X153207489Y-81465511D01*
X153119921Y-81407000D01*
X159335357Y-81407000D01*
X159410400Y-81421927D01*
X159485443Y-81407000D01*
X159485448Y-81407000D01*
X159707717Y-81362788D01*
X159959771Y-81194371D01*
X160002283Y-81130747D01*
X160488030Y-80645000D01*
X166582928Y-80645000D01*
X166702062Y-81243927D01*
X167041327Y-81751673D01*
X167297174Y-81922624D01*
X166910034Y-82277424D01*
X166656954Y-82820258D01*
X166777003Y-83058000D01*
X168021000Y-83058000D01*
X168021000Y-83038000D01*
X168275000Y-83038000D01*
X168275000Y-83058000D01*
X169518997Y-83058000D01*
X169639046Y-82820258D01*
X169385966Y-82277424D01*
X168998826Y-81922624D01*
X169254673Y-81751673D01*
X169593938Y-81243927D01*
X169713072Y-80645000D01*
X171713908Y-80645000D01*
X171829161Y-81224418D01*
X172157375Y-81715625D01*
X172179033Y-81730096D01*
X172018302Y-81796673D01*
X171839673Y-81975301D01*
X171743000Y-82208690D01*
X171743000Y-82899250D01*
X171901750Y-83058000D01*
X173101000Y-83058000D01*
X173101000Y-83038000D01*
X173355000Y-83038000D01*
X173355000Y-83058000D01*
X174554250Y-83058000D01*
X174713000Y-82899250D01*
X174713000Y-82208690D01*
X174616327Y-81975301D01*
X174437698Y-81796673D01*
X174276967Y-81730096D01*
X174298625Y-81715625D01*
X174626839Y-81224418D01*
X174742092Y-80645000D01*
X174626839Y-80065582D01*
X174298625Y-79574375D01*
X173807418Y-79246161D01*
X173374256Y-79160000D01*
X173081744Y-79160000D01*
X172648582Y-79246161D01*
X172157375Y-79574375D01*
X171829161Y-80065582D01*
X171713908Y-80645000D01*
X169713072Y-80645000D01*
X169593938Y-80046073D01*
X169254673Y-79538327D01*
X168746927Y-79199062D01*
X168299182Y-79110000D01*
X167996818Y-79110000D01*
X167549073Y-79199062D01*
X167041327Y-79538327D01*
X166702062Y-80046073D01*
X166582928Y-80645000D01*
X160488030Y-80645000D01*
X163962386Y-77170645D01*
X164338000Y-77245359D01*
X164922725Y-77129050D01*
X165418430Y-76797830D01*
X165608000Y-76514119D01*
X165797570Y-76797830D01*
X166293276Y-77129050D01*
X166878000Y-77245359D01*
X167462725Y-77129050D01*
X167958430Y-76797830D01*
X168148000Y-76514119D01*
X168337570Y-76797830D01*
X168833276Y-77129050D01*
X169418000Y-77245359D01*
X170002725Y-77129050D01*
X170498430Y-76797830D01*
X170688000Y-76514119D01*
X170877570Y-76797830D01*
X171373276Y-77129050D01*
X171958000Y-77245359D01*
X172542725Y-77129050D01*
X173038430Y-76797830D01*
X173228000Y-76514119D01*
X173417570Y-76797830D01*
X173913276Y-77129050D01*
X174498000Y-77245359D01*
X175082725Y-77129050D01*
X175578430Y-76797830D01*
X175909650Y-76302124D01*
X175996600Y-75864997D01*
X175996600Y-75265002D01*
X175909650Y-74827875D01*
X175578430Y-74332170D01*
X175082724Y-74000950D01*
X174498000Y-73884641D01*
X173913275Y-74000950D01*
X173417570Y-74332170D01*
X173228000Y-74615881D01*
X173038430Y-74332170D01*
X172542724Y-74000950D01*
X171958000Y-73884641D01*
X171373275Y-74000950D01*
X170877570Y-74332170D01*
X170688000Y-74615881D01*
X170498430Y-74332170D01*
X170002724Y-74000950D01*
X169418000Y-73884641D01*
X168833275Y-74000950D01*
X168337570Y-74332170D01*
X168148000Y-74615881D01*
X167958430Y-74332170D01*
X167462724Y-74000950D01*
X166878000Y-73884641D01*
X166293275Y-74000950D01*
X165797570Y-74332170D01*
X165608000Y-74615881D01*
X165418430Y-74332170D01*
X164922724Y-74000950D01*
X164338000Y-73884641D01*
X163753275Y-74000950D01*
X163257570Y-74332170D01*
X163068000Y-74615881D01*
X162878430Y-74332170D01*
X162382724Y-74000950D01*
X161798000Y-73884641D01*
X161213275Y-74000950D01*
X160717570Y-74332170D01*
X160528000Y-74615881D01*
X160338430Y-74332170D01*
X159842724Y-74000950D01*
X159258000Y-73884641D01*
X158673275Y-74000950D01*
X158177570Y-74332170D01*
X157988000Y-74615881D01*
X157798430Y-74332170D01*
X157302724Y-74000950D01*
X156718000Y-73884641D01*
X156133275Y-74000950D01*
X155637570Y-74332170D01*
X155306350Y-74827876D01*
X155219400Y-75265003D01*
X155219400Y-75864998D01*
X155306350Y-76302125D01*
X155637570Y-76797830D01*
X156133276Y-77129050D01*
X156718000Y-77245359D01*
X157302725Y-77129050D01*
X157798430Y-76797830D01*
X157988000Y-76514119D01*
X158177570Y-76797830D01*
X158673276Y-77129050D01*
X159258000Y-77245359D01*
X159842725Y-77129050D01*
X160338430Y-76797830D01*
X160528000Y-76514119D01*
X160717570Y-76797830D01*
X161213276Y-77129050D01*
X161743292Y-77234477D01*
X159094770Y-79883000D01*
X145380065Y-79883000D01*
X145481113Y-79375000D01*
X145369740Y-78815091D01*
X145052577Y-78340423D01*
X144577909Y-78023260D01*
X144159333Y-77940000D01*
X143889030Y-77940000D01*
X144658386Y-77170645D01*
X145034000Y-77245359D01*
X145618725Y-77129050D01*
X146114430Y-76797830D01*
X146304000Y-76514119D01*
X146493570Y-76797830D01*
X146989276Y-77129050D01*
X147574000Y-77245359D01*
X148158725Y-77129050D01*
X148654430Y-76797830D01*
X148844000Y-76514119D01*
X149033570Y-76797830D01*
X149529276Y-77129050D01*
X150114000Y-77245359D01*
X150698725Y-77129050D01*
X151194430Y-76797830D01*
X151384000Y-76514119D01*
X151573570Y-76797830D01*
X152069276Y-77129050D01*
X152654000Y-77245359D01*
X153238725Y-77129050D01*
X153734430Y-76797830D01*
X154065650Y-76302124D01*
X154152600Y-75864997D01*
X154152600Y-75265002D01*
X154065650Y-74827875D01*
X153734430Y-74332170D01*
X153238724Y-74000950D01*
X152654000Y-73884641D01*
X152069275Y-74000950D01*
X151573570Y-74332170D01*
X151384000Y-74615881D01*
X151194430Y-74332170D01*
X150698724Y-74000950D01*
X150114000Y-73884641D01*
X149529275Y-74000950D01*
X149033570Y-74332170D01*
X148844000Y-74615881D01*
X148654430Y-74332170D01*
X148158724Y-74000950D01*
X147574000Y-73884641D01*
X146989275Y-74000950D01*
X146493570Y-74332170D01*
X146304000Y-74615881D01*
X146114430Y-74332170D01*
X145618724Y-74000950D01*
X145034000Y-73884641D01*
X144449275Y-74000950D01*
X143953570Y-74332170D01*
X143764000Y-74615881D01*
X143574430Y-74332170D01*
X143078724Y-74000950D01*
X142494000Y-73884641D01*
X141909275Y-74000950D01*
X141413570Y-74332170D01*
X141224000Y-74615881D01*
X141034430Y-74332170D01*
X140538724Y-74000950D01*
X139954000Y-73884641D01*
X139369275Y-74000950D01*
X138873570Y-74332170D01*
X138680091Y-74621733D01*
X138316036Y-74214268D01*
X137788791Y-73960291D01*
X137773026Y-73957642D01*
X137541000Y-74078783D01*
X137541000Y-75438000D01*
X137561000Y-75438000D01*
X137561000Y-75692000D01*
X137541000Y-75692000D01*
X137541000Y-77051217D01*
X137773026Y-77172358D01*
X137777816Y-77171553D01*
X135912251Y-79037119D01*
X135848630Y-79079629D01*
X135806119Y-79143251D01*
X135806118Y-79143252D01*
X135680213Y-79331683D01*
X135621073Y-79629000D01*
X135636001Y-79704048D01*
X135636000Y-85141957D01*
X135621073Y-85217000D01*
X135636000Y-85292043D01*
X135636000Y-85292047D01*
X135680212Y-85514316D01*
X135848629Y-85766371D01*
X135912253Y-85808883D01*
X136463370Y-86360000D01*
X132052035Y-86360000D01*
X130202667Y-84510633D01*
X130096386Y-84351572D01*
X129466252Y-83930529D01*
X128910584Y-83820000D01*
X128910579Y-83820000D01*
X128722958Y-83782680D01*
X128535337Y-83820000D01*
X125757077Y-83820000D01*
X123852077Y-81915000D01*
X127194887Y-81915000D01*
X127306260Y-82474909D01*
X127623423Y-82949577D01*
X128098091Y-83266740D01*
X128516667Y-83350000D01*
X128799333Y-83350000D01*
X129217909Y-83266740D01*
X129692577Y-82949577D01*
X130009740Y-82474909D01*
X130121113Y-81915000D01*
X130009740Y-81355091D01*
X129782499Y-81015000D01*
X132310560Y-81015000D01*
X132310560Y-82815000D01*
X132359843Y-83062765D01*
X132500191Y-83272809D01*
X132710235Y-83413157D01*
X132814430Y-83433882D01*
X132506260Y-83895091D01*
X132394887Y-84455000D01*
X132506260Y-85014909D01*
X132823423Y-85489577D01*
X133298091Y-85806740D01*
X133716667Y-85890000D01*
X133999333Y-85890000D01*
X134417909Y-85806740D01*
X134892577Y-85489577D01*
X135209740Y-85014909D01*
X135321113Y-84455000D01*
X135209740Y-83895091D01*
X134901570Y-83433882D01*
X135005765Y-83413157D01*
X135215809Y-83272809D01*
X135356157Y-83062765D01*
X135405440Y-82815000D01*
X135405440Y-81015000D01*
X135356157Y-80767235D01*
X135215809Y-80557191D01*
X135005765Y-80416843D01*
X134990092Y-80413725D01*
X135159310Y-80244507D01*
X135393000Y-79680330D01*
X135393000Y-79069670D01*
X135159310Y-78505493D01*
X134727507Y-78073690D01*
X134163330Y-77840000D01*
X133552670Y-77840000D01*
X132988493Y-78073690D01*
X132556690Y-78505493D01*
X132323000Y-79069670D01*
X132323000Y-79680330D01*
X132556690Y-80244507D01*
X132725908Y-80413725D01*
X132710235Y-80416843D01*
X132500191Y-80557191D01*
X132359843Y-80767235D01*
X132310560Y-81015000D01*
X129782499Y-81015000D01*
X129692577Y-80880423D01*
X129217909Y-80563260D01*
X128799333Y-80480000D01*
X128516667Y-80480000D01*
X128098091Y-80563260D01*
X127623423Y-80880423D01*
X127306260Y-81355091D01*
X127194887Y-81915000D01*
X123852077Y-81915000D01*
X122637709Y-80700633D01*
X122531428Y-80541572D01*
X121901294Y-80120529D01*
X121345626Y-80010000D01*
X121345621Y-80010000D01*
X121158000Y-79972680D01*
X120970379Y-80010000D01*
X118137076Y-80010000D01*
X117292366Y-79165290D01*
X117197766Y-79102080D01*
X117476839Y-78684418D01*
X117592092Y-78105000D01*
X117476839Y-77525582D01*
X117148625Y-77034375D01*
X116657418Y-76706161D01*
X116224256Y-76620000D01*
X115931744Y-76620000D01*
X115498582Y-76706161D01*
X115007375Y-77034375D01*
X114679161Y-77525582D01*
X114563908Y-78105000D01*
X114679161Y-78684418D01*
X114958234Y-79102080D01*
X114704572Y-79271572D01*
X114283530Y-79901706D01*
X114135680Y-80645000D01*
X114283530Y-81388294D01*
X114598290Y-81859366D01*
X115868290Y-83129366D01*
X115974572Y-83288428D01*
X116604706Y-83709471D01*
X117160374Y-83820000D01*
X117160378Y-83820000D01*
X117347999Y-83857320D01*
X117535620Y-83820000D01*
X120368924Y-83820000D01*
X123488292Y-86939369D01*
X123594572Y-87098428D01*
X123753631Y-87204708D01*
X123753633Y-87204710D01*
X124224705Y-87519471D01*
X124342928Y-87542987D01*
X124780374Y-87630000D01*
X124780378Y-87630000D01*
X124968000Y-87667320D01*
X125155622Y-87630000D01*
X127933882Y-87630000D01*
X128022892Y-87719010D01*
X127914705Y-87740530D01*
X127443633Y-88055291D01*
X126643637Y-88855287D01*
X126643634Y-88855289D01*
X125173631Y-90325293D01*
X125014572Y-90431573D01*
X124908292Y-90590632D01*
X124908289Y-90590635D01*
X124593529Y-91061707D01*
X124445679Y-91805001D01*
X124483000Y-91992627D01*
X124482999Y-106375924D01*
X121589114Y-109269809D01*
X121275265Y-109399810D01*
X120702810Y-109972265D01*
X120393000Y-110720213D01*
X120393000Y-111529787D01*
X120702810Y-112277735D01*
X121125074Y-112699999D01*
X120279157Y-112699999D01*
X118759791Y-111180634D01*
X118653509Y-111021572D01*
X118023375Y-110600529D01*
X117467707Y-110490000D01*
X117467702Y-110490000D01*
X117280081Y-110452680D01*
X117092460Y-110490000D01*
X115890374Y-110490000D01*
X115334706Y-110600529D01*
X114704572Y-111021572D01*
X114283529Y-111651706D01*
X114135679Y-112395000D01*
X114283529Y-113138294D01*
X114704572Y-113768428D01*
X114958234Y-113937920D01*
X114679161Y-114355582D01*
X114563908Y-114935000D01*
X114679161Y-115514418D01*
X114958234Y-115932080D01*
X114704572Y-116101572D01*
X114283529Y-116731706D01*
X114135679Y-117475000D01*
X114283529Y-118218294D01*
X114690195Y-118826912D01*
X114629843Y-118917235D01*
X114580560Y-119165000D01*
X114580560Y-120865000D01*
X114629843Y-121112765D01*
X114770191Y-121322809D01*
X114980235Y-121463157D01*
X115228000Y-121512440D01*
X116928000Y-121512440D01*
X117175765Y-121463157D01*
X117385809Y-121322809D01*
X117526157Y-121112765D01*
X117575440Y-120865000D01*
X117575440Y-119888516D01*
X119246293Y-121559370D01*
X119352573Y-121718429D01*
X119511632Y-121824709D01*
X119511633Y-121824710D01*
X119704837Y-121953805D01*
X119982707Y-122139472D01*
X120538375Y-122250001D01*
X120538379Y-122250001D01*
X120726000Y-122287321D01*
X120913621Y-122250001D01*
X122771291Y-122250001D01*
X122707026Y-122314266D01*
X122301000Y-123294501D01*
X122301000Y-124355499D01*
X122707026Y-125335734D01*
X123026292Y-125655000D01*
X111708000Y-125655000D01*
X111708000Y-103475000D01*
X120480560Y-103475000D01*
X120480560Y-106075000D01*
X120529843Y-106322765D01*
X120670191Y-106532809D01*
X120880235Y-106673157D01*
X121128000Y-106722440D01*
X123728000Y-106722440D01*
X123975765Y-106673157D01*
X124185809Y-106532809D01*
X124326157Y-106322765D01*
X124375440Y-106075000D01*
X124375440Y-103475000D01*
X124326157Y-103227235D01*
X124185809Y-103017191D01*
X123975765Y-102876843D01*
X123728000Y-102827560D01*
X121128000Y-102827560D01*
X120880235Y-102876843D01*
X120670191Y-103017191D01*
X120529843Y-103227235D01*
X120480560Y-103475000D01*
X111708000Y-103475000D01*
X111708000Y-95885000D01*
X114135680Y-95885000D01*
X114283530Y-96628294D01*
X114598290Y-97099366D01*
X115868290Y-98369366D01*
X115974572Y-98528428D01*
X116604706Y-98949471D01*
X117160374Y-99060000D01*
X117160378Y-99060000D01*
X117347999Y-99097320D01*
X117535620Y-99060000D01*
X121345626Y-99060000D01*
X121901294Y-98949471D01*
X122531428Y-98528428D01*
X122952471Y-97898294D01*
X123100321Y-97155000D01*
X122952471Y-96411706D01*
X122531428Y-95781572D01*
X121901294Y-95360529D01*
X121345626Y-95250000D01*
X118137076Y-95250000D01*
X117292366Y-94405290D01*
X117197766Y-94342080D01*
X117476839Y-93924418D01*
X117592092Y-93345000D01*
X117476839Y-92765582D01*
X117148625Y-92274375D01*
X116657418Y-91946161D01*
X116224256Y-91860000D01*
X115931744Y-91860000D01*
X115498582Y-91946161D01*
X115007375Y-92274375D01*
X114679161Y-92765582D01*
X114563908Y-93345000D01*
X114679161Y-93924418D01*
X114958234Y-94342080D01*
X114704572Y-94511572D01*
X114283530Y-95141706D01*
X114135680Y-95885000D01*
X111708000Y-95885000D01*
X111708000Y-88265000D01*
X114135680Y-88265000D01*
X114283530Y-89008294D01*
X114598290Y-89479366D01*
X115868290Y-90749366D01*
X115974572Y-90908428D01*
X116604706Y-91329471D01*
X117160374Y-91440000D01*
X117160378Y-91440000D01*
X117347999Y-91477320D01*
X117535620Y-91440000D01*
X121345626Y-91440000D01*
X121901294Y-91329471D01*
X122531428Y-90908428D01*
X122952471Y-90278294D01*
X123100321Y-89535000D01*
X122952471Y-88791706D01*
X122531428Y-88161572D01*
X121901294Y-87740529D01*
X121345626Y-87630000D01*
X118137076Y-87630000D01*
X117292366Y-86785290D01*
X117197766Y-86722080D01*
X117476839Y-86304418D01*
X117592092Y-85725000D01*
X117476839Y-85145582D01*
X117148625Y-84654375D01*
X116657418Y-84326161D01*
X116224256Y-84240000D01*
X115931744Y-84240000D01*
X115498582Y-84326161D01*
X115007375Y-84654375D01*
X114679161Y-85145582D01*
X114563908Y-85725000D01*
X114679161Y-86304418D01*
X114958234Y-86722080D01*
X114704572Y-86891572D01*
X114283530Y-87521706D01*
X114135680Y-88265000D01*
X111708000Y-88265000D01*
X111708000Y-73735000D01*
X124296292Y-73735000D01*
X123977026Y-74054266D01*
X123977026Y-74054266D01*
G37*
X123977026Y-74054266D02*
X123571000Y-75034501D01*
X123571000Y-76095499D01*
X123977026Y-77075734D01*
X124727266Y-77825974D01*
X125707501Y-78232000D01*
X126768499Y-78232000D01*
X127748734Y-77825974D01*
X128498974Y-77075734D01*
X128652156Y-76705918D01*
X128713570Y-76797830D01*
X129209276Y-77129050D01*
X129794000Y-77245359D01*
X130378725Y-77129050D01*
X130874430Y-76797830D01*
X131064000Y-76514119D01*
X131253570Y-76797830D01*
X131749276Y-77129050D01*
X132334000Y-77245359D01*
X132918725Y-77129050D01*
X133414430Y-76797830D01*
X133604000Y-76514119D01*
X133793570Y-76797830D01*
X134289276Y-77129050D01*
X134874000Y-77245359D01*
X135458725Y-77129050D01*
X135954430Y-76797830D01*
X136147909Y-76508267D01*
X136511964Y-76915732D01*
X137039209Y-77169709D01*
X137054974Y-77172358D01*
X137287000Y-77051217D01*
X137287000Y-75692000D01*
X137267000Y-75692000D01*
X137267000Y-75438000D01*
X137287000Y-75438000D01*
X137287000Y-74078783D01*
X137054974Y-73957642D01*
X137039209Y-73960291D01*
X136511964Y-74214268D01*
X136147910Y-74621732D01*
X135954430Y-74332170D01*
X135458724Y-74000950D01*
X134874000Y-73884641D01*
X134289275Y-74000950D01*
X133793570Y-74332170D01*
X133604000Y-74615881D01*
X133414430Y-74332170D01*
X132918724Y-74000950D01*
X132334000Y-73884641D01*
X131749275Y-74000950D01*
X131253570Y-74332170D01*
X131064000Y-74615881D01*
X130874430Y-74332170D01*
X130378724Y-74000950D01*
X129794000Y-73884641D01*
X129209275Y-74000950D01*
X128713570Y-74332170D01*
X128652156Y-74424082D01*
X128498974Y-74054266D01*
X128179708Y-73735000D01*
X175219910Y-73735000D01*
X176328001Y-74843092D01*
X176328000Y-85909076D01*
X176314091Y-85979000D01*
X176328000Y-86048924D01*
X176328000Y-86048925D01*
X176369195Y-86256027D01*
X176526119Y-86490880D01*
X176585402Y-86530492D01*
X178868001Y-88813092D01*
X178868001Y-88863293D01*
X178548734Y-88544026D01*
X177568499Y-88138000D01*
X176507501Y-88138000D01*
X175527266Y-88544026D01*
X174777026Y-89294266D01*
X174371000Y-90274501D01*
X174371000Y-91335499D01*
X174777026Y-92315734D01*
X175527266Y-93065974D01*
X176507501Y-93472000D01*
X177568499Y-93472000D01*
X178548734Y-93065974D01*
X178868001Y-92746707D01*
X178868000Y-116803292D01*
X178548734Y-116484026D01*
X177568499Y-116078000D01*
X176507501Y-116078000D01*
X175527266Y-116484026D01*
X174777026Y-117234266D01*
X174371000Y-118214501D01*
X174371000Y-119275499D01*
X174777026Y-120255734D01*
X175527266Y-121005974D01*
X176507501Y-121412000D01*
X177568499Y-121412000D01*
X178548734Y-121005974D01*
X178868000Y-120686708D01*
X178868000Y-120990909D01*
X176585402Y-123273508D01*
X176526120Y-123313119D01*
X176384544Y-123525002D01*
X176369196Y-123547972D01*
X176314091Y-123825000D01*
X176328001Y-123894929D01*
X176328000Y-125655000D01*
X149662676Y-125655000D01*
X149841293Y-125619471D01*
X150471428Y-125198428D01*
X150593291Y-125016047D01*
X150735964Y-125175732D01*
X151263209Y-125429709D01*
X151278974Y-125432358D01*
X151511000Y-125311217D01*
X151511000Y-123952000D01*
X151765000Y-123952000D01*
X151765000Y-125311217D01*
X151997026Y-125432358D01*
X152012791Y-125429709D01*
X152540036Y-125175732D01*
X152908000Y-124763892D01*
X153275964Y-125175732D01*
X153803209Y-125429709D01*
X153818974Y-125432358D01*
X154051000Y-125311217D01*
X154051000Y-123952000D01*
X151765000Y-123952000D01*
X151511000Y-123952000D01*
X151491000Y-123952000D01*
X151491000Y-123698000D01*
X151511000Y-123698000D01*
X151511000Y-122338783D01*
X151765000Y-122338783D01*
X151765000Y-123698000D01*
X154051000Y-123698000D01*
X154051000Y-122338783D01*
X154305000Y-122338783D01*
X154305000Y-123698000D01*
X154325000Y-123698000D01*
X154325000Y-123952000D01*
X154305000Y-123952000D01*
X154305000Y-125311217D01*
X154537026Y-125432358D01*
X154552791Y-125429709D01*
X155080036Y-125175732D01*
X155444090Y-124768268D01*
X155637570Y-125057830D01*
X156133276Y-125389050D01*
X156718000Y-125505359D01*
X157302725Y-125389050D01*
X157798430Y-125057830D01*
X158129650Y-124562124D01*
X158216600Y-124124997D01*
X158216600Y-123525003D01*
X160299400Y-123525003D01*
X160299400Y-124124998D01*
X160386350Y-124562125D01*
X160717570Y-125057830D01*
X161213276Y-125389050D01*
X161798000Y-125505359D01*
X162382725Y-125389050D01*
X162878430Y-125057830D01*
X163068000Y-124774119D01*
X163257570Y-125057830D01*
X163753276Y-125389050D01*
X164338000Y-125505359D01*
X164922725Y-125389050D01*
X165418430Y-125057830D01*
X165608000Y-124774119D01*
X165797570Y-125057830D01*
X166293276Y-125389050D01*
X166878000Y-125505359D01*
X167462725Y-125389050D01*
X167958430Y-125057830D01*
X168148000Y-124774119D01*
X168337570Y-125057830D01*
X168833276Y-125389050D01*
X169418000Y-125505359D01*
X170002725Y-125389050D01*
X170498430Y-125057830D01*
X170688000Y-124774119D01*
X170877570Y-125057830D01*
X171373276Y-125389050D01*
X171958000Y-125505359D01*
X172542725Y-125389050D01*
X173038430Y-125057830D01*
X173228000Y-124774119D01*
X173417570Y-125057830D01*
X173913276Y-125389050D01*
X174498000Y-125505359D01*
X175082725Y-125389050D01*
X175578430Y-125057830D01*
X175909650Y-124562124D01*
X175996600Y-124124997D01*
X175996600Y-123525002D01*
X175909650Y-123087875D01*
X175578430Y-122592170D01*
X175082724Y-122260950D01*
X174498000Y-122144641D01*
X173913275Y-122260950D01*
X173417570Y-122592170D01*
X173228000Y-122875881D01*
X173038430Y-122592170D01*
X172542724Y-122260950D01*
X171958000Y-122144641D01*
X171373275Y-122260950D01*
X170877570Y-122592170D01*
X170688000Y-122875881D01*
X170498430Y-122592170D01*
X170002724Y-122260950D01*
X169418000Y-122144641D01*
X168833275Y-122260950D01*
X168337570Y-122592170D01*
X168148000Y-122875881D01*
X167958430Y-122592170D01*
X167462724Y-122260950D01*
X166878000Y-122144641D01*
X166293275Y-122260950D01*
X165797570Y-122592170D01*
X165608000Y-122875881D01*
X165418430Y-122592170D01*
X164922724Y-122260950D01*
X164338000Y-122144641D01*
X163753275Y-122260950D01*
X163257570Y-122592170D01*
X163068000Y-122875881D01*
X162878430Y-122592170D01*
X162382724Y-122260950D01*
X161798000Y-122144641D01*
X161213275Y-122260950D01*
X160717570Y-122592170D01*
X160386350Y-123087876D01*
X160299400Y-123525003D01*
X158216600Y-123525003D01*
X158216600Y-123525002D01*
X158129650Y-123087875D01*
X157798430Y-122592170D01*
X157302724Y-122260950D01*
X156718000Y-122144641D01*
X156133275Y-122260950D01*
X155637570Y-122592170D01*
X155444091Y-122881733D01*
X155080036Y-122474268D01*
X154552791Y-122220291D01*
X154537026Y-122217642D01*
X154305000Y-122338783D01*
X154051000Y-122338783D01*
X153818974Y-122217642D01*
X153803209Y-122220291D01*
X153275964Y-122474268D01*
X152908000Y-122886108D01*
X152540036Y-122474268D01*
X152012791Y-122220291D01*
X151997026Y-122217642D01*
X151765000Y-122338783D01*
X151511000Y-122338783D01*
X151278974Y-122217642D01*
X151263209Y-122220291D01*
X151003000Y-122345635D01*
X151003000Y-122074076D01*
X153697077Y-119380000D01*
X164718087Y-119380000D01*
X164820191Y-119532809D01*
X165030235Y-119673157D01*
X165278000Y-119722440D01*
X168478000Y-119722440D01*
X168725765Y-119673157D01*
X168935809Y-119532809D01*
X169076157Y-119322765D01*
X169125440Y-119075000D01*
X169125440Y-117475000D01*
X169679214Y-117475000D01*
X169852676Y-118347054D01*
X170346655Y-119086345D01*
X171085946Y-119580324D01*
X171737872Y-119710000D01*
X172178128Y-119710000D01*
X172830054Y-119580324D01*
X173569345Y-119086345D01*
X174063324Y-118347054D01*
X174236786Y-117475000D01*
X174063324Y-116602946D01*
X173863000Y-116303140D01*
X173863000Y-110155000D01*
X174048983Y-110155000D01*
X174392635Y-110012655D01*
X174550290Y-109855000D01*
X175523908Y-109855000D01*
X175639161Y-110434418D01*
X175967375Y-110925625D01*
X175985619Y-110937816D01*
X175940235Y-110946843D01*
X175730191Y-111087191D01*
X175589843Y-111297235D01*
X175540560Y-111545000D01*
X175540560Y-113245000D01*
X175589843Y-113492765D01*
X175730191Y-113702809D01*
X175940235Y-113843157D01*
X176188000Y-113892440D01*
X177888000Y-113892440D01*
X178135765Y-113843157D01*
X178345809Y-113702809D01*
X178486157Y-113492765D01*
X178535440Y-113245000D01*
X178535440Y-111545000D01*
X178486157Y-111297235D01*
X178345809Y-111087191D01*
X178135765Y-110946843D01*
X178090381Y-110937816D01*
X178108625Y-110925625D01*
X178436839Y-110434418D01*
X178552092Y-109855000D01*
X178436839Y-109275582D01*
X178108625Y-108784375D01*
X177617418Y-108456161D01*
X177184256Y-108370000D01*
X176891744Y-108370000D01*
X176458582Y-108456161D01*
X175967375Y-108784375D01*
X175639161Y-109275582D01*
X175523908Y-109855000D01*
X174550290Y-109855000D01*
X174655655Y-109749635D01*
X174798000Y-109405983D01*
X174798000Y-109362630D01*
X176253749Y-107906882D01*
X176317371Y-107864371D01*
X176485788Y-107612317D01*
X176530000Y-107390048D01*
X176530000Y-107390044D01*
X176544927Y-107315001D01*
X176530000Y-107239958D01*
X176530000Y-106160000D01*
X176752250Y-106160000D01*
X176911000Y-106001250D01*
X176911000Y-104902000D01*
X177165000Y-104902000D01*
X177165000Y-106001250D01*
X177323750Y-106160000D01*
X177614309Y-106160000D01*
X177847698Y-106063327D01*
X178026327Y-105884699D01*
X178123000Y-105651310D01*
X178123000Y-105060750D01*
X177964250Y-104902000D01*
X177165000Y-104902000D01*
X176911000Y-104902000D01*
X176891000Y-104902000D01*
X176891000Y-104648000D01*
X176911000Y-104648000D01*
X176911000Y-103548750D01*
X177165000Y-103548750D01*
X177165000Y-104648000D01*
X177964250Y-104648000D01*
X178123000Y-104489250D01*
X178123000Y-103898690D01*
X178026327Y-103665301D01*
X177847698Y-103486673D01*
X177614309Y-103390000D01*
X177323750Y-103390000D01*
X177165000Y-103548750D01*
X176911000Y-103548750D01*
X176752250Y-103390000D01*
X176461691Y-103390000D01*
X176236641Y-103483219D01*
X176191345Y-103452953D01*
X175768000Y-103368744D01*
X175344654Y-103452953D01*
X175133000Y-103594376D01*
X174921345Y-103452953D01*
X174498000Y-103368744D01*
X174074654Y-103452953D01*
X173988362Y-103510612D01*
X173847989Y-103482690D01*
X173104695Y-103630540D01*
X172633622Y-103945301D01*
X170743633Y-105835291D01*
X170584573Y-105941572D01*
X170478293Y-106100631D01*
X170478290Y-106100634D01*
X170163530Y-106571706D01*
X170015680Y-107315000D01*
X170053001Y-107502626D01*
X170053000Y-116303140D01*
X169852676Y-116602946D01*
X169679214Y-117475000D01*
X169125440Y-117475000D01*
X169125440Y-115875000D01*
X169076157Y-115627235D01*
X169052999Y-115592577D01*
X169052999Y-101972745D01*
X169859861Y-101972745D01*
X169933995Y-102218864D01*
X170471223Y-102411965D01*
X171041454Y-102384778D01*
X171442005Y-102218864D01*
X171516139Y-101972745D01*
X170688000Y-101144605D01*
X169859861Y-101972745D01*
X169052999Y-101972745D01*
X169052999Y-100748223D01*
X169241035Y-100748223D01*
X169268222Y-101318454D01*
X169434136Y-101719005D01*
X169680255Y-101793139D01*
X170508395Y-100965000D01*
X170867605Y-100965000D01*
X171695745Y-101793139D01*
X171941864Y-101719005D01*
X172134965Y-101181777D01*
X172107778Y-100611546D01*
X171941864Y-100210995D01*
X171695745Y-100136861D01*
X170867605Y-100965000D01*
X170508395Y-100965000D01*
X169680255Y-100136861D01*
X169434136Y-100210995D01*
X169241035Y-100748223D01*
X169052999Y-100748223D01*
X169052999Y-100152620D01*
X169090319Y-99964999D01*
X169088779Y-99957255D01*
X169859861Y-99957255D01*
X170688000Y-100785395D01*
X171516139Y-99957255D01*
X171442005Y-99711136D01*
X170904777Y-99518035D01*
X170334546Y-99545222D01*
X169933995Y-99711136D01*
X169859861Y-99957255D01*
X169088779Y-99957255D01*
X169052999Y-99777378D01*
X169052999Y-99777373D01*
X168942470Y-99221705D01*
X168760568Y-98949470D01*
X168627709Y-98750632D01*
X168627707Y-98750630D01*
X168521427Y-98591571D01*
X168362368Y-98485291D01*
X162817076Y-92940000D01*
X162992678Y-92940000D01*
X163777380Y-92614966D01*
X164377966Y-92014380D01*
X164703000Y-91229678D01*
X164703000Y-90805000D01*
X169224887Y-90805000D01*
X169336260Y-91364909D01*
X169653423Y-91839577D01*
X170128091Y-92156740D01*
X170546667Y-92240000D01*
X170829333Y-92240000D01*
X171247909Y-92156740D01*
X171722577Y-91839577D01*
X172039740Y-91364909D01*
X172151113Y-90805000D01*
X172039740Y-90245091D01*
X171722577Y-89770423D01*
X171247909Y-89453260D01*
X170829333Y-89370000D01*
X170546667Y-89370000D01*
X170128091Y-89453260D01*
X169653423Y-89770423D01*
X169336260Y-90245091D01*
X169224887Y-90805000D01*
X164703000Y-90805000D01*
X164703000Y-90380322D01*
X164377966Y-89595620D01*
X163777380Y-88995034D01*
X162992678Y-88670000D01*
X162143322Y-88670000D01*
X161358620Y-88995034D01*
X160758034Y-89595620D01*
X160433000Y-90380322D01*
X160433000Y-90645305D01*
X160231293Y-90510528D01*
X159675625Y-90399999D01*
X159675620Y-90399999D01*
X159487999Y-90362679D01*
X159300378Y-90399999D01*
X152657076Y-90399999D01*
X152407966Y-90150890D01*
X152177966Y-89595620D01*
X151577380Y-88995034D01*
X150792678Y-88670000D01*
X149943322Y-88670000D01*
X149158620Y-88995034D01*
X148558034Y-89595620D01*
X148286468Y-90251238D01*
X144217473Y-86182243D01*
X144174961Y-86118619D01*
X143922907Y-85950202D01*
X143700638Y-85905990D01*
X143700633Y-85905990D01*
X143625590Y-85891063D01*
X143550547Y-85905990D01*
X138164621Y-85905990D01*
X137160000Y-84901370D01*
X137160000Y-79944630D01*
X137409239Y-79695392D01*
X137636690Y-80244507D01*
X137805908Y-80413725D01*
X137790235Y-80416843D01*
X137580191Y-80557191D01*
X137439843Y-80767235D01*
X137390560Y-81015000D01*
X137390560Y-82815000D01*
X137439843Y-83062765D01*
X137580191Y-83272809D01*
X137790235Y-83413157D01*
X137894430Y-83433882D01*
X137586260Y-83895091D01*
X137474887Y-84455000D01*
X137586260Y-85014909D01*
X137903423Y-85489577D01*
X138378091Y-85806740D01*
X138796667Y-85890000D01*
X139079333Y-85890000D01*
X139497909Y-85806740D01*
X139972577Y-85489577D01*
X140289740Y-85014909D01*
X140401113Y-84455000D01*
X140289740Y-83895091D01*
X139981570Y-83433882D01*
X140085765Y-83413157D01*
X140295809Y-83272809D01*
X140436157Y-83062765D01*
X140485440Y-82815000D01*
X140485440Y-81407000D01*
X149856079Y-81407000D01*
X149768511Y-81465511D01*
X149241380Y-82254420D01*
X149056276Y-83185000D01*
X149241380Y-84115580D01*
X149768511Y-84904489D01*
X150557420Y-85431620D01*
X151253103Y-85570000D01*
X151722897Y-85570000D01*
X152418580Y-85431620D01*
X153207489Y-84904489D01*
X153260601Y-84825000D01*
X166600560Y-84825000D01*
X166600560Y-86625000D01*
X166649843Y-86872765D01*
X166790191Y-87082809D01*
X167000235Y-87223157D01*
X167248000Y-87272440D01*
X169048000Y-87272440D01*
X169295765Y-87223157D01*
X169505809Y-87082809D01*
X169646157Y-86872765D01*
X169695440Y-86625000D01*
X169695440Y-84825000D01*
X169646157Y-84577235D01*
X169505809Y-84367191D01*
X169295765Y-84226843D01*
X169249502Y-84217641D01*
X169385966Y-84092576D01*
X169639046Y-83549742D01*
X169599159Y-83470750D01*
X171743000Y-83470750D01*
X171743000Y-84161310D01*
X171839673Y-84394699D01*
X172018302Y-84573327D01*
X172251691Y-84670000D01*
X172942250Y-84670000D01*
X173101000Y-84511250D01*
X173101000Y-83312000D01*
X173355000Y-83312000D01*
X173355000Y-84511250D01*
X173513750Y-84670000D01*
X174204309Y-84670000D01*
X174437698Y-84573327D01*
X174616327Y-84394699D01*
X174713000Y-84161310D01*
X174713000Y-83470750D01*
X174554250Y-83312000D01*
X173355000Y-83312000D01*
X173101000Y-83312000D01*
X171901750Y-83312000D01*
X171743000Y-83470750D01*
X169599159Y-83470750D01*
X169518997Y-83312000D01*
X168275000Y-83312000D01*
X168275000Y-83332000D01*
X168021000Y-83332000D01*
X168021000Y-83312000D01*
X166777003Y-83312000D01*
X166656954Y-83549742D01*
X166910034Y-84092576D01*
X167046498Y-84217641D01*
X167000235Y-84226843D01*
X166790191Y-84367191D01*
X166649843Y-84577235D01*
X166600560Y-84825000D01*
X153260601Y-84825000D01*
X153734620Y-84115580D01*
X153919724Y-83185000D01*
X153734620Y-82254420D01*
X153207489Y-81465511D01*
X153119921Y-81407000D01*
X159335357Y-81407000D01*
X159410400Y-81421927D01*
X159485443Y-81407000D01*
X159485448Y-81407000D01*
X159707717Y-81362788D01*
X159959771Y-81194371D01*
X160002283Y-81130747D01*
X160488030Y-80645000D01*
X166582928Y-80645000D01*
X166702062Y-81243927D01*
X167041327Y-81751673D01*
X167297174Y-81922624D01*
X166910034Y-82277424D01*
X166656954Y-82820258D01*
X166777003Y-83058000D01*
X168021000Y-83058000D01*
X168021000Y-83038000D01*
X168275000Y-83038000D01*
X168275000Y-83058000D01*
X169518997Y-83058000D01*
X169639046Y-82820258D01*
X169385966Y-82277424D01*
X168998826Y-81922624D01*
X169254673Y-81751673D01*
X169593938Y-81243927D01*
X169713072Y-80645000D01*
X171713908Y-80645000D01*
X171829161Y-81224418D01*
X172157375Y-81715625D01*
X172179033Y-81730096D01*
X172018302Y-81796673D01*
X171839673Y-81975301D01*
X171743000Y-82208690D01*
X171743000Y-82899250D01*
X171901750Y-83058000D01*
X173101000Y-83058000D01*
X173101000Y-83038000D01*
X173355000Y-83038000D01*
X173355000Y-83058000D01*
X174554250Y-83058000D01*
X174713000Y-82899250D01*
X174713000Y-82208690D01*
X174616327Y-81975301D01*
X174437698Y-81796673D01*
X174276967Y-81730096D01*
X174298625Y-81715625D01*
X174626839Y-81224418D01*
X174742092Y-80645000D01*
X174626839Y-80065582D01*
X174298625Y-79574375D01*
X173807418Y-79246161D01*
X173374256Y-79160000D01*
X173081744Y-79160000D01*
X172648582Y-79246161D01*
X172157375Y-79574375D01*
X171829161Y-80065582D01*
X171713908Y-80645000D01*
X169713072Y-80645000D01*
X169593938Y-80046073D01*
X169254673Y-79538327D01*
X168746927Y-79199062D01*
X168299182Y-79110000D01*
X167996818Y-79110000D01*
X167549073Y-79199062D01*
X167041327Y-79538327D01*
X166702062Y-80046073D01*
X166582928Y-80645000D01*
X160488030Y-80645000D01*
X163962386Y-77170645D01*
X164338000Y-77245359D01*
X164922725Y-77129050D01*
X165418430Y-76797830D01*
X165608000Y-76514119D01*
X165797570Y-76797830D01*
X166293276Y-77129050D01*
X166878000Y-77245359D01*
X167462725Y-77129050D01*
X167958430Y-76797830D01*
X168148000Y-76514119D01*
X168337570Y-76797830D01*
X168833276Y-77129050D01*
X169418000Y-77245359D01*
X170002725Y-77129050D01*
X170498430Y-76797830D01*
X170688000Y-76514119D01*
X170877570Y-76797830D01*
X171373276Y-77129050D01*
X171958000Y-77245359D01*
X172542725Y-77129050D01*
X173038430Y-76797830D01*
X173228000Y-76514119D01*
X173417570Y-76797830D01*
X173913276Y-77129050D01*
X174498000Y-77245359D01*
X175082725Y-77129050D01*
X175578430Y-76797830D01*
X175909650Y-76302124D01*
X175996600Y-75864997D01*
X175996600Y-75265002D01*
X175909650Y-74827875D01*
X175578430Y-74332170D01*
X175082724Y-74000950D01*
X174498000Y-73884641D01*
X173913275Y-74000950D01*
X173417570Y-74332170D01*
X173228000Y-74615881D01*
X173038430Y-74332170D01*
X172542724Y-74000950D01*
X171958000Y-73884641D01*
X171373275Y-74000950D01*
X170877570Y-74332170D01*
X170688000Y-74615881D01*
X170498430Y-74332170D01*
X170002724Y-74000950D01*
X169418000Y-73884641D01*
X168833275Y-74000950D01*
X168337570Y-74332170D01*
X168148000Y-74615881D01*
X167958430Y-74332170D01*
X167462724Y-74000950D01*
X166878000Y-73884641D01*
X166293275Y-74000950D01*
X165797570Y-74332170D01*
X165608000Y-74615881D01*
X165418430Y-74332170D01*
X164922724Y-74000950D01*
X164338000Y-73884641D01*
X163753275Y-74000950D01*
X163257570Y-74332170D01*
X163068000Y-74615881D01*
X162878430Y-74332170D01*
X162382724Y-74000950D01*
X161798000Y-73884641D01*
X161213275Y-74000950D01*
X160717570Y-74332170D01*
X160528000Y-74615881D01*
X160338430Y-74332170D01*
X159842724Y-74000950D01*
X159258000Y-73884641D01*
X158673275Y-74000950D01*
X158177570Y-74332170D01*
X157988000Y-74615881D01*
X157798430Y-74332170D01*
X157302724Y-74000950D01*
X156718000Y-73884641D01*
X156133275Y-74000950D01*
X155637570Y-74332170D01*
X155306350Y-74827876D01*
X155219400Y-75265003D01*
X155219400Y-75864998D01*
X155306350Y-76302125D01*
X155637570Y-76797830D01*
X156133276Y-77129050D01*
X156718000Y-77245359D01*
X157302725Y-77129050D01*
X157798430Y-76797830D01*
X157988000Y-76514119D01*
X158177570Y-76797830D01*
X158673276Y-77129050D01*
X159258000Y-77245359D01*
X159842725Y-77129050D01*
X160338430Y-76797830D01*
X160528000Y-76514119D01*
X160717570Y-76797830D01*
X161213276Y-77129050D01*
X161743292Y-77234477D01*
X159094770Y-79883000D01*
X145380065Y-79883000D01*
X145481113Y-79375000D01*
X145369740Y-78815091D01*
X145052577Y-78340423D01*
X144577909Y-78023260D01*
X144159333Y-77940000D01*
X143889030Y-77940000D01*
X144658386Y-77170645D01*
X145034000Y-77245359D01*
X145618725Y-77129050D01*
X146114430Y-76797830D01*
X146304000Y-76514119D01*
X146493570Y-76797830D01*
X146989276Y-77129050D01*
X147574000Y-77245359D01*
X148158725Y-77129050D01*
X148654430Y-76797830D01*
X148844000Y-76514119D01*
X149033570Y-76797830D01*
X149529276Y-77129050D01*
X150114000Y-77245359D01*
X150698725Y-77129050D01*
X151194430Y-76797830D01*
X151384000Y-76514119D01*
X151573570Y-76797830D01*
X152069276Y-77129050D01*
X152654000Y-77245359D01*
X153238725Y-77129050D01*
X153734430Y-76797830D01*
X154065650Y-76302124D01*
X154152600Y-75864997D01*
X154152600Y-75265002D01*
X154065650Y-74827875D01*
X153734430Y-74332170D01*
X153238724Y-74000950D01*
X152654000Y-73884641D01*
X152069275Y-74000950D01*
X151573570Y-74332170D01*
X151384000Y-74615881D01*
X151194430Y-74332170D01*
X150698724Y-74000950D01*
X150114000Y-73884641D01*
X149529275Y-74000950D01*
X149033570Y-74332170D01*
X148844000Y-74615881D01*
X148654430Y-74332170D01*
X148158724Y-74000950D01*
X147574000Y-73884641D01*
X146989275Y-74000950D01*
X146493570Y-74332170D01*
X146304000Y-74615881D01*
X146114430Y-74332170D01*
X145618724Y-74000950D01*
X145034000Y-73884641D01*
X144449275Y-74000950D01*
X143953570Y-74332170D01*
X143764000Y-74615881D01*
X143574430Y-74332170D01*
X143078724Y-74000950D01*
X142494000Y-73884641D01*
X141909275Y-74000950D01*
X141413570Y-74332170D01*
X141224000Y-74615881D01*
X141034430Y-74332170D01*
X140538724Y-74000950D01*
X139954000Y-73884641D01*
X139369275Y-74000950D01*
X138873570Y-74332170D01*
X138680091Y-74621733D01*
X138316036Y-74214268D01*
X137788791Y-73960291D01*
X137773026Y-73957642D01*
X137541000Y-74078783D01*
X137541000Y-75438000D01*
X137561000Y-75438000D01*
X137561000Y-75692000D01*
X137541000Y-75692000D01*
X137541000Y-77051217D01*
X137773026Y-77172358D01*
X137777816Y-77171553D01*
X135912251Y-79037119D01*
X135848630Y-79079629D01*
X135806119Y-79143251D01*
X135806118Y-79143252D01*
X135680213Y-79331683D01*
X135621073Y-79629000D01*
X135636001Y-79704048D01*
X135636000Y-85141957D01*
X135621073Y-85217000D01*
X135636000Y-85292043D01*
X135636000Y-85292047D01*
X135680212Y-85514316D01*
X135848629Y-85766371D01*
X135912253Y-85808883D01*
X136463370Y-86360000D01*
X132052035Y-86360000D01*
X130202667Y-84510633D01*
X130096386Y-84351572D01*
X129466252Y-83930529D01*
X128910584Y-83820000D01*
X128910579Y-83820000D01*
X128722958Y-83782680D01*
X128535337Y-83820000D01*
X125757077Y-83820000D01*
X123852077Y-81915000D01*
X127194887Y-81915000D01*
X127306260Y-82474909D01*
X127623423Y-82949577D01*
X128098091Y-83266740D01*
X128516667Y-83350000D01*
X128799333Y-83350000D01*
X129217909Y-83266740D01*
X129692577Y-82949577D01*
X130009740Y-82474909D01*
X130121113Y-81915000D01*
X130009740Y-81355091D01*
X129782499Y-81015000D01*
X132310560Y-81015000D01*
X132310560Y-82815000D01*
X132359843Y-83062765D01*
X132500191Y-83272809D01*
X132710235Y-83413157D01*
X132814430Y-83433882D01*
X132506260Y-83895091D01*
X132394887Y-84455000D01*
X132506260Y-85014909D01*
X132823423Y-85489577D01*
X133298091Y-85806740D01*
X133716667Y-85890000D01*
X133999333Y-85890000D01*
X134417909Y-85806740D01*
X134892577Y-85489577D01*
X135209740Y-85014909D01*
X135321113Y-84455000D01*
X135209740Y-83895091D01*
X134901570Y-83433882D01*
X135005765Y-83413157D01*
X135215809Y-83272809D01*
X135356157Y-83062765D01*
X135405440Y-82815000D01*
X135405440Y-81015000D01*
X135356157Y-80767235D01*
X135215809Y-80557191D01*
X135005765Y-80416843D01*
X134990092Y-80413725D01*
X135159310Y-80244507D01*
X135393000Y-79680330D01*
X135393000Y-79069670D01*
X135159310Y-78505493D01*
X134727507Y-78073690D01*
X134163330Y-77840000D01*
X133552670Y-77840000D01*
X132988493Y-78073690D01*
X132556690Y-78505493D01*
X132323000Y-79069670D01*
X132323000Y-79680330D01*
X132556690Y-80244507D01*
X132725908Y-80413725D01*
X132710235Y-80416843D01*
X132500191Y-80557191D01*
X132359843Y-80767235D01*
X132310560Y-81015000D01*
X129782499Y-81015000D01*
X129692577Y-80880423D01*
X129217909Y-80563260D01*
X128799333Y-80480000D01*
X128516667Y-80480000D01*
X128098091Y-80563260D01*
X127623423Y-80880423D01*
X127306260Y-81355091D01*
X127194887Y-81915000D01*
X123852077Y-81915000D01*
X122637709Y-80700633D01*
X122531428Y-80541572D01*
X121901294Y-80120529D01*
X121345626Y-80010000D01*
X121345621Y-80010000D01*
X121158000Y-79972680D01*
X120970379Y-80010000D01*
X118137076Y-80010000D01*
X117292366Y-79165290D01*
X117197766Y-79102080D01*
X117476839Y-78684418D01*
X117592092Y-78105000D01*
X117476839Y-77525582D01*
X117148625Y-77034375D01*
X116657418Y-76706161D01*
X116224256Y-76620000D01*
X115931744Y-76620000D01*
X115498582Y-76706161D01*
X115007375Y-77034375D01*
X114679161Y-77525582D01*
X114563908Y-78105000D01*
X114679161Y-78684418D01*
X114958234Y-79102080D01*
X114704572Y-79271572D01*
X114283530Y-79901706D01*
X114135680Y-80645000D01*
X114283530Y-81388294D01*
X114598290Y-81859366D01*
X115868290Y-83129366D01*
X115974572Y-83288428D01*
X116604706Y-83709471D01*
X117160374Y-83820000D01*
X117160378Y-83820000D01*
X117347999Y-83857320D01*
X117535620Y-83820000D01*
X120368924Y-83820000D01*
X123488292Y-86939369D01*
X123594572Y-87098428D01*
X123753631Y-87204708D01*
X123753633Y-87204710D01*
X124224705Y-87519471D01*
X124342928Y-87542987D01*
X124780374Y-87630000D01*
X124780378Y-87630000D01*
X124968000Y-87667320D01*
X125155622Y-87630000D01*
X127933882Y-87630000D01*
X128022892Y-87719010D01*
X127914705Y-87740530D01*
X127443633Y-88055291D01*
X126643637Y-88855287D01*
X126643634Y-88855289D01*
X125173631Y-90325293D01*
X125014572Y-90431573D01*
X124908292Y-90590632D01*
X124908289Y-90590635D01*
X124593529Y-91061707D01*
X124445679Y-91805001D01*
X124483000Y-91992627D01*
X124482999Y-106375924D01*
X121589114Y-109269809D01*
X121275265Y-109399810D01*
X120702810Y-109972265D01*
X120393000Y-110720213D01*
X120393000Y-111529787D01*
X120702810Y-112277735D01*
X121125074Y-112699999D01*
X120279157Y-112699999D01*
X118759791Y-111180634D01*
X118653509Y-111021572D01*
X118023375Y-110600529D01*
X117467707Y-110490000D01*
X117467702Y-110490000D01*
X117280081Y-110452680D01*
X117092460Y-110490000D01*
X115890374Y-110490000D01*
X115334706Y-110600529D01*
X114704572Y-111021572D01*
X114283529Y-111651706D01*
X114135679Y-112395000D01*
X114283529Y-113138294D01*
X114704572Y-113768428D01*
X114958234Y-113937920D01*
X114679161Y-114355582D01*
X114563908Y-114935000D01*
X114679161Y-115514418D01*
X114958234Y-115932080D01*
X114704572Y-116101572D01*
X114283529Y-116731706D01*
X114135679Y-117475000D01*
X114283529Y-118218294D01*
X114690195Y-118826912D01*
X114629843Y-118917235D01*
X114580560Y-119165000D01*
X114580560Y-120865000D01*
X114629843Y-121112765D01*
X114770191Y-121322809D01*
X114980235Y-121463157D01*
X115228000Y-121512440D01*
X116928000Y-121512440D01*
X117175765Y-121463157D01*
X117385809Y-121322809D01*
X117526157Y-121112765D01*
X117575440Y-120865000D01*
X117575440Y-119888516D01*
X119246293Y-121559370D01*
X119352573Y-121718429D01*
X119511632Y-121824709D01*
X119511633Y-121824710D01*
X119704837Y-121953805D01*
X119982707Y-122139472D01*
X120538375Y-122250001D01*
X120538379Y-122250001D01*
X120726000Y-122287321D01*
X120913621Y-122250001D01*
X122771291Y-122250001D01*
X122707026Y-122314266D01*
X122301000Y-123294501D01*
X122301000Y-124355499D01*
X122707026Y-125335734D01*
X123026292Y-125655000D01*
X111708000Y-125655000D01*
X111708000Y-103475000D01*
X120480560Y-103475000D01*
X120480560Y-106075000D01*
X120529843Y-106322765D01*
X120670191Y-106532809D01*
X120880235Y-106673157D01*
X121128000Y-106722440D01*
X123728000Y-106722440D01*
X123975765Y-106673157D01*
X124185809Y-106532809D01*
X124326157Y-106322765D01*
X124375440Y-106075000D01*
X124375440Y-103475000D01*
X124326157Y-103227235D01*
X124185809Y-103017191D01*
X123975765Y-102876843D01*
X123728000Y-102827560D01*
X121128000Y-102827560D01*
X120880235Y-102876843D01*
X120670191Y-103017191D01*
X120529843Y-103227235D01*
X120480560Y-103475000D01*
X111708000Y-103475000D01*
X111708000Y-95885000D01*
X114135680Y-95885000D01*
X114283530Y-96628294D01*
X114598290Y-97099366D01*
X115868290Y-98369366D01*
X115974572Y-98528428D01*
X116604706Y-98949471D01*
X117160374Y-99060000D01*
X117160378Y-99060000D01*
X117347999Y-99097320D01*
X117535620Y-99060000D01*
X121345626Y-99060000D01*
X121901294Y-98949471D01*
X122531428Y-98528428D01*
X122952471Y-97898294D01*
X123100321Y-97155000D01*
X122952471Y-96411706D01*
X122531428Y-95781572D01*
X121901294Y-95360529D01*
X121345626Y-95250000D01*
X118137076Y-95250000D01*
X117292366Y-94405290D01*
X117197766Y-94342080D01*
X117476839Y-93924418D01*
X117592092Y-93345000D01*
X117476839Y-92765582D01*
X117148625Y-92274375D01*
X116657418Y-91946161D01*
X116224256Y-91860000D01*
X115931744Y-91860000D01*
X115498582Y-91946161D01*
X115007375Y-92274375D01*
X114679161Y-92765582D01*
X114563908Y-93345000D01*
X114679161Y-93924418D01*
X114958234Y-94342080D01*
X114704572Y-94511572D01*
X114283530Y-95141706D01*
X114135680Y-95885000D01*
X111708000Y-95885000D01*
X111708000Y-88265000D01*
X114135680Y-88265000D01*
X114283530Y-89008294D01*
X114598290Y-89479366D01*
X115868290Y-90749366D01*
X115974572Y-90908428D01*
X116604706Y-91329471D01*
X117160374Y-91440000D01*
X117160378Y-91440000D01*
X117347999Y-91477320D01*
X117535620Y-91440000D01*
X121345626Y-91440000D01*
X121901294Y-91329471D01*
X122531428Y-90908428D01*
X122952471Y-90278294D01*
X123100321Y-89535000D01*
X122952471Y-88791706D01*
X122531428Y-88161572D01*
X121901294Y-87740529D01*
X121345626Y-87630000D01*
X118137076Y-87630000D01*
X117292366Y-86785290D01*
X117197766Y-86722080D01*
X117476839Y-86304418D01*
X117592092Y-85725000D01*
X117476839Y-85145582D01*
X117148625Y-84654375D01*
X116657418Y-84326161D01*
X116224256Y-84240000D01*
X115931744Y-84240000D01*
X115498582Y-84326161D01*
X115007375Y-84654375D01*
X114679161Y-85145582D01*
X114563908Y-85725000D01*
X114679161Y-86304418D01*
X114958234Y-86722080D01*
X114704572Y-86891572D01*
X114283530Y-87521706D01*
X114135680Y-88265000D01*
X111708000Y-88265000D01*
X111708000Y-73735000D01*
X124296292Y-73735000D01*
X123977026Y-74054266D01*
G36*
X133079527Y-122028294D02*
X133500570Y-122658428D01*
X134130704Y-123079471D01*
X134686372Y-123190000D01*
X137506036Y-123190000D01*
X137439400Y-123525003D01*
X137439400Y-124124998D01*
X137526350Y-124562125D01*
X137857570Y-125057830D01*
X138353276Y-125389050D01*
X138938000Y-125505359D01*
X139522725Y-125389050D01*
X140018430Y-125057830D01*
X140208000Y-124774119D01*
X140397570Y-125057830D01*
X140893276Y-125389050D01*
X141478000Y-125505359D01*
X142062725Y-125389050D01*
X142558430Y-125057830D01*
X142748000Y-124774119D01*
X142937570Y-125057830D01*
X143433276Y-125389050D01*
X144018000Y-125505359D01*
X144602725Y-125389050D01*
X145098430Y-125057830D01*
X145288000Y-124774119D01*
X145477570Y-125057830D01*
X145973276Y-125389050D01*
X146558000Y-125505359D01*
X147142725Y-125389050D01*
X147633036Y-125061434D01*
X147724572Y-125198428D01*
X148354706Y-125619471D01*
X148533323Y-125655000D01*
X126909708Y-125655000D01*
X127228974Y-125335734D01*
X127635000Y-124355499D01*
X127635000Y-123294501D01*
X127228974Y-122314266D01*
X127164709Y-122250001D01*
X131237980Y-122250001D01*
X131425601Y-122287321D01*
X131613222Y-122250001D01*
X131613227Y-122250001D01*
X132168895Y-122139472D01*
X132799029Y-121718429D01*
X132905311Y-121559367D01*
X132972823Y-121491855D01*
X133079527Y-122028294D01*
X133079527Y-122028294D01*
G37*
X133079527Y-122028294D02*
X133500570Y-122658428D01*
X134130704Y-123079471D01*
X134686372Y-123190000D01*
X137506036Y-123190000D01*
X137439400Y-123525003D01*
X137439400Y-124124998D01*
X137526350Y-124562125D01*
X137857570Y-125057830D01*
X138353276Y-125389050D01*
X138938000Y-125505359D01*
X139522725Y-125389050D01*
X140018430Y-125057830D01*
X140208000Y-124774119D01*
X140397570Y-125057830D01*
X140893276Y-125389050D01*
X141478000Y-125505359D01*
X142062725Y-125389050D01*
X142558430Y-125057830D01*
X142748000Y-124774119D01*
X142937570Y-125057830D01*
X143433276Y-125389050D01*
X144018000Y-125505359D01*
X144602725Y-125389050D01*
X145098430Y-125057830D01*
X145288000Y-124774119D01*
X145477570Y-125057830D01*
X145973276Y-125389050D01*
X146558000Y-125505359D01*
X147142725Y-125389050D01*
X147633036Y-125061434D01*
X147724572Y-125198428D01*
X148354706Y-125619471D01*
X148533323Y-125655000D01*
X126909708Y-125655000D01*
X127228974Y-125335734D01*
X127635000Y-124355499D01*
X127635000Y-123294501D01*
X127228974Y-122314266D01*
X127164709Y-122250001D01*
X131237980Y-122250001D01*
X131425601Y-122287321D01*
X131613222Y-122250001D01*
X131613227Y-122250001D01*
X132168895Y-122139472D01*
X132799029Y-121718429D01*
X132905311Y-121559367D01*
X132972823Y-121491855D01*
X133079527Y-122028294D01*
G36*
X143980145Y-88100175D02*
X143664546Y-88115222D01*
X143263995Y-88281136D01*
X143189861Y-88527255D01*
X144018000Y-89355395D01*
X144032142Y-89341252D01*
X144211748Y-89520858D01*
X144197605Y-89535000D01*
X145025745Y-90363139D01*
X145271864Y-90289005D01*
X145464965Y-89751777D01*
X145456615Y-89576646D01*
X150876001Y-94996032D01*
X150876000Y-97601369D01*
X146699252Y-101778118D01*
X146635631Y-101820628D01*
X146593120Y-101884250D01*
X146593119Y-101884251D01*
X146467214Y-102072682D01*
X146408074Y-102369999D01*
X146423002Y-102445047D01*
X146423001Y-110190000D01*
X146372017Y-110190000D01*
X146028365Y-110332345D01*
X145997710Y-110363000D01*
X142119136Y-110363000D01*
X142206157Y-110232765D01*
X142255440Y-109985000D01*
X142255440Y-107185000D01*
X142206157Y-106937235D01*
X142065809Y-106727191D01*
X141855765Y-106586843D01*
X141608000Y-106537560D01*
X138808000Y-106537560D01*
X138560235Y-106586843D01*
X138350191Y-106727191D01*
X138209843Y-106937235D01*
X138160560Y-107185000D01*
X138160560Y-109985000D01*
X138209843Y-110232765D01*
X138350191Y-110442809D01*
X138560235Y-110583157D01*
X138808000Y-110632440D01*
X139554440Y-110632440D01*
X139658629Y-110788371D01*
X139722253Y-110830883D01*
X140141369Y-111250000D01*
X139803213Y-111250000D01*
X139055265Y-111559810D01*
X138482810Y-112132265D01*
X138173000Y-112880213D01*
X138173000Y-113689787D01*
X138482810Y-114437735D01*
X139055265Y-115010190D01*
X139803213Y-115320000D01*
X140612787Y-115320000D01*
X141360735Y-115010190D01*
X141933190Y-114437735D01*
X142095038Y-114047000D01*
X146862957Y-114047000D01*
X146938000Y-114061927D01*
X147013043Y-114047000D01*
X147013048Y-114047000D01*
X147235317Y-114002788D01*
X147487371Y-113834371D01*
X147529884Y-113770746D01*
X147670748Y-113629882D01*
X147734372Y-113587370D01*
X147902789Y-113335316D01*
X147947001Y-113113047D01*
X147947001Y-113113043D01*
X147961928Y-113038000D01*
X147947001Y-112962957D01*
X147947001Y-107029561D01*
X151473000Y-107029561D01*
X151473000Y-107600439D01*
X151691466Y-108127862D01*
X152095138Y-108531534D01*
X152622561Y-108750000D01*
X153193439Y-108750000D01*
X153720862Y-108531534D01*
X154124534Y-108127862D01*
X154343000Y-107600439D01*
X154343000Y-107029561D01*
X154124534Y-106502138D01*
X153720862Y-106098466D01*
X153193439Y-105880000D01*
X152622561Y-105880000D01*
X152095138Y-106098466D01*
X151691466Y-106502138D01*
X151473000Y-107029561D01*
X147947001Y-107029561D01*
X147947001Y-102685629D01*
X148233000Y-102399630D01*
X148233000Y-103229678D01*
X148558034Y-104014380D01*
X149158620Y-104614966D01*
X149943322Y-104940000D01*
X150792678Y-104940000D01*
X151577380Y-104614966D01*
X152177966Y-104014380D01*
X152503000Y-103229678D01*
X152503000Y-102380322D01*
X152177966Y-101595620D01*
X151577380Y-100995034D01*
X150792678Y-100670000D01*
X149962631Y-100670000D01*
X152123750Y-98508881D01*
X152187371Y-98466371D01*
X152355788Y-98214317D01*
X152400000Y-97992048D01*
X152400000Y-97992047D01*
X152414928Y-97917000D01*
X152400000Y-97841953D01*
X152400000Y-94755443D01*
X152414927Y-94680400D01*
X152400000Y-94605357D01*
X152400000Y-94605352D01*
X152355788Y-94383083D01*
X152240137Y-94209999D01*
X158698923Y-94209999D01*
X165243000Y-100754077D01*
X165242999Y-115234522D01*
X165030235Y-115276843D01*
X164820191Y-115417191D01*
X164718087Y-115570000D01*
X153095622Y-115570000D01*
X152908000Y-115532680D01*
X152720378Y-115570000D01*
X152720374Y-115570000D01*
X152354250Y-115642826D01*
X159202369Y-108794708D01*
X159361428Y-108688428D01*
X159535879Y-108427345D01*
X159565948Y-108382344D01*
X159715138Y-108531534D01*
X160242561Y-108750000D01*
X160813439Y-108750000D01*
X161340862Y-108531534D01*
X161744534Y-108127862D01*
X161963000Y-107600439D01*
X161963000Y-107029561D01*
X161744534Y-106502138D01*
X161340862Y-106098466D01*
X160813439Y-105880000D01*
X160242561Y-105880000D01*
X159893000Y-106024793D01*
X159893000Y-102380322D01*
X160433000Y-102380322D01*
X160433000Y-103229678D01*
X160758034Y-104014380D01*
X161358620Y-104614966D01*
X162143322Y-104940000D01*
X162992678Y-104940000D01*
X163777380Y-104614966D01*
X164377966Y-104014380D01*
X164703000Y-103229678D01*
X164703000Y-102380322D01*
X164377966Y-101595620D01*
X163777380Y-100995034D01*
X162992678Y-100670000D01*
X162143322Y-100670000D01*
X161358620Y-100995034D01*
X160758034Y-101595620D01*
X160433000Y-102380322D01*
X159893000Y-102380322D01*
X159893000Y-96967374D01*
X159782471Y-96411706D01*
X159361428Y-95781572D01*
X158731293Y-95360529D01*
X157988000Y-95212679D01*
X157244706Y-95360529D01*
X156614572Y-95781572D01*
X156193529Y-96411707D01*
X156083000Y-96967375D01*
X156083001Y-106525922D01*
X143228924Y-119380000D01*
X141743788Y-119380000D01*
X141763198Y-119360590D01*
X141649725Y-119247117D01*
X141958106Y-119099545D01*
X142251405Y-118344969D01*
X142233614Y-117535591D01*
X141958106Y-116870455D01*
X141649724Y-116722882D01*
X140387605Y-117985000D01*
X140401748Y-117999142D01*
X140222142Y-118178748D01*
X140208000Y-118164605D01*
X140193858Y-118178748D01*
X140014252Y-117999142D01*
X140028395Y-117985000D01*
X138766276Y-116722882D01*
X138457894Y-116870455D01*
X138164595Y-117625031D01*
X138182386Y-118434409D01*
X138457894Y-119099545D01*
X138766275Y-119247117D01*
X138652802Y-119360590D01*
X138672212Y-119380000D01*
X135090792Y-119380000D01*
X135231428Y-119286030D01*
X135337708Y-119126971D01*
X135337710Y-119126969D01*
X135652471Y-118655897D01*
X135699519Y-118419367D01*
X135763000Y-118100228D01*
X135763000Y-118100224D01*
X135800320Y-117912602D01*
X135763000Y-117724980D01*
X135763000Y-116543276D01*
X138945882Y-116543276D01*
X140208000Y-117805395D01*
X141470118Y-116543276D01*
X141322545Y-116234894D01*
X140567969Y-115941595D01*
X139758591Y-115959386D01*
X139093455Y-116234894D01*
X138945882Y-116543276D01*
X135763000Y-116543276D01*
X135763000Y-106834072D01*
X142957706Y-99639367D01*
X143272467Y-99168295D01*
X143420316Y-98425000D01*
X143272467Y-97681706D01*
X142851424Y-97051572D01*
X142221290Y-96630529D01*
X141477996Y-96482680D01*
X140734701Y-96630529D01*
X140263629Y-96945290D01*
X132643632Y-104565288D01*
X132484573Y-104671568D01*
X132378293Y-104830627D01*
X132378290Y-104830630D01*
X132224529Y-105060750D01*
X132063530Y-105301702D01*
X132020003Y-105520530D01*
X131915680Y-106044996D01*
X131953001Y-106232622D01*
X131953001Y-110406367D01*
X131773190Y-109972265D01*
X131200735Y-109399810D01*
X130452787Y-109090000D01*
X129643213Y-109090000D01*
X128895265Y-109399810D01*
X128322810Y-109972265D01*
X128013000Y-110720213D01*
X128013000Y-111529787D01*
X128322810Y-112277735D01*
X128895265Y-112850190D01*
X129643213Y-113160000D01*
X130452787Y-113160000D01*
X131200735Y-112850190D01*
X131773190Y-112277735D01*
X131953001Y-111843634D01*
X131953000Y-116756365D01*
X131773190Y-116322265D01*
X131200735Y-115749810D01*
X130886887Y-115619810D01*
X128657708Y-113390632D01*
X128551427Y-113231571D01*
X127921293Y-112810528D01*
X127365625Y-112699999D01*
X127365620Y-112699999D01*
X127177999Y-112662679D01*
X126990378Y-112699999D01*
X123730926Y-112699999D01*
X124153190Y-112277735D01*
X124283191Y-111963886D01*
X127602368Y-108644709D01*
X127761427Y-108538429D01*
X127928971Y-108287683D01*
X128182469Y-107908296D01*
X128182470Y-107908295D01*
X128292999Y-107352627D01*
X128292999Y-107352623D01*
X128330319Y-107165002D01*
X128292999Y-106977381D01*
X128292999Y-105855765D01*
X128322810Y-105927735D01*
X128895265Y-106500190D01*
X129643213Y-106810000D01*
X130452787Y-106810000D01*
X131200735Y-106500190D01*
X131773190Y-105927735D01*
X132083000Y-105179787D01*
X132083000Y-104370213D01*
X131773190Y-103622265D01*
X131200735Y-103049810D01*
X130452787Y-102740000D01*
X129643213Y-102740000D01*
X128895265Y-103049810D01*
X128322810Y-103622265D01*
X128292999Y-103694235D01*
X128292999Y-98545510D01*
X128516667Y-98590000D01*
X128799333Y-98590000D01*
X129217909Y-98506740D01*
X129692577Y-98189577D01*
X130009740Y-97714909D01*
X130121113Y-97155000D01*
X130009740Y-96595091D01*
X129692577Y-96120423D01*
X129217909Y-95803260D01*
X128799333Y-95720000D01*
X128516667Y-95720000D01*
X128292999Y-95764490D01*
X128292999Y-94329561D01*
X132423000Y-94329561D01*
X132423000Y-94900439D01*
X132641466Y-95427862D01*
X133045138Y-95831534D01*
X133572561Y-96050000D01*
X134143439Y-96050000D01*
X134670862Y-95831534D01*
X134879651Y-95622745D01*
X138109861Y-95622745D01*
X138183995Y-95868864D01*
X138721223Y-96061965D01*
X139291454Y-96034778D01*
X139692005Y-95868864D01*
X139766139Y-95622745D01*
X138938000Y-94794605D01*
X138109861Y-95622745D01*
X134879651Y-95622745D01*
X135074534Y-95427862D01*
X135293000Y-94900439D01*
X135293000Y-94398223D01*
X137491035Y-94398223D01*
X137518222Y-94968454D01*
X137684136Y-95369005D01*
X137930255Y-95443139D01*
X138758395Y-94615000D01*
X139117605Y-94615000D01*
X139945745Y-95443139D01*
X140191864Y-95369005D01*
X140384965Y-94831777D01*
X140357778Y-94261546D01*
X140191864Y-93860995D01*
X139945745Y-93786861D01*
X139117605Y-94615000D01*
X138758395Y-94615000D01*
X137930255Y-93786861D01*
X137684136Y-93860995D01*
X137491035Y-94398223D01*
X135293000Y-94398223D01*
X135293000Y-94329561D01*
X135074534Y-93802138D01*
X134879651Y-93607255D01*
X138109861Y-93607255D01*
X138938000Y-94435395D01*
X139766139Y-93607255D01*
X139692005Y-93361136D01*
X139154777Y-93168035D01*
X138584546Y-93195222D01*
X138183995Y-93361136D01*
X138109861Y-93607255D01*
X134879651Y-93607255D01*
X134670862Y-93398466D01*
X134143439Y-93180000D01*
X133572561Y-93180000D01*
X133045138Y-93398466D01*
X132641466Y-93802138D01*
X132423000Y-94329561D01*
X128292999Y-94329561D01*
X128292999Y-92594077D01*
X129337711Y-91549366D01*
X129337713Y-91549363D01*
X130137709Y-90749367D01*
X130452470Y-90278295D01*
X130498773Y-90045512D01*
X130519664Y-90059471D01*
X131075332Y-90170000D01*
X131075336Y-90170000D01*
X131262957Y-90207320D01*
X131450578Y-90170000D01*
X137132924Y-90170000D01*
X140506292Y-93543369D01*
X140612572Y-93702428D01*
X140771631Y-93808708D01*
X140771633Y-93808710D01*
X141001964Y-93962612D01*
X141242706Y-94123471D01*
X141798374Y-94234000D01*
X141798379Y-94234000D01*
X141986000Y-94271320D01*
X142173621Y-94234000D01*
X143102924Y-94234000D01*
X145388291Y-96519367D01*
X146328034Y-97459111D01*
X146558034Y-98014380D01*
X147158620Y-98614966D01*
X147943322Y-98940000D01*
X148792678Y-98940000D01*
X149577380Y-98614966D01*
X150177966Y-98014380D01*
X150503000Y-97229678D01*
X150503000Y-96380322D01*
X150177966Y-95595620D01*
X149577380Y-94995034D01*
X149022111Y-94765034D01*
X148082367Y-93825291D01*
X145751434Y-91494358D01*
X145391428Y-90955572D01*
X144833984Y-90583099D01*
X144846139Y-90542745D01*
X144018000Y-89714605D01*
X144003858Y-89728748D01*
X143824252Y-89549142D01*
X143838395Y-89535000D01*
X143010255Y-88706861D01*
X142764136Y-88780995D01*
X142571035Y-89318223D01*
X142598222Y-89888454D01*
X142764136Y-90289005D01*
X143010253Y-90363139D01*
X142949392Y-90424000D01*
X142775077Y-90424000D01*
X139781066Y-87429990D01*
X143309960Y-87429990D01*
X143980145Y-88100175D01*
X143980145Y-88100175D01*
G37*
X143980145Y-88100175D02*
X143664546Y-88115222D01*
X143263995Y-88281136D01*
X143189861Y-88527255D01*
X144018000Y-89355395D01*
X144032142Y-89341252D01*
X144211748Y-89520858D01*
X144197605Y-89535000D01*
X145025745Y-90363139D01*
X145271864Y-90289005D01*
X145464965Y-89751777D01*
X145456615Y-89576646D01*
X150876001Y-94996032D01*
X150876000Y-97601369D01*
X146699252Y-101778118D01*
X146635631Y-101820628D01*
X146593120Y-101884250D01*
X146593119Y-101884251D01*
X146467214Y-102072682D01*
X146408074Y-102369999D01*
X146423002Y-102445047D01*
X146423001Y-110190000D01*
X146372017Y-110190000D01*
X146028365Y-110332345D01*
X145997710Y-110363000D01*
X142119136Y-110363000D01*
X142206157Y-110232765D01*
X142255440Y-109985000D01*
X142255440Y-107185000D01*
X142206157Y-106937235D01*
X142065809Y-106727191D01*
X141855765Y-106586843D01*
X141608000Y-106537560D01*
X138808000Y-106537560D01*
X138560235Y-106586843D01*
X138350191Y-106727191D01*
X138209843Y-106937235D01*
X138160560Y-107185000D01*
X138160560Y-109985000D01*
X138209843Y-110232765D01*
X138350191Y-110442809D01*
X138560235Y-110583157D01*
X138808000Y-110632440D01*
X139554440Y-110632440D01*
X139658629Y-110788371D01*
X139722253Y-110830883D01*
X140141369Y-111250000D01*
X139803213Y-111250000D01*
X139055265Y-111559810D01*
X138482810Y-112132265D01*
X138173000Y-112880213D01*
X138173000Y-113689787D01*
X138482810Y-114437735D01*
X139055265Y-115010190D01*
X139803213Y-115320000D01*
X140612787Y-115320000D01*
X141360735Y-115010190D01*
X141933190Y-114437735D01*
X142095038Y-114047000D01*
X146862957Y-114047000D01*
X146938000Y-114061927D01*
X147013043Y-114047000D01*
X147013048Y-114047000D01*
X147235317Y-114002788D01*
X147487371Y-113834371D01*
X147529884Y-113770746D01*
X147670748Y-113629882D01*
X147734372Y-113587370D01*
X147902789Y-113335316D01*
X147947001Y-113113047D01*
X147947001Y-113113043D01*
X147961928Y-113038000D01*
X147947001Y-112962957D01*
X147947001Y-107029561D01*
X151473000Y-107029561D01*
X151473000Y-107600439D01*
X151691466Y-108127862D01*
X152095138Y-108531534D01*
X152622561Y-108750000D01*
X153193439Y-108750000D01*
X153720862Y-108531534D01*
X154124534Y-108127862D01*
X154343000Y-107600439D01*
X154343000Y-107029561D01*
X154124534Y-106502138D01*
X153720862Y-106098466D01*
X153193439Y-105880000D01*
X152622561Y-105880000D01*
X152095138Y-106098466D01*
X151691466Y-106502138D01*
X151473000Y-107029561D01*
X147947001Y-107029561D01*
X147947001Y-102685629D01*
X148233000Y-102399630D01*
X148233000Y-103229678D01*
X148558034Y-104014380D01*
X149158620Y-104614966D01*
X149943322Y-104940000D01*
X150792678Y-104940000D01*
X151577380Y-104614966D01*
X152177966Y-104014380D01*
X152503000Y-103229678D01*
X152503000Y-102380322D01*
X152177966Y-101595620D01*
X151577380Y-100995034D01*
X150792678Y-100670000D01*
X149962631Y-100670000D01*
X152123750Y-98508881D01*
X152187371Y-98466371D01*
X152355788Y-98214317D01*
X152400000Y-97992048D01*
X152400000Y-97992047D01*
X152414928Y-97917000D01*
X152400000Y-97841953D01*
X152400000Y-94755443D01*
X152414927Y-94680400D01*
X152400000Y-94605357D01*
X152400000Y-94605352D01*
X152355788Y-94383083D01*
X152240137Y-94209999D01*
X158698923Y-94209999D01*
X165243000Y-100754077D01*
X165242999Y-115234522D01*
X165030235Y-115276843D01*
X164820191Y-115417191D01*
X164718087Y-115570000D01*
X153095622Y-115570000D01*
X152908000Y-115532680D01*
X152720378Y-115570000D01*
X152720374Y-115570000D01*
X152354250Y-115642826D01*
X159202369Y-108794708D01*
X159361428Y-108688428D01*
X159535879Y-108427345D01*
X159565948Y-108382344D01*
X159715138Y-108531534D01*
X160242561Y-108750000D01*
X160813439Y-108750000D01*
X161340862Y-108531534D01*
X161744534Y-108127862D01*
X161963000Y-107600439D01*
X161963000Y-107029561D01*
X161744534Y-106502138D01*
X161340862Y-106098466D01*
X160813439Y-105880000D01*
X160242561Y-105880000D01*
X159893000Y-106024793D01*
X159893000Y-102380322D01*
X160433000Y-102380322D01*
X160433000Y-103229678D01*
X160758034Y-104014380D01*
X161358620Y-104614966D01*
X162143322Y-104940000D01*
X162992678Y-104940000D01*
X163777380Y-104614966D01*
X164377966Y-104014380D01*
X164703000Y-103229678D01*
X164703000Y-102380322D01*
X164377966Y-101595620D01*
X163777380Y-100995034D01*
X162992678Y-100670000D01*
X162143322Y-100670000D01*
X161358620Y-100995034D01*
X160758034Y-101595620D01*
X160433000Y-102380322D01*
X159893000Y-102380322D01*
X159893000Y-96967374D01*
X159782471Y-96411706D01*
X159361428Y-95781572D01*
X158731293Y-95360529D01*
X157988000Y-95212679D01*
X157244706Y-95360529D01*
X156614572Y-95781572D01*
X156193529Y-96411707D01*
X156083000Y-96967375D01*
X156083001Y-106525922D01*
X143228924Y-119380000D01*
X141743788Y-119380000D01*
X141763198Y-119360590D01*
X141649725Y-119247117D01*
X141958106Y-119099545D01*
X142251405Y-118344969D01*
X142233614Y-117535591D01*
X141958106Y-116870455D01*
X141649724Y-116722882D01*
X140387605Y-117985000D01*
X140401748Y-117999142D01*
X140222142Y-118178748D01*
X140208000Y-118164605D01*
X140193858Y-118178748D01*
X140014252Y-117999142D01*
X140028395Y-117985000D01*
X138766276Y-116722882D01*
X138457894Y-116870455D01*
X138164595Y-117625031D01*
X138182386Y-118434409D01*
X138457894Y-119099545D01*
X138766275Y-119247117D01*
X138652802Y-119360590D01*
X138672212Y-119380000D01*
X135090792Y-119380000D01*
X135231428Y-119286030D01*
X135337708Y-119126971D01*
X135337710Y-119126969D01*
X135652471Y-118655897D01*
X135699519Y-118419367D01*
X135763000Y-118100228D01*
X135763000Y-118100224D01*
X135800320Y-117912602D01*
X135763000Y-117724980D01*
X135763000Y-116543276D01*
X138945882Y-116543276D01*
X140208000Y-117805395D01*
X141470118Y-116543276D01*
X141322545Y-116234894D01*
X140567969Y-115941595D01*
X139758591Y-115959386D01*
X139093455Y-116234894D01*
X138945882Y-116543276D01*
X135763000Y-116543276D01*
X135763000Y-106834072D01*
X142957706Y-99639367D01*
X143272467Y-99168295D01*
X143420316Y-98425000D01*
X143272467Y-97681706D01*
X142851424Y-97051572D01*
X142221290Y-96630529D01*
X141477996Y-96482680D01*
X140734701Y-96630529D01*
X140263629Y-96945290D01*
X132643632Y-104565288D01*
X132484573Y-104671568D01*
X132378293Y-104830627D01*
X132378290Y-104830630D01*
X132224529Y-105060750D01*
X132063530Y-105301702D01*
X132020003Y-105520530D01*
X131915680Y-106044996D01*
X131953001Y-106232622D01*
X131953001Y-110406367D01*
X131773190Y-109972265D01*
X131200735Y-109399810D01*
X130452787Y-109090000D01*
X129643213Y-109090000D01*
X128895265Y-109399810D01*
X128322810Y-109972265D01*
X128013000Y-110720213D01*
X128013000Y-111529787D01*
X128322810Y-112277735D01*
X128895265Y-112850190D01*
X129643213Y-113160000D01*
X130452787Y-113160000D01*
X131200735Y-112850190D01*
X131773190Y-112277735D01*
X131953001Y-111843634D01*
X131953000Y-116756365D01*
X131773190Y-116322265D01*
X131200735Y-115749810D01*
X130886887Y-115619810D01*
X128657708Y-113390632D01*
X128551427Y-113231571D01*
X127921293Y-112810528D01*
X127365625Y-112699999D01*
X127365620Y-112699999D01*
X127177999Y-112662679D01*
X126990378Y-112699999D01*
X123730926Y-112699999D01*
X124153190Y-112277735D01*
X124283191Y-111963886D01*
X127602368Y-108644709D01*
X127761427Y-108538429D01*
X127928971Y-108287683D01*
X128182469Y-107908296D01*
X128182470Y-107908295D01*
X128292999Y-107352627D01*
X128292999Y-107352623D01*
X128330319Y-107165002D01*
X128292999Y-106977381D01*
X128292999Y-105855765D01*
X128322810Y-105927735D01*
X128895265Y-106500190D01*
X129643213Y-106810000D01*
X130452787Y-106810000D01*
X131200735Y-106500190D01*
X131773190Y-105927735D01*
X132083000Y-105179787D01*
X132083000Y-104370213D01*
X131773190Y-103622265D01*
X131200735Y-103049810D01*
X130452787Y-102740000D01*
X129643213Y-102740000D01*
X128895265Y-103049810D01*
X128322810Y-103622265D01*
X128292999Y-103694235D01*
X128292999Y-98545510D01*
X128516667Y-98590000D01*
X128799333Y-98590000D01*
X129217909Y-98506740D01*
X129692577Y-98189577D01*
X130009740Y-97714909D01*
X130121113Y-97155000D01*
X130009740Y-96595091D01*
X129692577Y-96120423D01*
X129217909Y-95803260D01*
X128799333Y-95720000D01*
X128516667Y-95720000D01*
X128292999Y-95764490D01*
X128292999Y-94329561D01*
X132423000Y-94329561D01*
X132423000Y-94900439D01*
X132641466Y-95427862D01*
X133045138Y-95831534D01*
X133572561Y-96050000D01*
X134143439Y-96050000D01*
X134670862Y-95831534D01*
X134879651Y-95622745D01*
X138109861Y-95622745D01*
X138183995Y-95868864D01*
X138721223Y-96061965D01*
X139291454Y-96034778D01*
X139692005Y-95868864D01*
X139766139Y-95622745D01*
X138938000Y-94794605D01*
X138109861Y-95622745D01*
X134879651Y-95622745D01*
X135074534Y-95427862D01*
X135293000Y-94900439D01*
X135293000Y-94398223D01*
X137491035Y-94398223D01*
X137518222Y-94968454D01*
X137684136Y-95369005D01*
X137930255Y-95443139D01*
X138758395Y-94615000D01*
X139117605Y-94615000D01*
X139945745Y-95443139D01*
X140191864Y-95369005D01*
X140384965Y-94831777D01*
X140357778Y-94261546D01*
X140191864Y-93860995D01*
X139945745Y-93786861D01*
X139117605Y-94615000D01*
X138758395Y-94615000D01*
X137930255Y-93786861D01*
X137684136Y-93860995D01*
X137491035Y-94398223D01*
X135293000Y-94398223D01*
X135293000Y-94329561D01*
X135074534Y-93802138D01*
X134879651Y-93607255D01*
X138109861Y-93607255D01*
X138938000Y-94435395D01*
X139766139Y-93607255D01*
X139692005Y-93361136D01*
X139154777Y-93168035D01*
X138584546Y-93195222D01*
X138183995Y-93361136D01*
X138109861Y-93607255D01*
X134879651Y-93607255D01*
X134670862Y-93398466D01*
X134143439Y-93180000D01*
X133572561Y-93180000D01*
X133045138Y-93398466D01*
X132641466Y-93802138D01*
X132423000Y-94329561D01*
X128292999Y-94329561D01*
X128292999Y-92594077D01*
X129337711Y-91549366D01*
X129337713Y-91549363D01*
X130137709Y-90749367D01*
X130452470Y-90278295D01*
X130498773Y-90045512D01*
X130519664Y-90059471D01*
X131075332Y-90170000D01*
X131075336Y-90170000D01*
X131262957Y-90207320D01*
X131450578Y-90170000D01*
X137132924Y-90170000D01*
X140506292Y-93543369D01*
X140612572Y-93702428D01*
X140771631Y-93808708D01*
X140771633Y-93808710D01*
X141001964Y-93962612D01*
X141242706Y-94123471D01*
X141798374Y-94234000D01*
X141798379Y-94234000D01*
X141986000Y-94271320D01*
X142173621Y-94234000D01*
X143102924Y-94234000D01*
X145388291Y-96519367D01*
X146328034Y-97459111D01*
X146558034Y-98014380D01*
X147158620Y-98614966D01*
X147943322Y-98940000D01*
X148792678Y-98940000D01*
X149577380Y-98614966D01*
X150177966Y-98014380D01*
X150503000Y-97229678D01*
X150503000Y-96380322D01*
X150177966Y-95595620D01*
X149577380Y-94995034D01*
X149022111Y-94765034D01*
X148082367Y-93825291D01*
X145751434Y-91494358D01*
X145391428Y-90955572D01*
X144833984Y-90583099D01*
X144846139Y-90542745D01*
X144018000Y-89714605D01*
X144003858Y-89728748D01*
X143824252Y-89549142D01*
X143838395Y-89535000D01*
X143010255Y-88706861D01*
X142764136Y-88780995D01*
X142571035Y-89318223D01*
X142598222Y-89888454D01*
X142764136Y-90289005D01*
X143010253Y-90363139D01*
X142949392Y-90424000D01*
X142775077Y-90424000D01*
X139781066Y-87429990D01*
X143309960Y-87429990D01*
X143980145Y-88100175D01*
G36*
X122621748Y-117460858D02*
X122607605Y-117475000D01*
X122621748Y-117489142D01*
X122442143Y-117668748D01*
X122428000Y-117654605D01*
X122413858Y-117668748D01*
X122234253Y-117489143D01*
X122248395Y-117475000D01*
X122234252Y-117460858D01*
X122413858Y-117281252D01*
X122428000Y-117295395D01*
X122442142Y-117281252D01*
X122621748Y-117460858D01*
X122621748Y-117460858D01*
G37*
X122621748Y-117460858D02*
X122607605Y-117475000D01*
X122621748Y-117489142D01*
X122442143Y-117668748D01*
X122428000Y-117654605D01*
X122413858Y-117668748D01*
X122234253Y-117489143D01*
X122248395Y-117475000D01*
X122234252Y-117460858D01*
X122413858Y-117281252D01*
X122428000Y-117295395D01*
X122442142Y-117281252D01*
X122621748Y-117460858D01*
G04 #@! TD*
M02*
